<?xml version="1.0" standalone="no"?>
<!DOCTYPE svg PUBLIC "-//W3C//DTD SVG 1.1//EN" "http://www.w3.org/Graphics/SVG/1.1/DTD/svg11.dtd" >
<svg xmlns="http://www.w3.org/2000/svg" xmlns:xlink="http://www.w3.org/1999/xlink" version="1.1">
<metadata>
Created by FontForge 20170731 at Sun Sep 18 16:55:21 2016
 By Aleksey,,,
2012 Just van Rossum published by FSI FontShop International GmbH
</metadata>
<defs>
<font id="Schoolboek-Regular" horiz-adv-x="556" >
  <font-face 
    font-family="Schoolboek"
    font-weight="400"
    font-stretch="normal"
    units-per-em="1000"
    panose-1="0 0 5 0 0 0 0 0 0 0"
    ascent="800"
    descent="-200"
    x-height="524"
    cap-height="717"
    bbox="-556 -226 1002 978"
    underline-thickness="50"
    underline-position="-150"
    unicode-range="U+000D-2122"
  />
<missing-glyph horiz-adv-x="565" 
d="M500 717h-435v-717h435v717zM450 667v-617h-335v617h335z" />
    <glyph glyph-name=".notdef" horiz-adv-x="565" 
d="M500 717h-435v-717h435v717zM450 667v-617h-335v617h335z" />
    <glyph glyph-name="uni0000" horiz-adv-x="0" 
 />
    <glyph glyph-name="uni0000" horiz-adv-x="0" 
 />
    <glyph glyph-name="uni000D" unicode="&#xd;" horiz-adv-x="264" 
 />
    <glyph glyph-name="space" unicode=" " horiz-adv-x="264" 
 />
    <glyph glyph-name="exclam" unicode="!" horiz-adv-x="337" 
d="M142 175h53l27 314v228h-107v-228zM219 0v107h-103v-107h103z" />
    <glyph glyph-name="quotedbl" unicode="&#x22;" horiz-adv-x="414" 
d="M153 429l15 288h-94l16 -288h63zM323 429l16 288h-96l17 -288h63z" />
    <glyph glyph-name="numbersign" unicode="#" 
d="M170 433l-45 -165h-111l-16 -60h111l-56 -208h76l56 208h104l-56 -208h76l57 208h110l16 60h-112l46 165h111l16 60h-111l54 197h-75l-55 -197h-104l54 197h-76l-54 -197h-111l-16 -60h111zM305 268h-103l44 165h104z" />
    <glyph glyph-name="dollar" unicode="$" 
d="M104 378q47 -39 148 -61v-258q-73 7 -101 51q-24 37 -26 104h-93q0 -103 48 -161q55 -66 173 -73v-95h47v95q121 13 175 76q45 52 45 149q0 45 -14.5 76.5t-42.5 53.5q-26 20 -65 35.5t-99 32.5v229q53 -2 81.5 -33.5t32.5 -79.5h91q-4 94 -64 144q-50 42 -141 49v64h-46
v-65q-111 -4 -164 -71q-22 -27 -32.5 -60.5t-10.5 -64.5q0 -90 58 -137zM165 598q29 32 87 36v-222q-61 14 -87 41t-26 70q0 45 26 75zM406 247q12 -14 15.5 -30t3.5 -35q0 -67 -41 -98q-34 -24 -85 -26v247q78 -23 107 -58z" />
    <glyph glyph-name="percent" unicode="%" horiz-adv-x="891" 
d="M276 -19l391 715h-54l-391 -715h54zM141 669q-31 -13 -55 -37q-51 -51 -51 -122q0 -35 13.5 -66t37.5 -55t55 -37.5t66 -13.5q71 0 122 51q24 24 37 55t13 66q0 70 -50 122q-52 50 -122 50q-35 0 -66 -13zM281 584q30 -32 30 -74q0 -43 -30 -73q-32 -30 -74 -30
q-43 0 -73 30q-31 29 -31 73q0 43 31 74q30 30 73 30q42 0 74 -30zM618 330q-31 -13 -55 -37q-51 -51 -51 -122q0 -35 13.5 -66t37.5 -55t55 -37.5t66 -13.5q71 0 122 51q24 24 37 55t13 66q0 70 -50 122q-52 50 -122 50q-35 0 -66 -13zM758 245q30 -32 30 -74
q0 -43 -30 -73q-32 -30 -74 -30q-43 0 -73 30q-31 29 -31 73q0 43 31 74q30 30 73 30q42 0 74 -30z" />
    <glyph glyph-name="ampersand" unicode="&#x26;" horiz-adv-x="675" 
d="M161 467q16 -29 49 -68q-89 -54 -124 -99q-19 -25 -28 -53.5t-9 -65.5q0 -33 11.5 -67.5t34.5 -62.5q56 -68 170 -68q78 0 134 35q37 22 72 61l64 -79h122l-129 155q50 79 62 188h-89q-10 -71 -30 -113l-127 152q81 54 108 103q12 21 15.5 40.5t3.5 44.5q0 67 -48 108
q-44 38 -113 38q-77 0 -127 -45q-48 -45 -48 -116q0 -44 26 -88zM249 619q22 20 60 20t60 -27q14 -20 14 -48q0 -38 -22.5 -65.5t-65.5 -56.5q-38 43 -55 74q-13 23 -13 48q0 35 22 55zM173 262.5q28 33.5 89 72.5l158 -193q-33 -42 -69.5 -59t-78.5 -17q-54 0 -90 33
q-37 31 -37 82q0 48 28 81.5z" />
    <glyph glyph-name="quotesingle" unicode="'" horiz-adv-x="240" 
d="M150 429l17 288h-95l17 -288h61z" />
    <glyph glyph-name="parenleft" unicode="(" horiz-adv-x="333" 
d="M111 20q36 -98 124 -224h62q-79 149 -109 254q-14 51 -19.5 100.5t-5.5 112.5q0 140 35 250q30 95 98 216h-63q-101 -153 -136 -259q-17 -52 -24 -102t-7 -111q0 -121 45 -237z" />
    <glyph glyph-name="parenright" unicode=")" horiz-adv-x="333" 
d="M93 605q24 -52 39 -102q33 -108 33 -240q0 -80 -8.5 -140t-26.5 -113q-15 -46 -35.5 -88.5t-63.5 -125.5h67q49 75 80.5 131.5t49.5 108.5q19 54 28 110t9 123q0 71 -12.5 131.5t-37.5 118.5q-19 44 -43.5 87t-61.5 101l-14 22h-66q39 -72 63 -124z" />
    <glyph glyph-name="asterisk" unicode="*" horiz-adv-x="392" 
d="M60 645l-20 -57l107 -34l-67 -93l51 -36l66 94l64 -94l50 36l-66 93l107 34l-21 57l-105 -37v110h-61v-111z" />
    <glyph glyph-name="plus" unicode="+" horiz-adv-x="584" 
d="M36 351v-89h211v-212h90v212h211v89h-211v212h-90v-212h-211z" />
    <glyph glyph-name="comma" unicode="," horiz-adv-x="282" 
d="M143 0q-1 -93 -58 -104v-47q58 8 85 50t27 111v102h-112v-112h58z" />
    <glyph glyph-name="hyphen" unicode="-" horiz-adv-x="330" 
d="M290 230v97h-250v-97h250z" />
    <glyph glyph-name="period" unicode="." horiz-adv-x="279" 
d="M194 0v112h-109v-112h109z" />
    <glyph glyph-name="slash" unicode="/" horiz-adv-x="454" 
d="M462 795l-376 -887l-94 40l376 887z" />
    <glyph glyph-name="zero" unicode="0" 
d="M103 66q62 -85 173 -85t174 86q70 94 70 283q0 179 -66 269q-62 82 -177 82q-116 0 -178.5 -93t-62.5 -271t67 -271zM178 558q34 59 103 59q68 0 101 -55q36 -64 36 -215q0 -152 -37 -220q-33 -61 -105 -61q-138 0 -138 268q0 154 40 224z" />
    <glyph glyph-name="one" unicode="1" 
d="M257 0h100v698h-75q-10 -42 -24 -66.5t-36 -38.5q-20 -13 -49.5 -18.5t-80.5 -8.5v-72h165v-494z" />
    <glyph glyph-name="two" unicode="2" 
d="M186 584q33 33 96 33q65 0 100 -40q29 -36 29 -89q0 -51 -35 -89q-25 -29 -91 -67l-89 -52q-94 -56 -129 -124q-18 -32 -26 -69.5t-10 -86.5h481v89h-372q12 42 42 72q30 31 90 65l66 37q100 56 140 110q37 49 37 118q0 102 -67 159q-31 26 -74 39.5t-92 13.5
q-110 0 -169 -60q-65 -65 -66 -191h96q1 90 43 132z" />
    <glyph glyph-name="three" unicode="3" 
d="M181 588q32 29 94 29q60 0 92 -34q27 -30 27 -73q0 -110 -136 -110h-19q-5 0 -19 2v-81q5 1 16 1h16q101 0 139 -41q15 -16 20 -37t5 -48q0 -64 -44 -98q-20 -16 -46.5 -24t-54.5 -8q-73 0 -108 40q-16 18 -24 44.5t-11 64.5h-99q2 -104 57 -165q62 -69 180 -69
q124 0 192 70q60 61 60 156q0 72 -37 116q-29 35 -78 49q50 22 72 65q17 34 17 78q0 91 -59.5 139t-164.5 48q-116 0 -173 -70q-48 -59 -48 -160h92q4 81 42 116z" />
    <glyph glyph-name="four" unicode="4" 
d="M328 168v-168h95v168h100v82h-100v451h-85l-313 -442v-91h303zM328 250h-219l219 314v-314z" />
    <glyph glyph-name="five" unicode="5" 
d="M137 306q48 64 128 64q32 0 59 -11t46 -31q40 -43 40 -108q0 -75 -40.5 -115t-105.5 -40q-59 0 -94.5 29t-41.5 86h-99q4 -49 24 -87t52 -63q60 -48 151 -48q121 0 191 72q65 68 65 179q0 52 -18.5 93t-52.5 71q-32 28 -72.5 42.5t-84.5 14.5q-42 0 -72.5 -9.5
t-62.5 -33.5l29 189h296v90h-367l-52 -379z" />
    <glyph glyph-name="six" unicode="6" 
d="M112 52q32 -36 75 -53t90 -17q123 0 188 84q26 34 39 76t13 83q0 117 -73 176q-31 25 -69 37t-77 12q-49 0 -93 -20.5t-73 -62.5q7 139 57 205q37 50 103 50q96 0 115 -104h94q-2 76 -48 126q-55 60 -163 60q-125 0 -189.5 -100.5t-64.5 -294.5q0 -173 76 -257z
M181.5 326.5q38.5 38.5 98.5 38.5q69 0 103 -39.5t34 -108.5q0 -76 -39 -115q-37 -37 -94 -37q-73 0 -111 52q-30 41 -30 101q0 70 38.5 108.5z" />
    <glyph glyph-name="seven" unicode="7" 
d="M417 595q-118 -135 -195 -305q-66 -146 -88 -290h104q28 180 117 359q38 79 82.5 143.5t86.5 105.5v82h-489v-95h382z" />
    <glyph glyph-name="eight" unicode="8" 
d="M89 421q22 -27 65 -47q-56 -25 -87 -70.5t-31 -107.5q0 -106 74 -164q33 -26 76.5 -39t92.5 -13q56 0 101.5 17t77.5 48q30 29 45.5 68t15.5 82q0 80 -41 128q-15 18 -31.5 28.5t-41.5 23.5q56 33 76 74q14 29 14 75q0 88 -70 138q-30 20 -68 30t-78 10q-111 0 -170 -62
q-24 -27 -36 -60t-12 -67q0 -57 28 -92zM195 594q31 24 80 24q67 0 99 -39q12 -14 17 -31.5t5 -32.5q0 -54 -36 -82q-32 -25 -83 -25q-59 0 -91 34q-27 28 -27 69q0 55 36 83zM188 302q35 26 88 26q68 0 105 -36.5t37 -98.5q0 -65 -41 -98q-36 -30 -96 -30q-81 0 -115 48
q-27 35 -27 83q0 71 49 106z" />
    <glyph glyph-name="nine" unicode="9" 
d="M113 285q58 -50 146 -50q65 0 107 27q32 19 55 53q-20 -155 -68 -213q-20 -25 -43.5 -33.5t-51.5 -8.5q-52 0 -80.5 30t-31.5 78h-96q2 -83 56 -134q56 -54 154 -54q67 0 116.5 31t81.5 87q58 104 58 273q0 171 -68 255q-63 76 -177 76q-61 0 -105.5 -21.5t-73.5 -58.5
q-26 -34 -38.5 -76t-12.5 -86q0 -115 72 -175zM176 576q37 41 98 41q60 0 96.5 -38.5t36.5 -111.5q0 -82 -44 -119q-18 -15 -42 -22.5t-48 -7.5q-81 0 -113 52q-21 33 -21 93q0 72 37 113z" />
    <glyph glyph-name="colon" unicode=":" horiz-adv-x="309" 
d="M209 404v111h-109v-111h109zM209 0v112h-109v-112h109z" />
    <glyph glyph-name="semicolon" unicode=";" horiz-adv-x="309" 
d="M210 404v111h-110v-111h110zM157 0q-1 -93 -58 -104v-47q58 8 85 50t27 111v102h-112v-112h58z" />
    <glyph glyph-name="less" unicode="&#x3c;" horiz-adv-x="584" 
d="M577 40v95l-458 171l458 173v95l-570 -224v-87z" />
    <glyph glyph-name="equal" unicode="=" horiz-adv-x="584" 
d="M548 368v89h-512v-89h512zM548 155v90h-512v-90h512z" />
    <glyph glyph-name="greater" unicode="&#x3e;" horiz-adv-x="584" 
d="M465 307l-458 -171v-95l570 222v88l-570 224v-95z" />
    <glyph glyph-name="question" unicode="?" horiz-adv-x="608" 
d="M202 607q30 37 95 37q61 0 90.5 -30t29.5 -85q0 -29 -11.5 -51t-36.5 -47l-38 -38q-30 -30 -46.5 -52t-25.5 -45q-9 -22 -12.5 -47.5t-3.5 -61.5h93q0 50 10 79.5t35 54.5l50 51q28 29 42.5 46t24.5 33q19 31 19 78q0 45 -16 82t-46 63t-70 39.5t-86 13.5
q-103 0 -166 -66q-29 -31 -44 -74t-15 -94h94q4 77 34 114zM344 0v107h-103v-107h103z" />
    <glyph glyph-name="at" unicode="@" horiz-adv-x="1000" 
d="M132 92q29 -67 83 -116t128.5 -75.5t163.5 -26.5q99 0 195 36q71 26 127 72l-33 45q-81 -60 -161 -80q-51 -14 -117 -14q-172 0 -265 95q-41 41 -61 95t-20 113q0 70 24 132t69 107q47 46 116.5 72t157.5 26q63 0 116.5 -16t92.5 -46q39 -31 60 -76t21 -102
q0 -92 -45 -152q-21 -27 -46.5 -42t-50.5 -15q-43 0 -43 42q0 23 6.5 42t7.5 23l64 214h-74l-24 -79q-5 46 -38 70.5t-77 24.5q-43 0 -80 -22.5t-66 -60.5q-27 -36 -41.5 -79t-14.5 -83q0 -69 39 -113q37 -43 96 -43q96 0 143 95v-6v-10q0 -35 24.5 -57t69.5 -22
q44 0 83.5 22t70.5 60q30 37 46.5 86t16.5 101q0 70 -26 126.5t-75 96.5q-48 39 -116 60t-149 21q-98 0 -178 -31.5t-136 -87.5q-55 -55 -84 -126t-29 -149q0 -80 29 -147zM401.5 279q10.5 35 29.5 63q19 30 43.5 48t52.5 18q36 0 58 -27q8 -11 12 -24.5t4 -24.5
q0 -28 -9.5 -64.5t-25.5 -68.5q-19 -36 -45 -58.5t-57 -22.5t-52 24t-21 71q0 31 10.5 66z" />
    <glyph glyph-name="A" unicode="A" horiz-adv-x="678" 
d="M124 0l74 206h281l68 -206h115l-259 717h-118l-269 -717h108zM227 291l112 312l107 -312h-219z" />
    <glyph glyph-name="B" unicode="B" horiz-adv-x="668" 
d="M381 0q116 0 186 59q32 28 49 66.5t17 84.5q0 67 -31 109.5t-97 66.5q52 27 73.5 63.5t21.5 89.5q0 85 -58 131.5t-168 46.5h-299v-717h306zM463.5 605.5q32.5 -24.5 32.5 -79.5q0 -56 -34 -82.5t-109 -26.5h-177v213h176q79 0 111.5 -24.5zM490.5 303q38.5 -29 38.5 -87
q0 -62 -39 -94.5t-109 -32.5h-205v243h191q85 0 123.5 -29z" />
    <glyph glyph-name="C" unicode="C" horiz-adv-x="718" 
d="M578 674q-82 62 -203 62q-79 0 -141.5 -27.5t-106.5 -78.5q-42 -49 -64.5 -118t-22.5 -148q0 -94 24 -166.5t69 -121.5q43 -47 102 -71t129 -24q66 0 121.5 21t96.5 59t65 88.5t30 111.5h-103q-19 -93 -68.5 -140.5t-132.5 -47.5q-48 0 -89.5 16.5t-70.5 49.5
q-66 71 -66 211q0 147 63 224q59 71 164 71q82 0 129.5 -37.5t65.5 -108.5h102q-10 110 -93 175z" />
    <glyph glyph-name="D" unicode="D" horiz-adv-x="715" 
d="M367 0q71 0 127 26t96 76q39 49 59.5 117t20.5 152q0 83 -21.5 148.5t-62.5 109.5q-40 43 -96.5 65.5t-123.5 22.5h-291v-717h292zM563 355q0 -130 -57 -198t-158 -68h-169v540h168q216 0 216 -274z" />
    <glyph glyph-name="E" unicode="E" horiz-adv-x="658" 
d="M608 0v91h-430v236h389v89h-389v208h421v93h-524v-717h533z" />
    <glyph glyph-name="F" unicode="F" horiz-adv-x="611" 
d="M180 0v323h347v91h-347v210h394v93h-499v-717h105z" />
    <glyph glyph-name="G" unicode="G" horiz-adv-x="771" 
d="M64.5 189.5q24.5 -69.5 68.5 -116.5q42 -45 100.5 -68.5t127.5 -23.5q91 0 151 30q26 13 47.5 32t48.5 49l22 -92h68v384h-313v-86h216q-4 -123 -73 -182q-54 -46 -147 -46q-110 0 -168 67q-65 73 -65 216q0 70 17 125.5t49 93.5q31 36 73 54.5t91 18.5q83 0 136 -36
t70 -110h103q-18 111 -88 170q-80 67 -218 67q-77 0 -140 -28t-108 -80t-69 -123.5t-24 -155.5q0 -90 24.5 -159.5z" />
    <glyph glyph-name="H" unicode="H" horiz-adv-x="721" 
d="M181 0v333h360v-333h105v717h-105v-293h-360v293h-106v-717h106z" />
    <glyph glyph-name="I" unicode="I" horiz-adv-x="256" 
d="M181 0v717h-106v-717h106z" />
    <glyph glyph-name="J" unicode="J" horiz-adv-x="523" 
d="M343 152.5q-6 -31.5 -19 -50.5q-13 -18 -34 -25.5t-52 -7.5q-53 0 -79 28t-26 94v46h-98v-46q0 -111 57 -163q50 -47 143 -47q107 0 161 55q57 59 57 179v502h-104v-481q0 -52 -6 -83.5z" />
    <glyph glyph-name="K" unicode="K" horiz-adv-x="684" 
d="M178 0v249l109 105l247 -354h135l-307 427l298 290h-142l-340 -341v341h-103v-717h103z" />
    <glyph glyph-name="L" unicode="L" horiz-adv-x="567" 
d="M542 0v91h-362v626h-105v-717h467z" />
    <glyph glyph-name="M" unicode="M" horiz-adv-x="838" 
d="M175 0v432q0 52 -1 80q-2 54 -2 93l196 -605h103l195 605q0 -60 -1 -87t-1 -86v-432h99v717h-148l-194 -600l-196 600h-150v-717h100z" />
    <glyph glyph-name="N" unicode="N" horiz-adv-x="722" 
d="M174 0v571l358 -571h115v717h-100v-570l-351 570h-121v-717h99z" />
    <glyph glyph-name="O" unicode="O" horiz-adv-x="778" 
d="M65 195q25 -71 72 -119q46 -48 109.5 -72.5t139.5 -24.5q82 0 147.5 28t111.5 81q45 51 69 123t24 159q0 186 -101 282q-93 86 -250 86q-74 0 -137 -25t-110 -73q-48 -50 -74 -121.5t-26 -162.5q0 -90 25 -161zM216 569q32 37 77 56.5t99 19.5q104 0 170 -69
q33 -36 51.5 -88.5t18.5 -118.5q0 -145 -65 -222q-31 -37 -75 -56t-96 -19q-119 0 -183.5 71t-64.5 208q0 141 68 218z" />
    <glyph glyph-name="P" unicode="P" horiz-adv-x="658" 
d="M180 0v297h215q103 0 162 59q56 54 56 153q0 100 -59 156q-56 52 -157 52h-322v-717h105zM474 599.5q34 -29.5 34 -91.5t-34.5 -92.5t-107.5 -30.5h-186v244h186q74 0 108 -29.5z" />
    <glyph glyph-name="Q" unicode="Q" horiz-adv-x="778" 
d="M141 69q46 -45 108.5 -67.5t135.5 -22.5q102 0 189 48l107 -83l53 62l-96 77q45 45 72.5 119.5t27.5 168.5q0 92 -26.5 162t-74.5 116q-47 44 -111 66.5t-139 22.5q-78 0 -141.5 -26t-109.5 -76t-71 -121.5t-25 -158.5q0 -189 101 -287zM218 577q64 68 174 68
q51 0 95 -18t76 -52q33 -35 51 -87.5t18 -118.5q0 -70 -19 -127t-51 -97l-91 73l-53 -63l78 -63q-33 -20 -100 -20q-119 0 -183.5 74t-64.5 205q0 151 70 226z" />
    <glyph glyph-name="R" unicode="R" horiz-adv-x="696" 
d="M179 0v304h212q72 0 102.5 -25t33.5 -84l6 -111q2 -28 4.5 -49t7.5 -35h114q-13 25 -18 47q-6 26 -7 75l-3 89q-1 58 -20 89q-9 16 -25.5 28t-42.5 24q103 49 103 171q0 92 -58 143t-178 51h-335v-717h104zM506.5 600.5q33.5 -28.5 33.5 -88.5q0 -64 -34.5 -92.5
t-109.5 -28.5h-217v238h228q66 0 99.5 -28.5z" />
    <glyph glyph-name="S" unicode="S" horiz-adv-x="669" 
d="M81 444.5q12 -29.5 37 -51.5q45 -40 153 -63l100 -22q90 -19 121 -46q16 -14 22 -31.5t6 -43.5q0 -56 -47 -88t-134 -32q-184 0 -193 163h-99q0 -118 78 -185q77 -66 209 -66q140 0 216 63q36 30 54 71t18 89q0 81 -45.5 126.5t-136.5 66.5l-104 23q-100 20 -132 41
q-19 12 -27 28.5t-8 42.5q0 51 37 82q43 34 119 34q90 0 135 -40q19 -17 28.5 -41.5t13.5 -57.5h98q0 57 -21 101t-58 73q-36 27 -85.5 41t-106.5 14q-125 0 -196 -66q-32 -30 -48 -70t-16 -85q0 -41 12 -70.5z" />
    <glyph glyph-name="T" unicode="T" horiz-adv-x="614" 
d="M254 626v-626h106v626h238v91h-582v-91h238z" />
    <glyph glyph-name="U" unicode="U" horiz-adv-x="707" 
d="M145 55q71 -74 208 -74q138 0 210 73q74 77 74 239v424h-107v-443q0 -107 -46.5 -154.5t-137.5 -47.5q-81 0 -125 50t-44 152v443h-107v-424q0 -161 75 -238z" />
    <glyph glyph-name="V" unicode="V" horiz-adv-x="658" 
d="M384 0l258 717h-115l-197 -602l-199 602h-115l259 -717h109z" />
    <glyph glyph-name="W" unicode="W" horiz-adv-x="948" 
d="M315 0l132 487l27 103l26 -103l132 -487h108l190 717h-113l-109 -469l-24 -106l-28 105l-126 470h-113l-121 -454l-33 -121l-27 120l-105 455h-113l190 -717h107z" />
    <glyph glyph-name="X" unicode="X" horiz-adv-x="663" 
d="M16 0h125l191 288l186 -288h129l-250 369l238 348h-124l-175 -268l-175 268h-129l237 -349z" />
    <glyph glyph-name="Y" unicode="Y" horiz-adv-x="654" 
d="M275 0h105v286l267 431h-122l-197 -339l-199 339h-122l268 -431v-286z" />
    <glyph glyph-name="Z" unicode="Z" horiz-adv-x="640" 
d="M466 626l-431 -539v-87h565v91h-433l432 538v88h-535v-91h402z" />
    <glyph glyph-name="bracketleft" unicode="[" horiz-adv-x="286" 
d="M258 -196v76h-105v766h105v77h-195v-919h195z" />
    <glyph glyph-name="backslash" unicode="\" horiz-adv-x="298" 
d="M226 0h80l-234 717h-80z" />
    <glyph glyph-name="bracketright" unicode="]" horiz-adv-x="286" 
d="M128 647v-767h-105v-76h195v919h-195v-76h105z" />
    <glyph glyph-name="asciicircum" unicode="^" horiz-adv-x="584" 
d="M292 611l127 -316h86l-174 422h-79l-173 -422h86z" />
    <glyph glyph-name="underscore" unicode="_" 
d="M558 -128v50h-560v-50h560z" />
    <glyph glyph-name="grave" unicode="`" horiz-adv-x="500" 
d="M322 594l-89 141h-116l134 -141h71z" />
    <glyph glyph-name="a" unicode="a" horiz-adv-x="545" 
d="M411.5 0q-20.5 17 -26.5 54q-30 -34 -71.5 -53t-102.5 -19q-78 0 -127 39.5t-49 113.5q0 66 35.5 109.5t126.5 55.5l131 18q39 4 53 12v41q0 39 -24.5 62t-87.5 23q-58 0 -89 -24t-32 -71h-92q4 81 50.5 128.5t165.5 47.5q92 0 147.5 -41.5t55.5 -122.5v-272
q0 -20 8.5 -30t27.5 -10q7 0 19 2v-72q-28 -8 -59 -8q-39 0 -59.5 17zM161 80q30 -21 70 -21q30 0 64.5 14t59 46t24.5 81v56q-15 -5 -64 -13l-71 -12q-59 -10 -86 -28t-27 -62q0 -40 30 -61z" />
    <glyph glyph-name="b" unicode="b" horiz-adv-x="563" 
d="M154 0v67q39 -50 78 -69q31 -15 76 -15q47 0 88 18.5t71 53.5q66 77 66 216q0 130 -64 202q-29 32 -69 48.5t-86 16.5q-62 0 -105 -29q-22 -14 -35.5 -30.5t-15.5 -18.5v260h-93v-720h89zM189.5 404q36.5 49 109.5 49q61 0 96 -42q40 -50 40 -145q0 -82 -27 -133
q-36 -66 -111 -66q-66 0 -102 44q-42 50 -42 155q0 89 36.5 138z" />
    <glyph glyph-name="c" unicode="c" horiz-adv-x="514" 
d="M101 47q31 -32 71.5 -47.5t84.5 -15.5q97 0 155 50.5t72 151.5h-94q-14 -65 -46 -93t-80 -28q-72 0 -106 59q-27 47 -27 124q0 92 30 146q34 61 108 61q58 0 89 -33q25 -26 32 -76h94q-12 111 -79 159q-50 34 -136 34q-111 0 -176 -82q-31 -39 -47 -92.5t-16 -116.5
q0 -130 71 -201z" />
    <glyph glyph-name="d" unicode="d" horiz-adv-x="566" 
d="M49 134q19 -51 52 -86q31 -33 68.5 -50t76.5 -17q57 0 96.5 22t71.5 70v-73h87v720h-93v-263q-33 42 -67.5 59.5t-85.5 17.5q-50 0 -92 -20.5t-72 -58.5q-29 -38 -45 -90.5t-16 -114.5q0 -65 19 -116zM168.5 400q38.5 51 105.5 51q64 0 101 -50t37 -140q0 -97 -40 -150
q-18 -23 -43 -35t-54 -12q-66 0 -105.5 48t-39.5 144q0 93 38.5 144z" />
    <glyph glyph-name="e" unicode="e" horiz-adv-x="552" 
d="M105 47q67 -66 176 -66q91 0 150 46q62 50 74 136h-94q-11 -51 -46.5 -75.5t-90.5 -24.5q-137 0 -143 169h381v17q0 139 -64 216q-30 36 -74 54t-96 18q-57 0 -103 -21t-79 -60q-66 -78 -66 -204q0 -133 75 -205zM182 419q39 35 92 35q128 0 140 -149h-280q4 75 48 114z
" />
    <glyph glyph-name="f" unicode="f" horiz-adv-x="285" 
d="M85 448v-448h95v448h88v74h-88v53q0 41 11 54t44 13h14q11 0 18 -1v85q-18 2 -39 2q-77 0 -110 -31.5t-33 -99.5v-75h-73v-74h73z" />
    <glyph glyph-name="g" unicode="g" horiz-adv-x="561" 
d="M103 46q29 -27 66 -39t75 -12q63 0 102 22q34 19 59 57v-19q0 -57 -6.5 -94.5t-22.5 -59.5q-16 -23 -45 -33.5t-72 -10.5q-55 0 -82 19.5t-33 59.5h-98q7 -80 66 -120q53 -37 144 -37q132 0 191 73q49 63 49 188v484h-88v-71q-31 43 -69.5 62t-88.5 19q-45 0 -85 -19
t-70 -54q-31 -37 -48 -89.5t-17 -116.5q0 -141 73 -209zM172 411q35 40 97 40q63 0 100.5 -47.5t37.5 -138.5q0 -97 -43 -146q-40 -47 -106 -47q-68 0 -100 53q-30 46 -30 124q0 111 44 162z" />
    <glyph glyph-name="h" unicode="h" horiz-adv-x="565" 
d="M160 0v303q0 71 43 112q19 19 44.5 28.5t52.5 9.5q53 0 75 -25q27 -32 27 -99v-329h98v336q0 104 -45 152.5t-134 48.5q-53 0 -89.5 -20t-71.5 -63v266h-95v-720h95z" />
    <glyph glyph-name="i" unicode="i" horiz-adv-x="228" 
d="M163 615v103h-98v-103h98zM163 0v524h-98v-524h98z" />
    <glyph glyph-name="j" unicode="j" horiz-adv-x="225" 
d="M160 612v105h-95v-105h95zM49.5 -115q-15.5 -14 -47.5 -14h-8q-7 0 -10 1v-81q20 -3 38 -3q80 0 112 36q14 16 20 41t6 60v599h-95v-590q0 -35 -15.5 -49z" />
    <glyph glyph-name="k" unicode="k" horiz-adv-x="520" 
d="M156 0v192l72 67l158 -259h120l-209 327l199 197h-121l-219 -219v412h-91v-717h91z" />
    <glyph glyph-name="l" unicode="l" horiz-adv-x="270" 
d="M65 104q0 -60 26 -86t88 -26q31 0 66 7v74q-4 -1 -14 -1h-16q-30 0 -42.5 9.5t-12.5 33.5v602h-95v-613z" />
    <glyph glyph-name="m" unicode="m" horiz-adv-x="842" 
d="M160 0v308q0 72 43 112q17 16 39 24t45 8q45 0 65 -26t20 -88v-338h97v315q0 69 39 105q32 31 82 31q89 0 89 -102v-349h98v349q0 99 -46 145q-42 42 -118 42q-104 0 -159 -84q-23 45 -57 64.5t-83 19.5q-47 0 -84.5 -21.5t-70.5 -64.5v74h-94v-524h95z" />
    <glyph glyph-name="n" unicode="n" horiz-adv-x="565" 
d="M160 0v306q0 69 45 109q20 18 46 27.5t54 9.5q49 0 73.5 -31.5t24.5 -91.5v-329h97v338q0 105 -45 153q-42 45 -129 45q-54 0 -95 -21.5t-75 -64.5v74h-91v-524h95z" />
    <glyph glyph-name="o" unicode="o" horiz-adv-x="565" 
d="M109 45q32 -32 75 -48t92 -16q131 0 197 87q57 76 57 203q0 130 -74 204q-33 32 -77.5 48.5t-93.5 16.5q-59 0 -106.5 -22t-79.5 -62q-31 -39 -47.5 -91.5t-16.5 -112.5q0 -136 74 -207zM176 410q40 47 107 47q71 0 107 -42q41 -47 41 -146q0 -95 -33 -147
q-38 -59 -116 -59q-66 0 -104 42q-45 48 -45 148q0 104 43 157z" />
    <glyph glyph-name="p" unicode="p" horiz-adv-x="563" 
d="M160 -208v268q32 -42 67.5 -60t83.5 -18q104 0 163 76.5t59 214.5q0 123 -63 196q-29 33 -68 50.5t-83 17.5q-100 0 -162 -86v73h-92v-732h95zM196 404q35 49 100 49q67 0 103.5 -48t36.5 -140q0 -111 -48 -161q-20 -20 -44 -29.5t-48 -9.5q-67 0 -103.5 45t-36.5 135
q0 105 40 159z" />
    <glyph glyph-name="q" unicode="q" horiz-adv-x="565" 
d="M98 48q30 -32 68.5 -48.5t80.5 -16.5q57 0 96 21t61 57v-269h96v732h-91v-74q-28 44 -66 65.5t-90 21.5q-48 0 -89 -21t-71 -60q-30 -40 -46.5 -92.5t-16.5 -114.5q0 -128 68 -201zM167 401q38 51 98 51q62 0 100 -39q43 -46 43 -147q0 -201 -142 -201q-66 0 -101.5 49
t-35.5 141q0 95 38 146z" />
    <glyph glyph-name="r" unicode="r" horiz-adv-x="342" 
d="M161 0v294q0 68 41 107q36 36 95 36q13 0 30 -3v100q-14 2 -26 2q-87 0 -146 -102v90h-90v-524h96z" />
    <glyph glyph-name="s" unicode="s" horiz-adv-x="509" 
d="M85.5 284.5q37.5 -31.5 119.5 -52.5l72 -18q61 -16 82 -31q19 -14 19 -42q0 -38 -32 -60t-86 -22q-67 0 -98.5 26.5t-35.5 79.5h-93q6 -102 69 -146q54 -39 153 -39q107 0 163 50q27 23 41 54.5t14 67.5q0 32 -8.5 54.5t-28.5 40.5q-38 34 -140 58l-62 15
q-51 12 -70.5 29t-19.5 43q0 32 26.5 49t72.5 17q60 0 89.5 -22.5t31.5 -62.5h91q-2 76 -55.5 120.5t-150.5 44.5q-87 0 -142 -43q-28 -21 -43.5 -53t-15.5 -71q0 -55 37.5 -86.5z" />
    <glyph glyph-name="t" unicode="t" horiz-adv-x="291" 
d="M85 448v-344q0 -60 26 -86t88 -26q31 0 66 7v74q-4 -1 -14 -1h-16q-30 0 -42 9.5t-12 33.5v333h84v76h-84v146h-96v-146h-71v-76h71z" />
    <glyph glyph-name="u" unicode="u" horiz-adv-x="558" 
d="M113 27q42 -41 127 -41q59 0 98.5 23.5t65.5 67.5l1 -77h88v524h-94v-309q0 -62 -39 -104q-40 -42 -101 -42q-49 0 -73.5 26.5t-24.5 85.5v343h-96v-354q0 -97 48 -143z" />
    <glyph glyph-name="v" unicode="v" horiz-adv-x="514" 
d="M306 0l196 524h-103l-141 -421l-136 421h-110l193 -524h101z" />
    <glyph glyph-name="w" unicode="w" horiz-adv-x="736" 
d="M265 0l100 403l103 -403h99l153 524h-96l-104 -406l-100 406h-104l-98 -408l-99 408h-103l150 -524h99z" />
    <glyph glyph-name="x" unicode="x" horiz-adv-x="507" 
d="M10 0h120l121 191l125 -191h121l-184 269l177 255h-116l-117 -180l-116 180h-121l174 -256z" />
    <glyph glyph-name="y" unicode="y" horiz-adv-x="509" 
d="M187 -67q-15 -40 -31 -52.5t-43 -12.5q-20 0 -49 9v-86q32 -5 54 -5q37 0 61.5 7.5t42.5 27.5q19 20 35.5 53t35.5 87l204 563h-104l-137 -421l-136 421h-108l194 -541z" />
    <glyph glyph-name="z" unicode="z" horiz-adv-x="506" 
d="M335 440l-305 -366v-74h441v84h-312l303 362v78h-410v-84h283z" />
    <glyph glyph-name="braceleft" unicode="{" horiz-adv-x="366" 
d="M131 181q23 -33 23 -92v-107q0 -94 59 -140q48 -38 143 -46v60q-57 9 -86.5 42t-29.5 97v80q0 93 -38 139q-33 39 -103 50q35 6 60.5 17t42.5 32q38 44 38 140v63q0 81 34 120q27 30 82 35v59q-61 -4 -100 -19t-62 -41q-40 -45 -40 -143v-87q0 -77 -36 -111
q-30 -28 -93 -37v-56q75 -11 106 -55z" />
    <glyph glyph-name="bar" unicode="|" horiz-adv-x="311" 
d="M201 -196v919h-91v-919h91z" />
    <glyph glyph-name="braceright" unicode="}" horiz-adv-x="366" 
d="M104 622q22 -37 22 -106v-63q0 -98 40 -143q32 -38 100 -46q-86 -11 -118 -70q-14 -24 -18 -52.5t-4 -66.5v-80q0 -74 -42 -109q-28 -23 -73 -30v-60q94 8 146 50q55 44 55 136v107q0 79 41 113q31 27 88 34v56q-75 11 -105 50q-24 32 -24 98v87q0 101 -48 149
q-48 46 -153 54v-59q67 -7 93 -49z" />
    <glyph glyph-name="asciitilde" unicode="~" horiz-adv-x="584" 
d="M452 327q-19 -13 -46 -13q-24 0 -49 9.5t-61 28.5q-35 18 -63 27.5t-56 9.5q-90 0 -141 -94l-20 -38l66 -32l12 20q18 30 38 42.5t49 12.5q23 0 47 -9t63 -28q35 -18 64 -28t58 -10q40 0 74.5 23t58.5 68l21 41l-67 32l-11 -19q-18 -30 -37 -43z" />
    <glyph glyph-name="uni00A0" unicode="&#xa0;" horiz-adv-x="264" 
 />
    <glyph glyph-name="exclamdown" unicode="&#xa1;" horiz-adv-x="337" 
d="M118 524v-107h103v107h-103zM195 349h-53l-27 -314v-228h107v228z" />
    <glyph glyph-name="cent" unicode="&#xa2;" 
d="M82 86q35 -60 97 -87l-34 -115h43l31 103q21 -7 52 -7q89 0 147 44q67 51 89 161h-93q-22 -75 -60 -103q-28 -20 -74 -20q-15 0 -37 6l104 372q34 -12 52 -46q12 -22 14 -49h90q-9 81 -54 131q-29 32 -78 50l27 99h-41l-26 -90q-22 5 -46 5q-58 0 -104 -21t-77 -60
q-31 -38 -47 -90t-16 -113q0 -103 41 -170zM178 402q19 26 44.5 40t54.5 14q16 0 31 -3l-104 -368q-67 50 -67 172q0 88 41 145z" />
    <glyph glyph-name="sterling" unicode="&#xa3;" 
d="M129 317q15 -31 18 -50l2 -25q0 -56 -40 -108q-34 -42 -81 -72l50 -74q17 8 21 11q7 5 25 13q36 15 72 15q43 0 106 -22q72 -23 100 -23q32 0 62.5 12t65.5 38l-40 72q-26 -18 -43.5 -25t-37.5 -7q-21 0 -72 16q-59 18 -91 18q-22 0 -38 -4q-28 -6 -67 -22
q-8 -4 -14 -6.5t-9 -4.5q64 50 91 95t27 92q0 35 -8 61h135v52h-157q-32 62 -45 95q-12 28 -12 52q0 57 39 89q37 29 94 29q133 0 135 -146h96q-1 127 -72 184q-54 44 -152 44q-113 0 -180 -60q-29 -27 -44.5 -62t-15.5 -73q0 -72 49 -152h-74v-52h105z" />
    <glyph glyph-name="currency" unicode="&#xa4;" 
d="M475 305q0 83 -32 134l66 66l-64 63l-69 -69q-43 21 -98 21t-98 -21l-69 69l-64 -63l66 -66q-32 -51 -32 -134t32 -134l-66 -66l64 -63l69 69q43 -21 98 -21t98 21l69 -69l64 63l-66 66q32 51 32 134zM359 187q-28 -28 -81 -28q-52 0 -80 28q-36 36 -36 117q0 80 36 116
q28 28 80 28q53 0 81 -28q36 -36 36 -116q0 -81 -36 -117z" />
    <glyph glyph-name="yen" unicode="&#xa5;" 
d="M229 0h99v112h178v53h-178v78h178v53h-165l226 394h-116l-172 -329l-172 329h-117l226 -394h-162v-53h175v-78h-175v-53h175v-112z" />
    <glyph glyph-name="brokenbar" unicode="&#xa6;" horiz-adv-x="311" 
d="M201 377v346h-91v-346h91zM110 177v-373h91v373h-91z" />
    <glyph glyph-name="section" unicode="&#xa7;" 
d="M73 205q14 -17 34 -33t51 -37l125 -82q56 -37 71 -53q10 -11 14 -22t4 -26q0 -44 -31 -64q-24 -15 -69 -15q-52 0 -74 30q-18 24 -23 77h-93q6 -100 61 -147q48 -41 134 -41q91 0 145 54q23 23 35 52.5t12 59.5q0 65 -56 115q64 45 86 85q16 29 16 74q0 44 -31 87t-82 73
l-135 79q-45 26 -60 42q-18 18 -18 49q0 39 25 58t65 19q47 0 69 -26t26 -78h91q-4 97 -57 142q-48 41 -132 41q-91 0 -141 -57q-20 -23 -29.5 -53t-9.5 -59q0 -67 47 -104q-51 -31 -77 -68t-26 -83q0 -50 33 -89zM147 367q16 20 48 37l143 -86q53 -34 71 -56q15 -20 15 -49
q0 -38 -17 -60t-47 -39l-176 112q-53 33 -53 86q0 35 16 55z" />
    <glyph glyph-name="dieresis" unicode="&#xa8;" horiz-adv-x="500" 
d="M215 605v104h-96v-104h96zM381 605v104h-96v-104h96z" />
    <glyph glyph-name="copyright" unicode="&#xa9;" horiz-adv-x="778" 
d="M61 190q31 -68 86 -115q51 -44 114.5 -67.5t127.5 -23.5q67 0 131.5 25t115.5 71q52 48 82 115.5t30 148.5q0 114 -58 202q-51 75 -138 117q-81 38 -163 38q-67 0 -131 -24.5t-115 -69.5q-53 -48 -83 -114.5t-30 -148.5q0 -86 31 -154zM110.5 477q27.5 58 75.5 99
q44 37 97.5 56t105.5 19q75 0 133 -28t98 -76q36 -43 54.5 -97.5t18.5 -105.5q0 -146 -103 -234q-43 -37 -96.5 -56t-104.5 -19q-75 0 -133.5 28t-98.5 76q-36 44 -55 98t-19 107q0 75 27.5 133zM214.5 266.5q12.5 -37.5 37.5 -66.5q26 -31 63 -48.5t83 -17.5q64 0 108 35
q47 36 59 106h-63q-15 -50 -46 -68q-21 -13 -55 -13q-62 0 -94 47q-30 42 -30 107q0 66 32 107t87 41q48 0 73 -24t31 -63h64q-10 84 -66 119q-45 28 -109 28q-101 0 -150 -75q-19 -30 -28 -65.5t-9 -69.5q0 -42 12.5 -79.5z" />
    <glyph glyph-name="ordfeminine" unicode="&#xaa;" horiz-adv-x="379" 
d="M72 367q18 -20 42.5 -30.5t50.5 -10.5q56 0 96 43v-36h68v334h-69v-35q-39 37 -91 37q-66 0 -102 -49q-37 -49 -37 -127q0 -79 42 -126zM126.5 579q20.5 29 56.5 29q35 0 55.5 -28.5t20.5 -79.5q0 -57 -21 -85t-55 -28q-35 0 -56 27.5t-21 82.5q0 53 20.5 82z" />
    <glyph glyph-name="guillemotleft" unicode="&#xab;" horiz-adv-x="535" 
d="M243 100v92l-104 81l104 82v92l-158 -126v-95zM450 100v92l-105 81l105 82v92l-160 -126v-95z" />
    <glyph glyph-name="logicalnot" unicode="&#xac;" horiz-adv-x="584" 
d="M450 335v-199h90v288h-504v-89h414z" />
    <glyph glyph-name="uni00AD" unicode="&#xad;" horiz-adv-x="330" 
d="M290 230v97h-250v-97h250z" />
    <glyph glyph-name="registered" unicode="&#xae;" horiz-adv-x="778" 
d="M62.5 185.5q32.5 -68.5 88.5 -115.5q51 -43 113.5 -64.5t124.5 -21.5q67 0 131.5 25t115.5 71q52 48 82 115.5t30 148.5q0 114 -58 202q-51 75 -138 117q-81 38 -163 38q-69 0 -134 -26t-115 -74q-51 -49 -80.5 -115t-29.5 -142q0 -90 32.5 -158.5zM106 464q24 56 67 99
q43 42 98.5 65t117.5 23q74 0 133 -28t99 -76q36 -44 55 -97.5t19 -105.5q0 -75 -27.5 -133.5t-75.5 -99.5q-43 -38 -96.5 -57t-106.5 -19q-72 0 -129.5 26.5t-98.5 73.5q-38 43 -58.5 98t-20.5 111q0 64 24 120zM316 147v153h53q65 0 88 -26q11 -12 15 -30t5 -44l1 -29
q0 -15 4 -24h70q-4 6 -6 15q-1 5 -1 37v30q0 48 -29 75q-21 18 -61 26q50 9 73 32.5t23 65.5q0 65 -45 91q-39 23 -121 23h-143v-395h74zM454 474.5q24 -16.5 24 -52.5q0 -40 -25 -54.5t-77 -14.5h-60v138h55q59 0 83 -16.5z" />
    <glyph glyph-name="macron" unicode="&#xaf;" horiz-adv-x="500" 
d="M408 627v61h-316v-61h316z" />
    <glyph glyph-name="degree" unicode="&#xb0;" horiz-adv-x="408" 
d="M343 606.5q-10 26.5 -29 47.5q-44 47 -110 47q-63 0 -106 -43q-20 -21 -31.5 -49t-11.5 -58t11.5 -57t32.5 -48q20 -20 47.5 -31.5t57.5 -11.5q69 0 110 48q19 21 29 47.5t10 53.5q0 28 -10 54.5zM134 492q-22 28 -22 60q0 18 7.5 35.5t20.5 30.5q12 12 29 19t35 7
q24 0 42.5 -9t29.5 -24q10 -13 15 -29t5 -30q0 -47 -32 -71q-29 -21 -60 -21q-45 0 -70 32z" />
    <glyph glyph-name="plusminus" unicode="&#xb1;" horiz-adv-x="584" 
d="M46 431v-89h201v-202h90v202h201v89h-201v202h-90v-202h-201zM538 0v89h-492v-89h492z" />
    <glyph glyph-name="twosuperior" unicode="&#xb2;" horiz-adv-x="386" 
d="M196 651q30 0 46 -16.5t16 -43.5q0 -26 -16.5 -45t-51.5 -39l-48 -28q-56 -33 -78 -74q-21 -37 -23 -102h297v73h-199q6 16 17.5 26t38.5 27l47 28q50 29 74 61t24 75q0 59 -42 93q-19 16 -45 24t-54 8q-64 0 -103 -36q-45 -40 -46 -119h77q5 88 69 88z" />
    <glyph glyph-name="threesuperior" unicode="&#xb3;" horiz-adv-x="386" 
d="M141.5 633.5q15.5 18.5 48.5 18.5q29 0 43.5 -15.5t14.5 -37.5q0 -53 -69 -53h-9q-6 0 -10 1v-66h16q49 0 70 -19q14 -14 14 -40q0 -29 -20 -45.5t-50 -16.5q-36 0 -52.5 19.5t-18.5 55.5h-81q0 -60 33 -97q38 -45 115 -45t120 41q37 34 37 90q0 33 -16 59t-48 38
q49 29 49 86q0 51 -37.5 81.5t-100.5 30.5q-68 0 -107 -42q-33 -36 -33 -96h74q2 34 17.5 52.5z" />
    <glyph glyph-name="acute" unicode="&#xb4;" horiz-adv-x="500" 
d="M372 735h-116l-89 -141h71z" />
    <glyph glyph-name="mu" unicode="&#xb5;" horiz-adv-x="558" 
d="M161 -208v242q48 -48 105 -48q41 0 77 24.5t61 66.5v-77h89v524h-94v-309q0 -63 -35 -104q-17 -20 -39 -31t-46 -11q-59 0 -88.5 39t-29.5 107v309h-96v-732h96z" />
    <glyph glyph-name="paragraph" unicode="&#xb6;" horiz-adv-x="590" 
d="M42.5 400.5q12.5 -40.5 37.5 -71.5q57 -73 158 -74v-433h74v835h111v-835h76v835h61v60h-286q-122 0 -187 -73q-29 -32 -43 -73.5t-14 -86.5q0 -43 12.5 -83.5z" />
    <glyph glyph-name="periodcentered" unicode="&#xb7;" horiz-adv-x="279" 
d="M194 222v112h-109v-112h109z" />
    <glyph glyph-name="cedilla" unicode="&#xb8;" horiz-adv-x="500" 
d="M190 -220.5q22 -5.5 48 -5.5q60 0 95 30q26 23 26 62q0 43 -28 62q-20 14 -52 14q-19 0 -36 -5l45 63h-48l-69 -82l24 -26q19 8 39 8q25 0 39 -14q9 -10 9 -23q0 -22 -17.5 -32.5t-39.5 -10.5q-33 0 -67 15l-17 -39q27 -11 49 -16.5z" />
    <glyph glyph-name="onesuperior" unicode="&#xb9;" horiz-adv-x="274" 
d="M113 303h78v412h-61q-6 -22 -12 -35t-17 -21q-12 -9 -30 -13t-48 -5v-54h90v-284z" />
    <glyph glyph-name="ordmasculine" unicode="&#xba;" horiz-adv-x="373" 
d="M77 367q40 -40 106 -40q83 0 124 54q36 48 36 126q0 80 -47 127q-43 40 -108 40q-74 0 -118 -52q-20 -23 -30 -56t-10 -71q0 -83 47 -128zM127 584q22 28 60 28q81 0 81 -106q0 -55 -19.5 -86.5t-62.5 -31.5q-36 0 -58.5 25.5t-22.5 82.5q0 60 22 88z" />
    <glyph glyph-name="guillemotright" unicode="&#xbb;" horiz-adv-x="535" 
d="M188 273l-103 -81v-92l159 126v95l-159 126v-92zM393 273l-102 -81v-92l159 126v95l-159 126v-92z" />
    <glyph glyph-name="onequarter" unicode="&#xbc;" horiz-adv-x="762" 
d="M580 700h-67l-430 -719h67zM113 283h78v412h-61q-6 -22 -12 -35t-17 -21q-12 -9 -30 -13t-48 -5v-54h90v-284zM588 87v-87h79v87h57v67h-57v259h-69l-180 -255v-71h170zM588 154h-96l96 137v-137z" />
    <glyph glyph-name="onehalf" unicode="&#xbd;" horiz-adv-x="792" 
d="M580 700h-67l-430 -719h67zM113 284h78v412h-61q-6 -22 -12 -35t-17 -21q-12 -9 -30 -13t-48 -5v-54h90v-284zM602 349q30 0 46 -16.5t16 -43.5q0 -26 -16.5 -45t-51.5 -39l-48 -28q-56 -33 -78 -74q-21 -37 -23 -102h297v73h-199q6 16 17.5 26t38.5 27l47 28
q50 29 74 61t24 75q0 59 -42 93q-19 16 -45 24t-54 8q-64 0 -103 -36q-45 -40 -46 -119h77q5 88 69 88z" />
    <glyph glyph-name="threequarters" unicode="&#xbe;" horiz-adv-x="874" 
d="M692 700h-67l-430 -719h67zM141.5 613.5q15.5 18.5 48.5 18.5q29 0 43.5 -15.5t14.5 -37.5q0 -53 -69 -53h-9q-6 0 -10 1v-66h16q49 0 70 -19q14 -14 14 -40q0 -29 -20 -45.5t-50 -16.5q-36 0 -52.5 19.5t-18.5 55.5h-81q0 -60 33 -97q38 -45 115 -45t120 41q37 34 37 90
q0 33 -16 59t-48 38q49 29 49 86q0 51 -37.5 81.5t-100.5 30.5q-68 0 -107 -42q-33 -36 -33 -96h74q2 34 17.5 52.5zM700 87v-87h79v87h57v67h-57v259h-69l-180 -255v-71h170zM700 154h-96l96 137v-137z" />
    <glyph glyph-name="questiondown" unicode="&#xbf;" horiz-adv-x="608" 
d="M264 524v-107h103v107h-103zM406 -83q-30 -37 -95 -37q-61 0 -90.5 30t-29.5 85q0 29 11.5 51t36.5 47l38 38q56 56 73 97q9 22 12 47t3 62h-93q0 -50 -10 -79.5t-35 -54.5l-50 -51q-50 -51 -66 -78q-20 -34 -20 -79q0 -90 63 -144q62 -54 155 -54q103 0 166 66
q29 31 44 74t15 94h-94q-4 -77 -34 -114z" />
    <glyph glyph-name="Agrave" unicode="&#xc0;" horiz-adv-x="678" 
d="M397 776l-89 141h-116l134 -141h71zM124 0l74 206h281l68 -206h115l-259 717h-118l-269 -717h108zM227 291l112 312l107 -312h-219z" />
    <glyph glyph-name="Aacute" unicode="&#xc1;" horiz-adv-x="678" 
d="M496 917h-116l-89 -141h71zM124 0l74 206h281l68 -206h115l-259 717h-118l-269 -717h108zM227 291l112 312l107 -312h-219z" />
    <glyph glyph-name="Acircumflex" unicode="&#xc2;" horiz-adv-x="678" 
d="M344 868l66 -92h84l-102 141h-96l-102 -141h84zM124 0l74 206h281l68 -206h115l-259 717h-118l-269 -717h108zM227 291l112 312l107 -312h-219z" />
    <glyph glyph-name="Atilde" unicode="&#xc3;" horiz-adv-x="678" 
d="M263 830q14 0 30 -4.5t41 -14.5q24 -9 46 -14.5t31 -5.5q48 0 75 35q22 29 29 76h-53q-4 -23 -14.5 -34t-33.5 -11q-19 0 -33 6.5t-17 7.5q-37 17 -56 20q-20 3 -32 3q-56 0 -83 -41q-16 -25 -23 -68h50q9 45 43 45zM124 0l74 206h281l68 -206h115l-259 717h-118
l-269 -717h108zM227 291l112 312l107 -312h-219z" />
    <glyph glyph-name="Adieresis" unicode="&#xc4;" horiz-adv-x="678" 
d="M309 787v104h-96v-104h96zM475 787v104h-96v-104h96zM124 0l74 206h281l68 -206h115l-259 717h-118l-269 -717h108zM227 291l112 312l107 -312h-219z" />
    <glyph glyph-name="Aring" unicode="&#xc5;" horiz-adv-x="678" 
d="M272 804q30 -30 73 -30q42 0 74 30q30 30 30 72t-30 72q-32 30 -74 30q-43 0 -73 -30q-31 -29 -31 -72t31 -72zM301.5 919.5q17.5 17.5 43.5 17.5t43.5 -17.5t17.5 -43.5t-17.5 -43.5t-43.5 -17.5t-43.5 17.5t-17.5 43.5t17.5 43.5zM124 0l74 206h281l68 -206h115
l-259 717h-118l-269 -717h108zM227 291l112 312l107 -312h-219z" />
    <glyph glyph-name="AE" unicode="&#xc6;" horiz-adv-x="994" 
d="M188 204h258v-204h498v91h-395v238h354v87h-354v210h386v91h-648l-287 -717h112zM446 629v-337h-223l130 337h93z" />
    <glyph glyph-name="Ccedilla" unicode="&#xc7;" horiz-adv-x="718" 
d="M647 149.5q-24 -50.5 -65 -88.5q-40 -37 -92.5 -58t-114.5 -22l-32 -44q17 5 36 5q32 0 52 -14q28 -19 28 -62q0 -39 -26 -62q-35 -30 -95 -30q-26 0 -48 5.5t-49 16.5l17 39q34 -15 67 -15q22 0 39.5 10.5t17.5 32.5q0 13 -9 23q-14 14 -39 14q-20 0 -39 -8l-24 26
l55 65q-118 11 -193 93q-45 49 -69 121.5t-24 166.5q0 79 22.5 148t64.5 118q44 51 106.5 78.5t141.5 27.5q121 0 203 -62q83 -65 93 -175h-102q-18 71 -65.5 108.5t-129.5 37.5q-105 0 -164 -71q-63 -77 -63 -224q0 -140 66 -211q29 -33 70.5 -49.5t89.5 -16.5
q83 0 132.5 47.5t68.5 140.5h103q-6 -61 -30 -111.5z" />
    <glyph glyph-name="Egrave" unicode="&#xc8;" horiz-adv-x="658" 
d="M395 776l-89 141h-116l134 -141h71zM608 0v91h-430v236h389v89h-389v208h421v93h-524v-717h533z" />
    <glyph glyph-name="Eacute" unicode="&#xc9;" horiz-adv-x="658" 
d="M494 917h-116l-89 -141h71zM608 0v91h-430v236h389v89h-389v208h421v93h-524v-717h533z" />
    <glyph glyph-name="Ecircumflex" unicode="&#xca;" horiz-adv-x="658" 
d="M342 868l66 -92h84l-102 141h-96l-102 -141h84zM608 0v91h-430v236h389v89h-389v208h421v93h-524v-717h533z" />
    <glyph glyph-name="Edieresis" unicode="&#xcb;" horiz-adv-x="658" 
d="M307 787v104h-96v-104h96zM473 787v104h-96v-104h96zM608 0v91h-430v236h389v89h-389v208h421v93h-524v-717h533z" />
    <glyph glyph-name="Igrave" unicode="&#xcc;" horiz-adv-x="256" 
d="M181 776l-89 141h-116l134 -141h71zM181 0v717h-106v-717h106z" />
    <glyph glyph-name="Iacute" unicode="&#xcd;" horiz-adv-x="256" 
d="M280 917h-116l-89 -141h71zM181 0v717h-106v-717h106z" />
    <glyph glyph-name="Icircumflex" unicode="&#xce;" horiz-adv-x="256" 
d="M128 868l66 -92h84l-102 141h-96l-102 -141h84zM181 0v717h-106v-717h106z" />
    <glyph glyph-name="Idieresis" unicode="&#xcf;" horiz-adv-x="256" 
d="M93 787v104h-96v-104h96zM259 787v104h-96v-104h96zM181 0v717h-106v-717h106z" />
    <glyph glyph-name="Eth" unicode="&#xd0;" horiz-adv-x="730" 
d="M90 332v-332h292q71 0 127 26t96 76q39 49 59.5 117t20.5 152q0 83 -21.5 148.5t-62.5 109.5q-40 43 -96.5 65.5t-123.5 22.5h-291v-297h-74v-88h74zM578 355q0 -130 -57 -198t-158 -68h-169v243h152v88h-152v209h168q216 0 216 -274z" />
    <glyph glyph-name="Ntilde" unicode="&#xd1;" horiz-adv-x="722" 
d="M284 830q14 0 30 -4.5t41 -14.5q24 -9 46 -14.5t31 -5.5q48 0 75 35q22 29 29 76h-53q-4 -23 -14.5 -34t-33.5 -11q-19 0 -33 6.5t-17 7.5q-37 17 -56 20t-32 3q-56 0 -83 -41q-16 -25 -23 -68h50q9 45 43 45zM174 0v571l358 -571h115v717h-100v-570l-351 570h-121v-717
h99z" />
    <glyph glyph-name="Ograve" unicode="&#xd2;" horiz-adv-x="778" 
d="M440 795l-89 141h-116l134 -141h71zM65 195q25 -71 72 -119q46 -48 109.5 -72.5t139.5 -24.5q82 0 147.5 28t111.5 81q45 51 69 123t24 159q0 186 -101 282q-93 86 -250 86q-74 0 -137 -25t-110 -73q-48 -50 -74 -121.5t-26 -162.5q0 -90 25 -161zM216 569q32 37 77 56.5
t99 19.5q104 0 170 -69q33 -36 51.5 -88.5t18.5 -118.5q0 -145 -65 -222q-31 -37 -75 -56t-96 -19q-119 0 -183.5 71t-64.5 208q0 141 68 218z" />
    <glyph glyph-name="Oacute" unicode="&#xd3;" horiz-adv-x="778" 
d="M539 936h-116l-89 -141h71zM65 195q25 -71 72 -119q46 -48 109.5 -72.5t139.5 -24.5q82 0 147.5 28t111.5 81q45 51 69 123t24 159q0 186 -101 282q-93 86 -250 86q-74 0 -137 -25t-110 -73q-48 -50 -74 -121.5t-26 -162.5q0 -90 25 -161zM216 569q32 37 77 56.5t99 19.5
q104 0 170 -69q33 -36 51.5 -88.5t18.5 -118.5q0 -145 -65 -222q-31 -37 -75 -56t-96 -19q-119 0 -183.5 71t-64.5 208q0 141 68 218z" />
    <glyph glyph-name="Ocircumflex" unicode="&#xd4;" horiz-adv-x="778" 
d="M387 887l66 -92h84l-102 141h-96l-102 -141h84zM65 195q25 -71 72 -119q46 -48 109.5 -72.5t139.5 -24.5q82 0 147.5 28t111.5 81q45 51 69 123t24 159q0 186 -101 282q-93 86 -250 86q-74 0 -137 -25t-110 -73q-48 -50 -74 -121.5t-26 -162.5q0 -90 25 -161zM216 569
q32 37 77 56.5t99 19.5q104 0 170 -69q33 -36 51.5 -88.5t18.5 -118.5q0 -145 -65 -222q-31 -37 -75 -56t-96 -19q-119 0 -183.5 71t-64.5 208q0 141 68 218z" />
    <glyph glyph-name="Otilde" unicode="&#xd5;" horiz-adv-x="778" 
d="M314 849q14 0 30 -4.5t41 -14.5q24 -9 46 -14.5t31 -5.5q48 0 75 35q22 29 29 76h-53q-4 -23 -14.5 -34t-33.5 -11q-19 0 -33 6.5t-17 7.5q-37 17 -56 20t-32 3q-56 0 -83 -41q-16 -25 -23 -68h50q9 45 43 45zM65 195q25 -71 72 -119q46 -48 109.5 -72.5t139.5 -24.5
q82 0 147.5 28t111.5 81q45 51 69 123t24 159q0 186 -101 282q-93 86 -250 86q-74 0 -137 -25t-110 -73q-48 -50 -74 -121.5t-26 -162.5q0 -90 25 -161zM216 569q32 37 77 56.5t99 19.5q104 0 170 -69q33 -36 51.5 -88.5t18.5 -118.5q0 -145 -65 -222q-31 -37 -75 -56
t-96 -19q-119 0 -183.5 71t-64.5 208q0 141 68 218z" />
    <glyph glyph-name="Odieresis" unicode="&#xd6;" horiz-adv-x="778" 
d="M352 806v104h-96v-104h96zM518 806v104h-96v-104h96zM65 195q25 -71 72 -119q46 -48 109.5 -72.5t139.5 -24.5q82 0 147.5 28t111.5 81q45 51 69 123t24 159q0 186 -101 282q-93 86 -250 86q-74 0 -137 -25t-110 -73q-48 -50 -74 -121.5t-26 -162.5q0 -90 25 -161z
M216 569q32 37 77 56.5t99 19.5q104 0 170 -69q33 -36 51.5 -88.5t18.5 -118.5q0 -145 -65 -222q-31 -37 -75 -56t-96 -19q-119 0 -183.5 71t-64.5 208q0 141 68 218z" />
    <glyph glyph-name="multiply" unicode="&#xd7;" horiz-adv-x="584" 
d="M291 371l-167 168l-63 -63l167 -168l-167 -167l63 -63l167 167l167 -167l63 63l-167 167l167 168l-63 63z" />
    <glyph glyph-name="Oslash" unicode="&#xd8;" horiz-adv-x="778" 
d="M631 656q-92 82 -244 82q-74 0 -137 -25t-110 -73q-48 -50 -74 -121.5t-26 -162.5q0 -159 77 -258l-81 -89l35 -34l79 87q89 -83 236 -83q82 0 147.5 28t111.5 81q45 51 69 123t24 159q0 159 -77 255l73 80l-29 31zM148 351q0 141 68 218q32 37 77 56.5t99 19.5
q103 0 167 -67l-370 -402q-41 68 -41 175zM632 369q0 -145 -65 -222q-31 -37 -75 -56t-96 -19q-113 0 -178 65l369 406q45 -71 45 -174z" />
    <glyph glyph-name="Ugrave" unicode="&#xd9;" horiz-adv-x="707" 
d="M406 776l-89 141h-116l134 -141h71zM145 55q71 -74 208 -74q138 0 210 73q74 77 74 239v424h-107v-443q0 -107 -46.5 -154.5t-137.5 -47.5q-81 0 -125 50t-44 152v443h-107v-424q0 -161 75 -238z" />
    <glyph glyph-name="Uacute" unicode="&#xda;" horiz-adv-x="707" 
d="M505 917h-116l-89 -141h71zM145 55q71 -74 208 -74q138 0 210 73q74 77 74 239v424h-107v-443q0 -107 -46.5 -154.5t-137.5 -47.5q-81 0 -125 50t-44 152v443h-107v-424q0 -161 75 -238z" />
    <glyph glyph-name="Ucircumflex" unicode="&#xdb;" horiz-adv-x="707" 
d="M353 868l66 -92h84l-102 141h-96l-102 -141h84zM145 55q71 -74 208 -74q138 0 210 73q74 77 74 239v424h-107v-443q0 -107 -46.5 -154.5t-137.5 -47.5q-81 0 -125 50t-44 152v443h-107v-424q0 -161 75 -238z" />
    <glyph glyph-name="Udieresis" unicode="&#xdc;" horiz-adv-x="707" 
d="M318 787v104h-96v-104h96zM484 787v104h-96v-104h96zM145 55q71 -74 208 -74q138 0 210 73q74 77 74 239v424h-107v-443q0 -107 -46.5 -154.5t-137.5 -47.5q-81 0 -125 50t-44 152v443h-107v-424q0 -161 75 -238z" />
    <glyph glyph-name="Yacute" unicode="&#xdd;" horiz-adv-x="654" 
d="M479 917h-116l-89 -141h71zM275 0h105v286l267 431h-122l-197 -339l-199 339h-122l268 -431v-286z" />
    <glyph glyph-name="Thorn" unicode="&#xde;" horiz-adv-x="658" 
d="M75 717v-717h105v192h215q103 0 162 59q56 54 56 153q0 100 -59 156q-56 52 -157 52h-217v105h-105zM474 494.5q34 -29.5 34 -91.5t-34.5 -92.5t-107.5 -30.5h-186v244h186q74 0 108 -29.5z" />
    <glyph glyph-name="germandbls" unicode="&#xdf;" horiz-adv-x="562" 
d="M160 498q0 87 31 121q14 16 33.5 22t47.5 6q55 0 85 -29t30 -81q0 -46 -26 -73q-33 -35 -94 -35h-11q-3 0 -11 2v-81q18 3 38 3q71 -1 106 -41q30 -36 30 -95q0 -81 -46 -118q-19 -15 -43 -22.5t-48 -7.5q-28 0 -43 3v-81q20 -5 63 -5q114 0 170 82q23 33 34 73.5
t11 79.5q0 79 -36 126q-32 42 -80 55q45 22 67 69q13 31 13 77q0 95 -68 143q-55 37 -144 37q-104 0 -154 -57t-50 -170v-501h95v498z" />
    <glyph glyph-name="agrave" unicode="&#xe0;" horiz-adv-x="545" 
d="M242 594l-134 141h116l89 -141h-71zM411.5 0q-20.5 17 -26.5 54q-30 -34 -71.5 -53t-102.5 -19q-78 0 -127 39.5t-49 113.5q0 66 35.5 109.5t126.5 55.5l131 18q39 4 53 12v41q0 39 -24.5 62t-87.5 23q-58 0 -89 -24t-32 -71h-92q4 81 50.5 128.5t165.5 47.5
q92 0 147.5 -41.5t55.5 -122.5v-272q0 -20 8.5 -30t27.5 -10q7 0 19 2v-72q-28 -8 -59 -8q-39 0 -59.5 17zM161 80q30 -21 70 -21q30 0 64.5 14t59 46t24.5 81v56q-15 -5 -64 -13l-71 -12q-59 -10 -86 -28t-27 -62q0 -40 30 -61z" />
    <glyph glyph-name="aacute" unicode="&#xe1;" horiz-adv-x="545" 
d="M286 594h-71l89 141h116zM411.5 0q-20.5 17 -26.5 54q-30 -34 -71.5 -53t-102.5 -19q-78 0 -127 39.5t-49 113.5q0 66 35.5 109.5t126.5 55.5l131 18q39 4 53 12v41q0 39 -24.5 62t-87.5 23q-58 0 -89 -24t-32 -71h-92q4 81 50.5 128.5t165.5 47.5q92 0 147.5 -41.5
t55.5 -122.5v-272q0 -20 8.5 -30t27.5 -10q7 0 19 2v-72q-28 -8 -59 -8q-39 0 -59.5 17zM161 80q30 -21 70 -21q30 0 64.5 14t59 46t24.5 81v56q-15 -5 -64 -13l-71 -12q-59 -10 -86 -28t-27 -62q0 -40 30 -61z" />
    <glyph glyph-name="acircumflex" unicode="&#xe2;" horiz-adv-x="545" 
d="M412 594h-84l-66 92l-66 -92h-84l102 141h96zM411.5 0q-20.5 17 -26.5 54q-30 -34 -71.5 -53t-102.5 -19q-78 0 -127 39.5t-49 113.5q0 66 35.5 109.5t126.5 55.5l131 18q39 4 53 12v41q0 39 -24.5 62t-87.5 23q-58 0 -89 -24t-32 -71h-92q4 81 50.5 128.5t165.5 47.5
q92 0 147.5 -41.5t55.5 -122.5v-272q0 -20 8.5 -30t27.5 -10q7 0 19 2v-72q-28 -8 -59 -8q-39 0 -59.5 17zM161 80q30 -21 70 -21q30 0 64.5 14t59 46t24.5 81v56q-15 -5 -64 -13l-71 -12q-59 -10 -86 -28t-27 -62q0 -40 30 -61z" />
    <glyph glyph-name="atilde" unicode="&#xe3;" horiz-adv-x="545" 
d="M197 712q38 0 88 -23q3 -1 17.5 -7.5t32.5 -6.5q23 0 33.5 11t14.5 34h53q-7 -48 -31.5 -79.5t-72.5 -31.5q-9 0 -31 5.5t-46 14.5q-5 2 -21 7.5t-28 8.5t-22 3q-34 0 -43 -45h-50q15 109 106 109zM411.5 0q-20.5 17 -26.5 54q-30 -34 -71.5 -53t-102.5 -19
q-78 0 -127 39.5t-49 113.5q0 66 35.5 109.5t126.5 55.5l131 18q39 4 53 12v41q0 39 -24.5 62t-87.5 23q-58 0 -89 -24t-32 -71h-92q4 81 50.5 128.5t165.5 47.5q92 0 147.5 -41.5t55.5 -122.5v-272q0 -20 8.5 -30t27.5 -10q7 0 19 2v-72q-28 -8 -59 -8q-39 0 -59.5 17z
M161 80q30 -21 70 -21q30 0 64.5 14t59 46t24.5 81v56q-15 -5 -64 -13l-71 -12q-59 -10 -86 -28t-27 -62q0 -40 30 -61z" />
    <glyph glyph-name="adieresis" unicode="&#xe4;" horiz-adv-x="545" 
d="M131 605v104h96v-104h-96zM297 605v104h96v-104h-96zM411.5 0q-20.5 17 -26.5 54q-30 -34 -71.5 -53t-102.5 -19q-78 0 -127 39.5t-49 113.5q0 66 35.5 109.5t126.5 55.5l131 18q39 4 53 12v41q0 39 -24.5 62t-87.5 23q-58 0 -89 -24t-32 -71h-92q4 81 50.5 128.5
t165.5 47.5q92 0 147.5 -41.5t55.5 -122.5v-272q0 -20 8.5 -30t27.5 -10q7 0 19 2v-72q-28 -8 -59 -8q-39 0 -59.5 17zM161 80q30 -21 70 -21q30 0 64.5 14t59 46t24.5 81v56q-15 -5 -64 -13l-71 -12q-59 -10 -86 -28t-27 -62q0 -40 30 -61z" />
    <glyph glyph-name="aring" unicode="&#xe5;" horiz-adv-x="545" 
d="M188.5 766q30.5 30 73.5 30t73.5 -30t30.5 -72t-30.5 -72t-73.5 -30t-73.5 30t-30.5 72t30.5 72zM219 651q18 -18 43 -18q26 0 43.5 18t17.5 43q0 26 -17.5 43.5t-43.5 17.5q-25 0 -43 -17.5t-18 -43.5q0 -25 18 -43zM411.5 0q-20.5 17 -26.5 54q-30 -34 -71.5 -53
t-102.5 -19q-78 0 -127 39.5t-49 113.5q0 66 35.5 109.5t126.5 55.5l131 18q39 4 53 12v41q0 39 -24.5 62t-87.5 23q-58 0 -89 -24t-32 -71h-92q4 81 50.5 128.5t165.5 47.5q92 0 147.5 -41.5t55.5 -122.5v-272q0 -20 8.5 -30t27.5 -10q7 0 19 2v-72q-28 -8 -59 -8
q-39 0 -59.5 17zM161 80q30 -21 70 -21q30 0 64.5 14t59 46t24.5 81v56q-15 -5 -64 -13l-71 -12q-59 -10 -86 -28t-27 -62q0 -40 30 -61z" />
    <glyph glyph-name="ae" unicode="&#xe6;" horiz-adv-x="889" 
d="M180 432q31 24 89 24q63 0 91 -25q21 -20 21 -56v-45q-9 -5 -53 -12l-131 -18q-91 -12 -131 -61q-31 -37 -31 -104q0 -75 51 -115q47 -38 125 -38q77 0 130 35q37 23 73 74q21 -49 78 -80q53 -29 113 -29q117 0 183 71q44 47 53 110h-96q-18 -66 -63 -87
q-17 -9 -34.5 -11t-40.5 -2q-66 0 -102 45.5t-38 124.5h381v4q0 153 -57 226.5t-179 73.5q-107 0 -167 -76q-28 40 -78 61q-40 15 -88 15q-124 0 -177 -53q-44 -44 -46 -123h92q1 47 32 71zM517 423q38 32 94 32q70 0 106 -48q30 -40 30 -101h-279q6 78 49 117zM162 205
q14 9 32.5 14.5t49.5 11.5l71 12l40 8q11 1 24 5v-56q0 -70 -54 -110q-21 -15 -47 -23t-47 -8q-39 0 -68 20q-32 22 -32 62q0 44 31 64z" />
    <glyph glyph-name="ccedilla" unicode="&#xe7;" horiz-adv-x="514" 
d="M344 93q32 28 46 93h94q-13 -97 -67.5 -147.5t-144.5 -54.5l-34 -47q17 5 36 5q32 0 52 -14q28 -19 28 -62q0 -39 -26 -62q-35 -30 -95 -30q-26 0 -48 5.5t-49 16.5l17 39q34 -15 67 -15q22 0 39.5 10.5t17.5 32.5q0 13 -9 23q-14 14 -39 14q-20 0 -39 -8l-24 26l57 68
q-70 9 -122 61q-71 71 -71 201q0 63 16 116.5t47 92.5q65 82 176 82q86 0 136 -34q67 -48 79 -159h-94q-7 50 -32 76q-31 33 -89 33q-74 0 -108 -61q-30 -54 -30 -146q0 -77 27 -124q34 -59 106 -59q48 0 80 28z" />
    <glyph glyph-name="egrave" unicode="&#xe8;" horiz-adv-x="552" 
d="M327 594l-89 141h-116l134 -141h71zM105 47q67 -66 176 -66q91 0 150 46q62 50 74 136h-94q-11 -51 -46.5 -75.5t-90.5 -24.5q-137 0 -143 169h381v17q0 139 -64 216q-30 36 -74 54t-96 18q-57 0 -103 -21t-79 -60q-66 -78 -66 -204q0 -133 75 -205zM182 419q39 35 92 35
q128 0 140 -149h-280q4 75 48 114z" />
    <glyph glyph-name="eacute" unicode="&#xe9;" horiz-adv-x="552" 
d="M434 735h-116l-89 -141h71zM105 47q67 -66 176 -66q91 0 150 46q62 50 74 136h-94q-11 -51 -46.5 -75.5t-90.5 -24.5q-137 0 -143 169h381v17q0 139 -64 216q-30 36 -74 54t-96 18q-57 0 -103 -21t-79 -60q-66 -78 -66 -204q0 -133 75 -205zM182 419q39 35 92 35
q128 0 140 -149h-280q4 75 48 114z" />
    <glyph glyph-name="ecircumflex" unicode="&#xea;" horiz-adv-x="552" 
d="M276 686l66 -92h84l-102 141h-96l-102 -141h84zM105 47q67 -66 176 -66q91 0 150 46q62 50 74 136h-94q-11 -51 -46.5 -75.5t-90.5 -24.5q-137 0 -143 169h381v17q0 139 -64 216q-30 36 -74 54t-96 18q-57 0 -103 -21t-79 -60q-66 -78 -66 -204q0 -133 75 -205zM182 419
q39 35 92 35q128 0 140 -149h-280q4 75 48 114z" />
    <glyph glyph-name="edieresis" unicode="&#xeb;" horiz-adv-x="552" 
d="M243 605v104h-96v-104h96zM409 605v104h-96v-104h96zM105 47q67 -66 176 -66q91 0 150 46q62 50 74 136h-94q-11 -51 -46.5 -75.5t-90.5 -24.5q-137 0 -143 169h381v17q0 139 -64 216q-30 36 -74 54t-96 18q-57 0 -103 -21t-79 -60q-66 -78 -66 -204q0 -133 75 -205z
M182 419q39 35 92 35q128 0 140 -149h-280q4 75 48 114z" />
    <glyph glyph-name="igrave" unicode="&#xec;" horiz-adv-x="248" 
d="M173 594l-89 141h-116l134 -141h71zM173 0v524h-98v-524h98z" />
    <glyph glyph-name="iacute" unicode="&#xed;" horiz-adv-x="248" 
d="M280 735h-116l-89 -141h71zM173 0v524h-98v-524h98z" />
    <glyph glyph-name="icircumflex" unicode="&#xee;" horiz-adv-x="248" 
d="M122 686l66 -92h84l-102 141h-96l-102 -141h84zM173 0v524h-98v-524h98z" />
    <glyph glyph-name="idieresis" unicode="&#xef;" horiz-adv-x="248" 
d="M89 605v104h-96v-104h96zM255 605v104h-96v-104h96zM173 0v524h-98v-524h98z" />
    <glyph glyph-name="eth" unicode="&#xf0;" horiz-adv-x="539" 
d="M363 485q-46 37 -110 37q-100 0 -161 -73q-30 -36 -46 -86.5t-16 -110.5q0 -131 71 -204q32 -33 75 -50t92 -17q100 0 165 69q71 78 71 219q0 96 -29 179t-85 149l84 20l-14 60l-122 -28q-51 45 -113 75l-60 -46q46 -22 81 -50l-106 -24l14 -60l147 33q38 -41 62 -92z
M166.5 110.5q-38.5 47.5 -38.5 142.5q0 93 40 143.5t103 50.5q66 0 101.5 -47t35.5 -139q0 -94 -40 -147q-19 -25 -44 -38t-53 -13q-66 0 -104.5 47.5z" />
    <glyph glyph-name="ntilde" unicode="&#xf1;" horiz-adv-x="565" 
d="M207 648q14 0 30 -4.5t41 -14.5q24 -9 46 -14.5t31 -5.5q48 0 75 35q22 29 29 76h-53q-4 -23 -14.5 -34t-33.5 -11q-19 0 -33 6.5t-17 7.5q-37 17 -56 20q-20 3 -32 3q-56 0 -83 -41q-16 -25 -23 -68h50q9 45 43 45zM160 0v306q0 69 45 109q20 18 46 27.5t54 9.5
q49 0 73.5 -31.5t24.5 -91.5v-329h97v338q0 105 -45 153q-42 45 -129 45q-54 0 -95 -21.5t-75 -64.5v74h-91v-524h95z" />
    <glyph glyph-name="ograve" unicode="&#xf2;" horiz-adv-x="565" 
d="M334 594l-89 141h-116l134 -141h71zM109 45q32 -32 75 -48t92 -16q131 0 197 87q57 76 57 203q0 130 -74 204q-33 32 -77.5 48.5t-93.5 16.5q-59 0 -106.5 -22t-79.5 -62q-31 -39 -47.5 -91.5t-16.5 -112.5q0 -136 74 -207zM176 410q40 47 107 47q71 0 107 -42
q41 -47 41 -146q0 -95 -33 -147q-38 -59 -116 -59q-66 0 -104 42q-45 48 -45 148q0 104 43 157z" />
    <glyph glyph-name="oacute" unicode="&#xf3;" horiz-adv-x="565" 
d="M441 735h-116l-89 -141h71zM109 45q32 -32 75 -48t92 -16q131 0 197 87q57 76 57 203q0 130 -74 204q-33 32 -77.5 48.5t-93.5 16.5q-59 0 -106.5 -22t-79.5 -62q-31 -39 -47.5 -91.5t-16.5 -112.5q0 -136 74 -207zM176 410q40 47 107 47q71 0 107 -42q41 -47 41 -146
q0 -95 -33 -147q-38 -59 -116 -59q-66 0 -104 42q-45 48 -45 148q0 104 43 157z" />
    <glyph glyph-name="ocircumflex" unicode="&#xf4;" horiz-adv-x="565" 
d="M283 686l66 -92h84l-102 141h-96l-102 -141h84zM109 45q32 -32 75 -48t92 -16q131 0 197 87q57 76 57 203q0 130 -74 204q-33 32 -77.5 48.5t-93.5 16.5q-59 0 -106.5 -22t-79.5 -62q-31 -39 -47.5 -91.5t-16.5 -112.5q0 -136 74 -207zM176 410q40 47 107 47
q71 0 107 -42q41 -47 41 -146q0 -95 -33 -147q-38 -59 -116 -59q-66 0 -104 42q-45 48 -45 148q0 104 43 157z" />
    <glyph glyph-name="otilde" unicode="&#xf5;" horiz-adv-x="565" 
d="M206 648q14 0 30 -4.5t41 -14.5q24 -9 46 -14.5t31 -5.5q48 0 75 35q22 29 29 76h-53q-4 -23 -14.5 -34t-33.5 -11q-19 0 -33 6.5t-17 7.5q-37 17 -56 20t-32 3q-56 0 -83 -41q-16 -25 -23 -68h50q9 45 43 45zM109 45q32 -32 75 -48t92 -16q131 0 197 87q57 76 57 203
q0 130 -74 204q-33 32 -77.5 48.5t-93.5 16.5q-59 0 -106.5 -22t-79.5 -62q-31 -39 -47.5 -91.5t-16.5 -112.5q0 -136 74 -207zM176 410q40 47 107 47q71 0 107 -42q41 -47 41 -146q0 -95 -33 -147q-38 -59 -116 -59q-66 0 -104 42q-45 48 -45 148q0 104 43 157z" />
    <glyph glyph-name="odieresis" unicode="&#xf6;" horiz-adv-x="565" 
d="M250 605v104h-96v-104h96zM416 605v104h-96v-104h96zM109 45q32 -32 75 -48t92 -16q131 0 197 87q57 76 57 203q0 130 -74 204q-33 32 -77.5 48.5t-93.5 16.5q-59 0 -106.5 -22t-79.5 -62q-31 -39 -47.5 -91.5t-16.5 -112.5q0 -136 74 -207zM176 410q40 47 107 47
q71 0 107 -42q41 -47 41 -146q0 -95 -33 -147q-38 -59 -116 -59q-66 0 -104 42q-45 48 -45 148q0 104 43 157z" />
    <glyph glyph-name="divide" unicode="&#xf7;" horiz-adv-x="584" 
d="M347 455v111h-110v-111h110zM548 262v89h-512v-89h512zM347 50v112h-110v-112h110z" />
    <glyph glyph-name="oslash" unicode="&#xf8;" horiz-adv-x="566" 
d="M87 69l-62 -68l30 -26l58 65q32 -29 74 -44t89 -15q131 0 197 87q57 76 57 203q0 107 -52 177l64 71l-27 26l-61 -68q-33 32 -76.5 47.5t-92.5 15.5q-59 0 -106.5 -22t-79.5 -62q-31 -39 -47.5 -91.5t-16.5 -112.5q0 -113 52 -183zM176 410q40 47 107 47q72 0 110 -47
l-240 -268q-20 45 -20 111q0 104 43 157zM398 122q-38 -59 -116 -59q-69 0 -108 45l239 267q18 -40 18 -106q0 -95 -33 -147z" />
    <glyph glyph-name="ugrave" unicode="&#xf9;" horiz-adv-x="558" 
d="M328 594l-89 141h-116l134 -141h71zM113 27q42 -41 127 -41q59 0 98.5 23.5t65.5 67.5l1 -77h88v524h-94v-309q0 -62 -39 -104q-40 -42 -101 -42q-49 0 -73.5 26.5t-24.5 85.5v343h-96v-354q0 -97 48 -143z" />
    <glyph glyph-name="uacute" unicode="&#xfa;" horiz-adv-x="558" 
d="M435 735h-116l-89 -141h71zM113 27q42 -41 127 -41q59 0 98.5 23.5t65.5 67.5l1 -77h88v524h-94v-309q0 -62 -39 -104q-40 -42 -101 -42q-49 0 -73.5 26.5t-24.5 85.5v343h-96v-354q0 -97 48 -143z" />
    <glyph glyph-name="ucircumflex" unicode="&#xfb;" horiz-adv-x="558" 
d="M277 686l66 -92h84l-102 141h-96l-102 -141h84zM113 27q42 -41 127 -41q59 0 98.5 23.5t65.5 67.5l1 -77h88v524h-94v-309q0 -62 -39 -104q-40 -42 -101 -42q-49 0 -73.5 26.5t-24.5 85.5v343h-96v-354q0 -97 48 -143z" />
    <glyph glyph-name="udieresis" unicode="&#xfc;" horiz-adv-x="558" 
d="M244 605v104h-96v-104h96zM410 605v104h-96v-104h96zM113 27q42 -41 127 -41q59 0 98.5 23.5t65.5 67.5l1 -77h88v524h-94v-309q0 -62 -39 -104q-40 -42 -101 -42q-49 0 -73.5 26.5t-24.5 85.5v343h-96v-354q0 -97 48 -143z" />
    <glyph glyph-name="yacute" unicode="&#xfd;" horiz-adv-x="509" 
d="M410 735h-116l-89 -141h71zM187 -67q-15 -40 -31 -52.5t-43 -12.5q-20 0 -49 9v-86q32 -5 54 -5q37 0 61.5 7.5t42.5 27.5q19 20 35.5 53t35.5 87l204 563h-104l-137 -421l-136 421h-108l194 -541z" />
    <glyph glyph-name="thorn" unicode="&#xfe;" horiz-adv-x="563" 
d="M160 -208v268q34 -45 69 -61t79 -16q47 0 88 18.5t71 53.5q66 77 66 216q0 130 -64 202q-29 32 -69 48.5t-86 16.5q-62 0 -105 -29q-22 -14 -35.5 -30.5t-15.5 -18.5v260h-93v-928h95zM189.5 404q36.5 49 109.5 49q61 0 96 -42q40 -50 40 -145q0 -82 -27 -133
q-36 -66 -111 -66q-66 0 -102 44q-42 50 -42 155q0 89 36.5 138z" />
    <glyph glyph-name="ydieresis" unicode="&#xff;" horiz-adv-x="509" 
d="M219 605v104h-96v-104h96zM385 605v104h-96v-104h96zM187 -67q-15 -40 -31 -52.5t-43 -12.5q-20 0 -49 9v-86q32 -5 54 -5q37 0 61.5 7.5t42.5 27.5q19 20 35.5 53t35.5 87l204 563h-104l-137 -421l-136 421h-108l194 -541z" />
    <glyph glyph-name="amacron" unicode="&#x101;" horiz-adv-x="545" 
d="M109 627v61h316v-61h-316zM411.5 0q-20.5 17 -26.5 54q-30 -34 -71.5 -53t-102.5 -19q-78 0 -127 39.5t-49 113.5q0 66 35.5 109.5t126.5 55.5l131 18q39 4 53 12v41q0 39 -24.5 62t-87.5 23q-58 0 -89 -24t-32 -71h-92q4 81 50.5 128.5t165.5 47.5q92 0 147.5 -41.5
t55.5 -122.5v-272q0 -20 8.5 -30t27.5 -10q7 0 19 2v-72q-28 -8 -59 -8q-39 0 -59.5 17zM161 80q30 -21 70 -21q30 0 64.5 14t59 46t24.5 81v56q-15 -5 -64 -13l-71 -12q-59 -10 -86 -28t-27 -62q0 -40 30 -61z" />
    <glyph glyph-name="abreve" unicode="&#x103;" horiz-adv-x="545" 
d="M194 675.5q22 -20.5 77 -20.5q46 0 69.5 19.5t32.5 56.5h51q-10 -70 -49 -103.5t-113 -33.5q-134 0 -151 137h52q9 -35 31 -55.5zM411.5 0q-20.5 17 -26.5 54q-30 -34 -71.5 -53t-102.5 -19q-78 0 -127 39.5t-49 113.5q0 66 35.5 109.5t126.5 55.5l131 18q39 4 53 12v41
q0 39 -24.5 62t-87.5 23q-58 0 -89 -24t-32 -71h-92q4 81 50.5 128.5t165.5 47.5q92 0 147.5 -41.5t55.5 -122.5v-272q0 -20 8.5 -30t27.5 -10q7 0 19 2v-72q-28 -8 -59 -8q-39 0 -59.5 17zM161 80q30 -21 70 -21q30 0 64.5 14t59 46t24.5 81v56q-15 -5 -64 -13l-71 -12
q-59 -10 -86 -28t-27 -62q0 -40 30 -61z" />
    <glyph glyph-name="aogonek" unicode="&#x105;" horiz-adv-x="545" 
d="M372 -62.5q23 30.5 57 52.5q-37 14 -44 64q-30 -34 -71.5 -53t-102.5 -19q-78 0 -127 39.5t-49 113.5q0 66 35.5 109.5t126.5 55.5l131 18q39 4 53 12v41q0 39 -24.5 62t-87.5 23q-58 0 -89 -24t-32 -71h-92q4 81 50.5 128.5t165.5 47.5q92 0 147.5 -41.5t55.5 -122.5
v-272q0 -20 8.5 -30t27.5 -10q7 0 19 2v-72q-42 -15 -67.5 -39t-25.5 -57q0 -15 11.5 -29t40.5 -14q26 0 41 10v-65q-4 -1 -24.5 -8.5t-56.5 -7.5q-39 0 -69.5 22.5t-30.5 67.5q0 36 23 66.5zM161 80q30 -21 70 -21q30 0 64.5 14t59 46t24.5 81v56q-15 -5 -64 -13l-71 -12
q-59 -10 -86 -28t-27 -62q0 -40 30 -61z" />
    <glyph glyph-name="dotlessi" unicode="&#x131;" horiz-adv-x="228" 
d="M163 0v524h-98v-524h98z" />
    <glyph glyph-name="OE" unicode="&#x152;" horiz-adv-x="1013" 
d="M54.5 207.5q19.5 -67.5 56.5 -117.5q37 -51 90.5 -79t119.5 -28q75 0 129 27q40 20 67 61v-71h446v91h-346v236h327v88h-327v211h345v91h-444v-68q-37 49 -91 70q-37 14 -88 14q-117 0 -190 -65q-62 -55 -91 -150q-23 -76 -23 -165q0 -78 19.5 -145.5zM205 586
q54 62 141 62q36 0 66.5 -11t52.5 -31q46 -44 46 -111v-262q0 -90 -56 -132q-44 -32 -105 -32q-106 0 -161 82q-49 74 -49 198q0 162 65 237z" />
    <glyph glyph-name="oe" unicode="&#x153;" horiz-adv-x="953" 
d="M566 5q52 -24 116 -24q91 0 150 46q62 50 74 136h-94q-11 -51 -46.5 -75.5t-90.5 -24.5q-137 0 -143 169h381v15q0 141 -64 218q-30 36 -74 54t-96 18q-62 0 -111.5 -25.5t-82.5 -72.5q-34 50 -86 75.5t-114 25.5q-59 0 -106.5 -22t-79.5 -62q-31 -39 -47.5 -91.5
t-16.5 -112.5q0 -136 74 -207q32 -32 75 -48t92 -16q139 0 204 98q34 -50 86 -74zM176 410q40 47 107 47q71 0 107 -42q41 -47 41 -146q0 -95 -33 -147q-38 -59 -116 -59q-66 0 -104 42q-45 48 -45 148q0 104 43 157zM583 419q39 35 92 35q128 0 140 -149h-280q4 75 48 114z
" />
    <glyph glyph-name="Scaron" unicode="&#x160;" horiz-adv-x="669" 
d="M377 795l102 141h-84l-66 -91l-66 91h-84l102 -141h96zM81 444.5q12 -29.5 37 -51.5q45 -40 153 -63l100 -22q90 -19 121 -46q16 -14 22 -31.5t6 -43.5q0 -56 -47 -88t-134 -32q-184 0 -193 163h-99q0 -118 78 -185q77 -66 209 -66q140 0 216 63q36 30 54 71t18 89
q0 81 -45.5 126.5t-136.5 66.5l-104 23q-100 20 -132 41q-19 12 -27 28.5t-8 42.5q0 51 37 82q43 34 119 34q90 0 135 -40q19 -17 28.5 -41.5t13.5 -57.5h98q0 57 -21 101t-58 73q-36 27 -85.5 41t-106.5 14q-125 0 -196 -66q-32 -30 -48 -70t-16 -85q0 -41 12 -70.5z" />
    <glyph glyph-name="scaron" unicode="&#x161;" horiz-adv-x="509" 
d="M297 594l102 141h-84l-66 -91l-66 91h-84l102 -141h96zM85.5 284.5q37.5 -31.5 119.5 -52.5l72 -18q61 -16 82 -31q19 -14 19 -42q0 -38 -32 -60t-86 -22q-67 0 -98.5 26.5t-35.5 79.5h-93q6 -102 69 -146q54 -39 153 -39q107 0 163 50q27 23 41 54.5t14 67.5
q0 32 -8.5 54.5t-28.5 40.5q-38 34 -140 58l-62 15q-51 12 -70.5 29t-19.5 43q0 32 26.5 49t72.5 17q60 0 89.5 -22.5t31.5 -62.5h91q-2 76 -55.5 120.5t-150.5 44.5q-87 0 -142 -43q-28 -21 -43.5 -53t-15.5 -71q0 -55 37.5 -86.5z" />
    <glyph glyph-name="Ydieresis" unicode="&#x178;" horiz-adv-x="654" 
d="M292 787v104h-96v-104h96zM458 787v104h-96v-104h96zM275 0h105v286l267 431h-122l-197 -339l-199 339h-122l268 -431v-286z" />
    <glyph glyph-name="Zcaron" unicode="&#x17d;" horiz-adv-x="640" 
d="M364 776l102 141h-84l-66 -91l-66 91h-84l102 -141h96zM466 626l-431 -539v-87h565v91h-433l432 538v88h-535v-91h402z" />
    <glyph glyph-name="zcaron" unicode="&#x17e;" horiz-adv-x="506" 
d="M304 594l102 141h-84l-66 -91l-66 91h-84l102 -141h96zM335 440l-305 -366v-74h441v84h-312l303 362v78h-410v-84h283z" />
    <glyph glyph-name="florin" unicode="&#x192;" 
d="M224 389l-63 -341q-10 -55 -17.5 -85t-17.5 -48q-10 -19 -26.5 -28t-40.5 -9q-14 0 -24.5 3.5t-23.5 11.5l-17 -86q27 -13 67 -13q48 0 83 20.5t60 62.5q23 39 40 100t33 151l46 261h128v73h-116q19 112 40 153q11 22 25 31t36 9q19 0 55 -17l16 83q-30 15 -75 15
q-50 0 -83 -20t-54 -59q-19 -32 -29.5 -73t-27.5 -122h-125v-73h111z" />
    <glyph glyph-name="uni0237" unicode="&#x237;" horiz-adv-x="225" 
d="M49.5 -115q-15.5 -14 -47.5 -14h-8q-7 0 -10 1v-81q20 -3 38 -3q80 0 112 36q14 16 20 41t6 60v599h-95v-590q0 -35 -15.5 -49z" />
    <glyph glyph-name="circumflex" unicode="&#x2c6;" horiz-adv-x="500" 
d="M250 686l66 -92h84l-102 141h-96l-102 -141h84z" />
    <glyph glyph-name="tilde" unicode="&#x2dc;" horiz-adv-x="500" 
d="M172 648q14 0 30 -4.5t41 -14.5q24 -9 46 -14.5t31 -5.5q48 0 75 35q22 29 29 76h-53q-4 -23 -14.5 -34t-33.5 -11q-19 0 -33 6.5t-17 7.5q-37 17 -56 20q-20 3 -32 3q-56 0 -83 -41q-16 -25 -23 -68h50q9 45 43 45z" />
    <glyph glyph-name="gravecomb" unicode="&#x300;" horiz-adv-x="0" 
d="M-217 594l-89 141h-116l134 -141h71z" />
    <glyph glyph-name="acutecomb" unicode="&#x301;" horiz-adv-x="0" 
d="M-150 735h-116l-89 -141h71z" />
    <glyph glyph-name="uni0302" unicode="&#x302;" horiz-adv-x="0" 
d="M-286 686l66 -92h84l-102 141h-96l-102 -141h84z" />
    <glyph glyph-name="tildecomb" unicode="&#x303;" horiz-adv-x="0" 
d="M-363 648q14 0 30 -4.5t41 -14.5q24 -9 46 -14.5t31 -5.5q48 0 75 35q22 29 29 76h-53q-4 -23 -14.5 -34t-33.5 -11q-19 0 -33 6.5t-17 7.5q-37 17 -56 20t-32 3q-56 0 -83 -41q-16 -25 -23 -68h50q9 45 43 45z" />
    <glyph glyph-name="uni0308" unicode="&#x308;" horiz-adv-x="0" 
d="M-256 605v104h-96v-104h96zM-90 605v104h-96v-104h96z" />
    <glyph glyph-name="uni030A" unicode="&#x30a;" horiz-adv-x="0" 
d="M-296 622q30 -30 73 -30q42 0 74 30q30 30 30 72t-30 72q-32 30 -74 30q-43 0 -73 -30q-31 -29 -31 -72t31 -72zM-266.5 737.5q17.5 17.5 43.5 17.5t43.5 -17.5t17.5 -43.5t-17.5 -43.5t-43.5 -17.5t-43.5 17.5t-17.5 43.5t17.5 43.5z" />
    <glyph glyph-name="uni030C" unicode="&#x30c;" horiz-adv-x="0" 
d="M-201 594l102 141h-84l-66 -91l-66 91h-84l102 -141h96z" />
    <glyph glyph-name="uni0327" unicode="&#x327;" horiz-adv-x="0" 
d="M-287 -220.5q22 -5.5 48 -5.5q60 0 95 30q26 23 26 62q0 43 -28 62q-20 14 -52 14q-19 0 -36 -5l45 63h-48l-69 -82l24 -26q19 8 39 8q25 0 39 -14q9 -10 9 -23q0 -22 -17.5 -32.5t-39.5 -10.5q-33 0 -67 15l-17 -39q27 -11 49 -16.5z" />
    <glyph glyph-name="endash" unicode="&#x2013;" 
d="M558 239v77h-560v-77h560z" />
    <glyph glyph-name="emdash" unicode="&#x2014;" horiz-adv-x="1000" 
d="M1002 239v77h-1004v-77h1004z" />
    <glyph glyph-name="quoteleft" unicode="&#x2018;" horiz-adv-x="240" 
d="M119 577q0 90 56 101v46q-59 -10 -86 -53q-24 -40 -24 -105v-99h110v110h-56z" />
    <glyph glyph-name="quoteright" unicode="&#x2019;" horiz-adv-x="240" 
d="M122 608q0 -45 -14.5 -70.5t-41.5 -30.5v-47q60 12 86 55q23 37 23 103v99h-110v-109h57z" />
    <glyph glyph-name="quotesinglbase" unicode="&#x201a;" horiz-adv-x="240" 
d="M122 0q0 -92 -56 -103v-47q60 11 85 52t25 108v101h-111v-111h57z" />
    <glyph glyph-name="quotedblleft" unicode="&#x201c;" horiz-adv-x="414" 
d="M119 577q0 44 14.5 70t41.5 31v46q-60 -11 -85 -51t-25 -107v-99h110v110h-56zM293 577q0 44 14.5 70t41.5 31v46q-60 -10 -85 -53q-24 -40 -24 -105v-99h109v110h-56z" />
    <glyph glyph-name="quotedblright" unicode="&#x201d;" horiz-adv-x="414" 
d="M121 608q0 -90 -56 -101v-47q58 11 84 50.5t26 107.5v99h-110v-109h56zM296 608q0 -90 -56 -101v-47q58 11 83.5 51.5t25.5 106.5v99h-110v-109h57z" />
    <glyph glyph-name="quotedblbase" unicode="&#x201e;" horiz-adv-x="414" 
d="M121 0q0 -92 -56 -103v-47q58 11 84 51t26 109v101h-110v-111h56zM295 0q-1 -92 -56 -103v-47q60 11 87 55q23 37 23 105v101h-111v-111h57z" />
    <glyph glyph-name="dagger" unicode="&#x2020;" 
d="M228 423v-586h99v586h187v81h-187v212h-99v-212h-187v-81h187z" />
    <glyph glyph-name="daggerdbl" unicode="&#x2021;" 
d="M228 431v-309h-187v-81h187v-204h99v204h187v81h-187v309h187v81h-187v203h-99v-203h-187v-81h187z" />
    <glyph glyph-name="bullet" unicode="&#x2022;" horiz-adv-x="456" 
d="M152 203q30 -32 76 -32q22 0 42 8.5t35 23.5q31 31 31 76q0 21 -8.5 41.5t-22.5 35.5q-15 14 -35.5 22.5t-41.5 8.5q-45 0 -76 -31q-15 -15 -23.5 -35t-8.5 -42q0 -46 32 -76z" />
    <glyph glyph-name="ellipsis" unicode="&#x2026;" horiz-adv-x="1000" 
d="M221 0v112h-108v-112h108zM554 0v112h-108v-112h108zM887 0v112h-108v-112h108z" />
    <glyph glyph-name="perthousand" unicode="&#x2030;" horiz-adv-x="1000" 
d="M548 724h-54l-412 -750h55zM105 705q-28 -12 -50 -34t-34.5 -50.5t-12.5 -60.5t12.5 -60.5t34.5 -49.5q22 -22 50 -34t60 -12q31 0 60 12t51 34t34 50t12 60q0 31 -12 60t-34 51t-51 34t-60 12q-32 0 -60 -12zM201.5 647.5q17.5 -7.5 30.5 -20.5t20.5 -30.5t7.5 -36.5
q0 -40 -28 -66q-13 -13 -30.5 -20.5t-36.5 -7.5q-39 0 -67 28q-28 26 -28 66q0 19 7.5 36.5t20.5 30.5q28 28 67 28q19 0 36.5 -7.5zM406.5 293q-28.5 -12 -50.5 -34t-34 -50.5t-12 -60.5t12.5 -60.5t34.5 -49.5q22 -22 50 -34t60 -12q31 0 60 12t51 34t34 50t12 60
t-12 60.5t-34 50.5t-50.5 34t-60.5 12t-60.5 -12zM774.5 293q-28.5 -12 -50.5 -34t-34 -50.5t-12 -60.5t12.5 -60.5t34.5 -49.5q22 -22 50 -34t60 -12q31 0 60 12t51 34t34 50t12 60t-12 60.5t-34 50.5t-50.5 34t-60.5 12t-60.5 -12zM503.5 235.5q17.5 -7.5 30.5 -20.5
t20.5 -30.5t7.5 -36.5q0 -40 -28 -66q-13 -13 -30.5 -20.5t-36.5 -7.5q-39 0 -67 28q-28 26 -28 66q0 19 7.5 36.5t20.5 30.5q28 28 67 28q19 0 36.5 -7.5zM871.5 235.5q17.5 -7.5 30.5 -20.5t20.5 -30.5t7.5 -36.5q0 -40 -28 -66q-13 -13 -30.5 -20.5t-36.5 -7.5
q-39 0 -67 28q-28 26 -28 66q0 19 7.5 36.5t20.5 30.5q28 28 67 28q19 0 36.5 -7.5z" />
    <glyph glyph-name="guilsinglleft" unicode="&#x2039;" horiz-adv-x="329" 
d="M244 100v92l-105 81l105 82v92l-159 -126v-95z" />
    <glyph glyph-name="guilsinglright" unicode="&#x203a;" horiz-adv-x="329" 
d="M189 273l-104 -81v-92l159 126v95l-159 126v-92z" />
    <glyph glyph-name="fraction" unicode="&#x2044;" horiz-adv-x="132" 
d="M306 700h-67l-430 -719h67z" />
    <glyph glyph-name="Euro" unicode="&#x20ac;" 
d="M55 376v-45q0 -15 1 -22h-55v-54h59q17 -138 81 -208q59 -66 156 -66q199 0 224 204h-91q-13 -65 -49 -94q-32 -25 -83 -25t-86 44q-40 48 -53 145h233v54h-238q-1 7 -1 22v45q0 15 1 22h238v53h-234q11 94 51 134q32 32 89 32q54 0 85 -27t43 -84h91q-19 196 -215 196
q-98 0 -160.5 -63t-80.5 -188h-60v-53h55q-1 -7 -1 -22z" />
    <glyph glyph-name="trademark" unicode="&#x2122;" horiz-adv-x="990" 
d="M193 654v-292h76v292h114v63h-303v-63h113zM509 362v283l96 -283h60l96 283v-283h69v355h-108l-87 -246l-87 246h-108v-355h69z" />
    <glyph glyph-name="g224" horiz-adv-x="1" 
d="M1 776l-89 141h-116l134 -141h71z" />
    <glyph glyph-name="g225" horiz-adv-x="1" 
d="M1 917h-116l-89 -141h71z" />
    <glyph glyph-name="g226" horiz-adv-x="1" 
d="M-149 868l66 -92h84l-102 141h-96l-102 -141h84z" />
    <glyph glyph-name="g227" horiz-adv-x="1" 
d="M-463 830q14 0 30 -4.5t41 -14.5q24 -9 46 -14.5t31 -5.5q48 0 75 35q22 29 29 76h-53q-4 -23 -14.5 -34t-33.5 -11q-19 0 -33 6.5t-17 7.5q-37 17 -56 20t-32 3q-56 0 -83 -41q-16 -25 -23 -68h50q9 45 43 45z" />
    <glyph glyph-name="g228" horiz-adv-x="1" 
d="M-165 787v104h-96v-104h96zM1 787v104h-96v-104h96z" />
    <glyph glyph-name="g229" horiz-adv-x="1" 
d="M-176 804q30 -30 73 -30q42 0 74 30q30 30 30 72t-30 72q-32 30 -74 30q-43 0 -73 -30q-31 -29 -31 -72t31 -72zM-146.5 919.5q17.5 17.5 43.5 17.5t43.5 -17.5t17.5 -43.5t-17.5 -43.5t-43.5 -17.5t-43.5 17.5t-17.5 43.5t17.5 43.5z" />
    <glyph glyph-name="g237" horiz-adv-x="1" 
d="M-101 776l102 141h-84l-66 -91l-66 91h-84l102 -141h96z" />
    </font>
</defs>
</svg>
