<?xml version="1.0" standalone="no"?>
<!DOCTYPE svg PUBLIC "-//W3C//DTD SVG 1.1//EN" "http://www.w3.org/Graphics/SVG/1.1/DTD/svg11.dtd" >
<svg xmlns="http://www.w3.org/2000/svg" xmlns:xlink="http://www.w3.org/1999/xlink" version="1.1">
<metadata>
Created by FontForge 20170731 at Tue Sep 14 15:12:22 2021
 By Aleksey,,,
Copyright (c) 2013 Swiss Typefaces Sa`rl. All rights reserved.
</metadata>
<defs>
<font id="SuisseIntl" horiz-adv-x="1388" >
  <font-face 
    font-family="Suisse Int'l"
    font-weight="400"
    font-stretch="normal"
    units-per-em="2048"
    panose-1="2 11 5 4 0 0 0 0 0 0"
    ascent="1585"
    descent="-463"
    x-height="1102"
    cap-height="1485"
    bbox="-410 -492 2791 1915"
    underline-thickness="143"
    underline-position="-367"
    unicode-range="U+0020-FB02"
  />
<missing-glyph horiz-adv-x="1024" 
d="M0 0v1485h1024v-1485h-1024zM489 741l-450 684v-1366zM532 741l453 -682v1366zM512 709l-444 -670h886zM68 1446l444 -672l442 672h-886z" />
    <glyph glyph-name=".notdef" horiz-adv-x="1024" 
d="M0 0v1485h1024v-1485h-1024zM489 741l-450 684v-1366zM532 741l453 -682v1366zM512 709l-444 -670h886zM68 1446l444 -672l442 672h-886z" />
    <glyph glyph-name=".null" horiz-adv-x="0" 
 />
    <glyph glyph-name="nonmarkingreturn" horiz-adv-x="682" 
 />
    <glyph glyph-name="space" unicode=" " horiz-adv-x="485" 
 />
    <glyph glyph-name="exclam" unicode="!" horiz-adv-x="501" 
d="M309 434h-116l-41 602v449h198v-449zM369 0h-236v236h236v-236z" />
    <glyph glyph-name="quotedbl" unicode="&#x22;" horiz-adv-x="632" 
d="M369 1485h209l-41 -492h-127zM55 1485h209l-41 -492h-127z" />
    <glyph glyph-name="numbersign" unicode="#" horiz-adv-x="1363" 
d="M133 1102h291l53 383h152l-54 -383h320l53 383h152l-53 -383h274l-21 -146h-274l-49 -356h276l-20 -145h-277l-61 -455h-152l62 455h-320l-61 -455h-152l62 455h-289l21 145h288l49 356h-290zM555 956l-49 -356h319l49 356h-319z" />
    <glyph glyph-name="dollar" unicode="$" horiz-adv-x="1202" 
d="M539 1661h112v-150q211 -15 332.5 -139t118.5 -325h-193q-3 147 -75 221.5t-183 87.5v-508l31 -8q55 -15 96.5 -28.5t91.5 -34.5t86 -43.5t72 -55.5t58.5 -71t36.5 -89t14 -110q0 -100 -38.5 -181t-106 -133.5t-154 -82.5t-187.5 -36v-174h-112v174q-213 19 -343.5 156
t-127.5 340h192q3 -153 83 -239t196 -101v555l-45 12q-177 49 -282.5 155t-105.5 269q0 85 36.5 157t97.5 119.5t137.5 76t161.5 36.5v150zM944 379q0 64 -19 109t-61 76.5t-90 50.5t-123 40v-526q126 8 209.5 72t83.5 178zM299 1124q0 -91 58.5 -150t179.5 -95l2 -2v481
q-100 -7 -170 -67t-70 -167z" />
    <glyph glyph-name="percent" unicode="%" horiz-adv-x="2043" 
d="M410 635q-161 0 -247.5 118t-86.5 314t86.5 314t247.5 118q164 0 251 -117.5t87 -314.5t-87 -314.5t-251 -117.5zM410 748q89 0 135.5 83t46.5 236q0 155 -46.5 238.5t-135.5 83.5q-86 0 -132.5 -84t-46.5 -238q0 -153 46.5 -236t132.5 -83zM614 0h-206l1024 1485h206z
M1638 -14q-161 0 -247 117.5t-86 314.5t86 314.5t247 117.5q164 0 251 -117.5t87 -314.5t-87 -314.5t-251 -117.5zM1638 98q89 0 136 83.5t47 236.5q0 154 -47 237.5t-136 83.5q-86 0 -132 -83.5t-46 -237.5q0 -153 46 -236.5t132 -83.5z" />
    <glyph glyph-name="ampersand" unicode="&#x26;" horiz-adv-x="1439" 
d="M551 -27q-223 0 -358.5 124t-135.5 311q0 164 100 279.5t275 174.5q-80 93 -122 173t-42 163q0 143 112 229t288 86q56 0 108.5 -10t103 -34t87.5 -59.5t59.5 -91t22.5 -124.5q0 -134 -82 -230t-226 -155l301 -320q61 148 72 316h193q-19 -253 -133 -453l331 -352h-268
l-180 193q-207 -220 -506 -220zM551 135q234 0 387 182l-397 426q-285 -102 -285 -327q0 -125 87 -203t208 -78zM467 1212q0 -116 160 -280l4 -6q109 39 174 109t65 157q0 86 -54.5 126t-143.5 40q-85 0 -145 -37.5t-60 -108.5z" />
    <glyph glyph-name="quotesingle" unicode="'" horiz-adv-x="319" 
d="M55 1485h209l-41 -492h-127z" />
    <glyph glyph-name="parenleft" unicode="(" horiz-adv-x="501" 
d="M66 563q0 148 25.5 292t69 260.5t89.5 206.5t98 163h154q-110 -179 -177 -413.5t-67 -508.5q0 -272 67 -507.5t177 -413.5h-154q-51 73 -97.5 163t-90 206.5t-69 260t-25.5 291.5z" />
    <glyph glyph-name="parenright" unicode=")" horiz-adv-x="501" 
d="M436 563q0 -148 -25.5 -291.5t-69 -260t-90 -206.5t-97.5 -163h-154q110 178 177 413.5t67 507.5q0 274 -67 508.5t-177 413.5h154q52 -73 98 -163t89.5 -206.5t69 -260.5t25.5 -292z" />
    <glyph glyph-name="asterisk" unicode="*" horiz-adv-x="720" 
d="M420 1485v-244l231 88l47 -115l-235 -81l141 -199l-94 -72l-152 207l-139 -207l-108 70l143 201l-231 81l40 115l232 -88v244h125z" />
    <glyph glyph-name="plus" unicode="+" 
d="M788 0h-186v463h-463v176h463v451h186v-451h463v-176h-463v-463z" />
    <glyph glyph-name="comma" unicode="," horiz-adv-x="501" 
d="M133 0v236h236v-252l-125 -269h-119l108 285h-100z" />
    <glyph glyph-name="hyphen" unicode="-" horiz-adv-x="829" 
d="M739 473h-651v176h651v-176z" />
    <glyph glyph-name="period" unicode="." horiz-adv-x="501" 
d="M369 0h-236v236h236v-236z" />
    <glyph glyph-name="slash" unicode="/" horiz-adv-x="772" 
d="M186 0h-186l584 1485h188z" />
    <glyph glyph-name="zero" unicode="0" horiz-adv-x="1353" 
d="M1055 743q0 303 -100 458t-279 155t-279 -155t-100 -458q0 -304 100 -459t279 -155t279 155t100 459zM1253 743q0 -239 -61 -409t-191.5 -265.5t-324.5 -95.5q-146 0 -256.5 54t-181 155t-105.5 241.5t-35 319.5q0 238 61 407.5t192 265t325 95.5q146 0 256.5 -53.5
t180.5 -154.5t105 -241.5t35 -318.5z" />
    <glyph glyph-name="one" unicode="1" horiz-adv-x="753" 
d="M555 0h-186v1161h-344v127q172 6 258.5 44t144.5 153h127v-1485z" />
    <glyph glyph-name="two" unicode="2" horiz-adv-x="1208" 
d="M618 1511q211 0 341.5 -103t130.5 -286q0 -84 -27.5 -168t-82 -165t-121 -156.5t-160 -157t-181.5 -150.5t-203 -151h815v-174h-1069v168q211 156 353.5 274t256.5 236t168 221t54 199q0 117 -74.5 187.5t-204.5 70.5q-63 0 -117.5 -18t-100 -56t-73 -104.5t-28.5 -155.5
h-193q-3 221 138.5 355t377.5 134z" />
    <glyph glyph-name="three" unicode="3" horiz-adv-x="1202" 
d="M578 129q151 0 243 76t92 211q0 62 -22 111t-60 80.5t-93 52.5t-117 29.5t-136 8.5h-30v170h24q198 0 296.5 59t98.5 187q0 115 -81.5 178.5t-206.5 63.5q-145 0 -228.5 -79t-95.5 -210h-192q18 201 155 322.5t365 121.5q100 0 184.5 -21t152 -64t106 -117.5t38.5 -173.5
q0 -115 -63 -206t-179 -138q283 -90 283 -373q0 -109 -44 -195.5t-119 -140t-170.5 -81.5t-203.5 -28q-126 0 -225.5 37.5t-162 102.5t-97.5 147t-43 178h193q16 -142 101.5 -225.5t236.5 -83.5z" />
    <glyph glyph-name="four" unicode="4" horiz-adv-x="1277" 
d="M772 1229l-530 -686h530v686zM1233 543v-176h-272v-367h-189v367h-737v176l735 942h191v-942h272z" />
    <glyph glyph-name="five" unicode="5" horiz-adv-x="1243" 
d="M618 129q140 0 236 96.5t96 261.5q0 89 -29 158.5t-77.5 111t-106.5 62.5t-121 21q-106 0 -181.5 -50t-104.5 -114l-187 10l97 799h852v-174h-701l-51 -422q115 112 319 112q98 0 186 -34.5t155.5 -98t107 -162t39.5 -217.5q0 -123 -43.5 -223t-117.5 -163t-168.5 -96.5
t-199.5 -33.5q-125 0 -223 37t-160 102t-98 144.5t-47 173.5h193q47 -301 335 -301z" />
    <glyph glyph-name="six" unicode="6" horiz-adv-x="1259" 
d="M313 475q0 -155 88.5 -250.5t235.5 -95.5q143 0 234.5 97t91.5 249q0 153 -91 252.5t-233 99.5q-145 0 -235.5 -99t-90.5 -253zM655 1356q-168 0 -262 -155t-102 -419q55 94 153 150.5t238 56.5q208 0 343.5 -141t135.5 -363q0 -139 -63.5 -255t-184 -186.5t-274.5 -70.5
q-274 0 -407.5 183.5t-133.5 533.5q0 131 18.5 247t62 223t109 183.5t165.5 122t225 45.5q105 0 189.5 -31t138.5 -84t86.5 -117t44.5 -138h-203q-19 100 -92.5 157.5t-186.5 57.5z" />
    <glyph glyph-name="seven" unicode="7" horiz-adv-x="1050" 
d="M23 1311v174h1028v-174q-277 -224 -440 -561t-189 -750h-225q24 394 190.5 731.5t446.5 579.5h-811z" />
    <glyph glyph-name="eight" unicode="8" horiz-adv-x="1282" 
d="M641 1511q224 0 360 -106t136 -272q0 -64 -20 -125t-67.5 -120t-117.5 -97q69 -28 120 -71.5t78 -94.5t39.5 -102t12.5 -105q0 -138 -72 -240t-193.5 -153.5t-275.5 -51.5q-155 0 -277 51.5t-194 153.5t-72 240q0 54 12.5 105t40 102t78.5 94.5t121 71.5
q-70 38 -117.5 97t-67.5 120t-20 125q0 167 135 272.5t361 105.5zM641 713q-157 0 -250.5 -81.5t-93.5 -213.5q0 -131 93 -210t251 -79q156 0 250 79t94 210t-94 213t-250 82zM948 1110q0 110 -84.5 178t-222.5 68q-139 0 -224 -68t-85 -178q0 -114 85.5 -187t223.5 -73
q137 0 222 73t85 187z" />
    <glyph glyph-name="nine" unicode="9" horiz-adv-x="1249" 
d="M932 1010q0 155 -87.5 250.5t-234.5 95.5q-144 0 -234.5 -96.5t-90.5 -249.5t89.5 -252t233.5 -99q145 0 234.5 98.5t89.5 252.5zM590 129q168 0 263 154.5t103 418.5q-55 -94 -154 -150t-239 -56q-207 0 -342 141t-135 364q0 138 63.5 253.5t184 186t274.5 70.5
q541 0 541 -716q0 -131 -19 -247.5t-62.5 -223t-109 -183.5t-165.5 -122.5t-224 -45.5q-105 0 -189 31t-138 84.5t-86.5 117.5t-44.5 138h202q19 -101 91.5 -158t185.5 -57z" />
    <glyph glyph-name="colon" unicode=":" horiz-adv-x="501" 
d="M369 866h-236v236h236v-236zM369 0h-236v236h236v-236z" />
    <glyph glyph-name="semicolon" unicode=";" horiz-adv-x="501" 
d="M133 0v236h236v-252l-125 -269h-119l108 285h-100zM369 866h-236v236h236v-236z" />
    <glyph glyph-name="less" unicode="&#x3c;" 
d="M160 629l1050 465v-201l-817 -344l817 -338v-199l-1050 457v160z" />
    <glyph glyph-name="equal" unicode="=" 
d="M1208 680h-1026v178h1026v-178zM1208 266h-1026v176h1026v-176z" />
    <glyph glyph-name="greater" unicode="&#x3e;" 
d="M1231 629v-160l-1051 -457v199l817 338l-817 344v201z" />
    <glyph glyph-name="question" unicode="?" horiz-adv-x="1021" 
d="M528 1511q89 0 170 -22t147.5 -64.5t106 -113t39.5 -160.5q0 -243 -276 -422q-104 -67 -138 -109t-34 -122v-64h-191v70q0 64 14.5 112t50 90.5t77 75.5t112.5 78q91 58 141 124.5t50 158.5q0 96 -76.5 154.5t-196.5 58.5q-66 0 -119 -18t-87 -46t-57.5 -66.5t-34 -76.5
t-13.5 -78h-186q1 198 141 319t360 121zM569 0h-235v236h235v-236z" />
    <glyph glyph-name="at" unicode="@" horiz-adv-x="1738" 
d="M1257 313q-85 0 -145 50t-72 139q-95 -183 -311 -183q-130 0 -216.5 93t-86.5 274q0 90 29.5 175t82 152t133 107.5t175.5 40.5q83 0 145 -41.5t90 -113.5l17 120h145l-59 -446q-31 -219 86 -219q81 0 137.5 98.5t56.5 263.5q0 249 -155 383.5t-414 134.5
q-186 0 -332 -82.5t-225.5 -226.5t-79.5 -323q0 -167 66 -298.5t193.5 -207.5t297.5 -76q222 0 397 88l58 -141q-210 -101 -455 -101q-159 0 -294 56.5t-228.5 154.5t-146 235.5t-52.5 295.5q0 162 62 305t168.5 245t256 161t318.5 59q151 0 280 -40t229 -118t157 -205
t57 -291q0 -121 -31 -221t-82.5 -164t-116.5 -98.5t-135 -34.5zM848 1008q-110 0 -177 -95.5t-67 -228.5q0 -106 43.5 -160.5t126.5 -54.5q117 0 184.5 98t67.5 240q0 95 -46.5 148t-131.5 53z" />
    <glyph glyph-name="A" unicode="A" horiz-adv-x="1351" 
d="M0 0l551 1485h242l559 -1485h-226l-116 322h-682l-115 -322h-213zM666 1274l-275 -774h553z" />
    <glyph glyph-name="B" unicode="B" horiz-adv-x="1376" 
d="M176 0v1485h535q88 0 161 -9.5t141.5 -35t115.5 -65.5t75.5 -105.5t28.5 -151.5q0 -106 -44 -194.5t-120 -132.5q225 -94 225 -353q0 -115 -41 -201t-114.5 -137t-167.5 -75.5t-209 -24.5h-586zM385 684v-508h379q157 0 236 66.5t79 193.5q0 130 -79.5 189t-247.5 59
h-367zM385 1309v-459h358q279 0 279 240q0 110 -74.5 164.5t-204.5 54.5h-358z" />
    <glyph glyph-name="C" unicode="C" horiz-adv-x="1486" 
d="M1219 473h202q-48 -240 -221.5 -370t-421.5 -130q-209 0 -363 99t-232.5 272.5t-78.5 400.5q0 347 188.5 556.5t502.5 209.5q234 0 403 -132.5t215 -366.5h-203q-35 145 -145 234t-281 89q-204 0 -335.5 -155.5t-131.5 -434.5q0 -276 131.5 -435.5t342.5 -159.5
q171 0 281 87.5t147 235.5z" />
    <glyph glyph-name="D" unicode="D" horiz-adv-x="1495" 
d="M1178 743q0 105 -18 189.5t-47.5 143t-75.5 101.5t-95 68t-113.5 40t-122.5 19.5t-131 4.5h-190v-1133h190q63 0 114.5 4t109 13.5t102.5 28.5t90 47.5t77.5 72t58 99.5t38.5 132.5t13 169.5zM176 1485h406q146 0 265.5 -22.5t222.5 -76t172.5 -137.5t109 -212t39.5 -294
q0 -167 -39.5 -295t-109 -212t-172.5 -137.5t-222 -76t-266 -22.5h-406v1485z" />
    <glyph glyph-name="E" unicode="E" horiz-adv-x="1255" 
d="M176 0v1485h1008v-180h-799v-451h752v-180h-752v-494h799v-180h-1008z" />
    <glyph glyph-name="F" unicode="F" horiz-adv-x="1146" 
d="M176 0v1485h965v-180h-756v-451h713v-180h-713v-674h-209z" />
    <glyph glyph-name="G" unicode="G" horiz-adv-x="1576" 
d="M795 1511q233 0 401 -122.5t213 -335.5h-203q-39 131 -144.5 206.5t-277.5 75.5q-204 0 -335.5 -155.5t-131.5 -434.5q0 -277 129 -436t338 -159q64 0 122.5 10.5t117.5 38.5t102 70.5t70 111.5t27 158v39h-394v180h590v-758h-164l-10 186q-135 -213 -469 -213
q-210 0 -363 99t-231 272.5t-78 400.5q0 346 189 556t502 210z" />
    <glyph glyph-name="H" unicode="H" horiz-adv-x="1550" 
d="M1165 1485h209v-1485h-209v674h-780v-674h-209v1485h209v-631h780v631z" />
    <glyph glyph-name="I" unicode="I" horiz-adv-x="561" 
d="M385 1485v-1485h-209v1485h209z" />
    <glyph glyph-name="J" unicode="J" horiz-adv-x="1130" 
d="M745 473v1012h209v-1014q0 -241 -123 -369.5t-344 -128.5q-220 0 -342 124t-122 362h194q0 -149 77 -232.5t193 -83.5q50 0 92 14.5t81.5 49t62 102.5t22.5 164z" />
    <glyph glyph-name="K" unicode="K" horiz-adv-x="1363" 
d="M385 1485v-748l670 748h260l-555 -606l618 -879h-250l-510 725l-233 -258v-467h-209v1485h209z" />
    <glyph glyph-name="L" unicode="L" horiz-adv-x="1169" 
d="M385 1485v-1305h784v-180h-993v1485h209z" />
    <glyph glyph-name="M" unicode="M" horiz-adv-x="1810" 
d="M1016 0h-221l-410 1294v-1294h-209v1485h350l379 -1237l379 1237h350v-1485h-209v1294z" />
    <glyph glyph-name="N" unicode="N" horiz-adv-x="1546" 
d="M1370 0h-305l-680 1268v-1268h-209v1485h307l678 -1264v1264h209v-1485z" />
    <glyph glyph-name="O" unicode="O" horiz-adv-x="1601" 
d="M317 743q0 -278 137 -435.5t347 -157.5t346.5 157.5t136.5 435.5t-136.5 435t-346.5 157t-347 -157t-137 -435zM1497 743q0 -224 -84 -398t-243 -273t-369 -99t-369.5 99t-243.5 273t-84 398t84 397.5t243.5 272t369.5 98.5t369 -98.5t243 -272t84 -397.5z" />
    <glyph glyph-name="P" unicode="P" horiz-adv-x="1302" 
d="M176 1485h465q115 0 203.5 -11.5t169 -41.5t132 -79.5t81.5 -129t30 -187.5t-30 -188t-81.5 -129.5t-132 -79t-168.5 -40.5t-204 -11h-256v-588h-209v1485zM657 1309h-272v-539h272q75 0 125 4t104 19.5t85.5 43.5t52 78t20.5 121t-20.5 121.5t-52.5 79.5t-85 45.5
t-104.5 21.5t-124.5 5z" />
    <glyph glyph-name="Q" unicode="Q" horiz-adv-x="1601" 
d="M1497 743q0 -328 -176 -538l176 -176l-127 -127l-182 182q-163 -111 -387 -111q-210 0 -369.5 99t-243.5 273t-84 398t84 397.5t243.5 272t369.5 98.5t369 -98.5t243 -272t84 -397.5zM317 743q0 -278 137 -435.5t347 -157.5q138 0 250 71l-138 137l127 129l138 -139
q106 153 106 395q0 278 -136.5 435t-346.5 157t-347 -157t-137 -435z" />
    <glyph glyph-name="R" unicode="R" horiz-adv-x="1390" 
d="M1081 0l-321 627q-37 -2 -113 -2h-262v-625h-209v1485h471q96 0 172 -7t149 -24.5t125 -49t92.5 -78t60.5 -114.5t20 -155q0 -170 -75.5 -264.5t-219.5 -133.5l344 -659h-234zM664 1309h-279v-508h279q74 0 124.5 4t104.5 19t85.5 41.5t52 73.5t20.5 114t-20.5 114.5
t-52.5 74.5t-85 42.5t-104.5 20t-124.5 4.5z" />
    <glyph glyph-name="S" unicode="S" horiz-adv-x="1312" 
d="M115 1106q0 101 49.5 181.5t129.5 127.5t171.5 71.5t185.5 24.5q103 0 193 -23.5t166.5 -71t129.5 -127t74 -183.5h-202q-24 82 -85.5 135t-132 73.5t-151.5 20.5q-48 0 -98.5 -11t-101 -34.5t-83 -68t-32.5 -103.5q0 -172 241 -227l172 -39q56 -12 100 -24t98 -31.5
t94.5 -42t81.5 -56t67 -72.5t42.5 -92.5t16.5 -115.5q0 -85 -30.5 -157.5t-83.5 -125t-124.5 -89.5t-154.5 -55t-172 -18q-259 0 -419.5 131t-190.5 357h204q29 -153 134 -232t276 -79q161 0 253.5 69t92.5 180q0 109 -82 169t-237 94l-185 38q-64 14 -120.5 35.5t-110 55.5
t-92 77.5t-61.5 104.5t-23 133z" />
    <glyph glyph-name="T" unicode="T" horiz-adv-x="1175" 
d="M483 0v1305h-483v180h1176v-180h-484v-1305h-209z" />
    <glyph glyph-name="U" unicode="U" horiz-adv-x="1497" 
d="M154 1485h208v-903q0 -222 88.5 -325t294.5 -103q208 0 299 111.5t91 338.5v881h208v-864q0 -332 -140 -490t-458 -158q-157 0 -266.5 33.5t-183 108.5t-107.5 195t-34 294v881z" />
    <glyph glyph-name="V" unicode="V" horiz-adv-x="1306" 
d="M23 1485h229l412 -1270l403 1270h219l-504 -1485h-250z" />
    <glyph glyph-name="W" unicode="W" horiz-adv-x="1888" 
d="M1069 1485l293 -1247l274 1247h219l-370 -1485h-254l-287 1221l-280 -1221h-254l-377 1485h229l287 -1247l274 1247h246z" />
    <glyph glyph-name="X" unicode="X" horiz-adv-x="1343" 
d="M0 0l551 764l-514 721h248l391 -549l395 549h236l-514 -713l550 -772h-245l-430 600l-432 -600h-236z" />
    <glyph glyph-name="Y" unicode="Y" horiz-adv-x="1277" 
d="M0 1485h229l406 -725l414 725h229l-545 -910v-575h-209v580z" />
    <glyph glyph-name="Z" unicode="Z" horiz-adv-x="1296" 
d="M1204 1485v-180l-872 -1125h905v-180h-1153v180l874 1125h-806v180h1052z" />
    <glyph glyph-name="bracketleft" unicode="[" horiz-adv-x="647" 
d="M166 1485h461v-158h-281v-1528h281v-157h-461v1843z" />
    <glyph glyph-name="backslash" unicode="\" horiz-adv-x="772" 
d="M186 1485l586 -1485h-188l-584 1485h186z" />
    <glyph glyph-name="bracketright" unicode="]" horiz-adv-x="647" 
d="M20 1485h461v-1843h-461v157h281v1528h-281v158z" />
    <glyph glyph-name="asciicircum" unicode="^" horiz-adv-x="903" 
d="M526 1485l420 -793h-201l-299 559l-292 -559h-199l412 793h159z" />
    <glyph glyph-name="underscore" unicode="_" horiz-adv-x="937" 
d="M872 -178h-806v176h806v-176z" />
    <glyph glyph-name="grave" unicode="`" horiz-adv-x="514" 
d="M311 1247l-266 238h238l186 -238h-158z" />
    <glyph glyph-name="a" unicode="a" horiz-adv-x="1144" 
d="M844 494v36q-92 -10 -159 -19t-134 -22.5t-111 -30.5t-80 -40t-52.5 -54t-16.5 -69q0 -79 57 -126.5t156 -47.5q70 0 127.5 18t107 58t77.5 115.5t28 181.5zM463 -27q-161 0 -270 84.5t-109 229.5q0 65 23 117t70.5 90.5t108.5 67.5t149.5 51t180 36.5t213.5 28.5v31
q0 145 -68.5 204.5t-187.5 59.5q-125 0 -192.5 -57.5t-73.5 -161.5h-192q9 115 76 200.5t167 127.5t217 42q230 0 336 -107.5t105 -342.5l-2 -258q-3 -256 28 -416h-188q-11 78 -14 162q-112 -189 -377 -189z" />
    <glyph glyph-name="b" unicode="b" horiz-adv-x="1230" 
d="M326 547q0 -105 26.5 -186.5t72 -130t102 -73t120.5 -24.5q149 0 229 108.5t80 305.5t-80 305.5t-229 108.5q-64 0 -120.5 -24.5t-102 -73t-72 -130t-26.5 -186.5zM147 1485h187v-557q112 192 360 192q201 0 333 -154.5t132 -418.5q0 -134 -36 -243.5t-99 -181
t-147.5 -110.5t-182.5 -39q-248 0 -360 193v-166h-187v1485z" />
    <glyph glyph-name="c" unicode="c" horiz-adv-x="1128" 
d="M598 1120q98 0 181.5 -34t139 -90t90 -123.5t44.5 -139.5h-189q-21 101 -94.5 162t-183.5 61q-137 0 -224.5 -103.5t-87.5 -301.5q0 -201 88.5 -307.5t223.5 -106.5q115 0 189.5 63.5t96.5 157.5h193q-29 -162 -162 -273.5t-323 -111.5q-237 0 -372.5 159.5t-135.5 416.5
q0 165 61.5 293.5t182 203t282.5 74.5z" />
    <glyph glyph-name="d" unicode="d" horiz-adv-x="1230" 
d="M897 928v557h186v-1485h-186v166q-112 -193 -360 -193q-98 0 -182.5 39t-147.5 110.5t-99 181t-36 243.5q0 264 132 418.5t333 154.5q248 0 360 -192zM905 547q0 105 -26.5 186.5t-72 130t-102 73t-120.5 24.5q-149 0 -229.5 -108.5t-80.5 -305.5t80.5 -305.5
t229.5 -108.5q64 0 120.5 24.5t102 73t72 130t26.5 186.5z" />
    <glyph glyph-name="e" unicode="e" horiz-adv-x="1179" 
d="M606 -27q-129 0 -231.5 44t-168 122t-100 182.5t-34.5 227.5q0 258 148 414.5t380 156.5q166 0 287 -85.5t177.5 -228t43.5 -317.5h-834q0 -160 94.5 -256t233.5 -96q122 0 191.5 46.5t107.5 135.5h193q-41 -152 -167 -249t-321 -97zM600 961q-143 0 -230.5 -82.5
t-93.5 -229.5h635q-3 127 -86 219.5t-225 92.5z" />
    <glyph glyph-name="f" unicode="f" horiz-adv-x="641" 
d="M195 1102v80q0 91 11 145t44 91.5t90 52t152 14.5h96v-156h-92q-73 0 -94 -25t-21 -112v-90h207v-150h-207v-952h-186v952h-154v150h154z" />
    <glyph glyph-name="g" unicode="g" horiz-adv-x="1212" 
d="M879 928v174h186v-955q0 -158 -26 -243.5t-78 -143.5q-60 -69 -159 -107t-222 -38q-190 0 -308.5 86.5t-144.5 251.5h199q21 -83 78.5 -128.5t177.5 -45.5q149 0 225 82q36 38 54 89t18 154v105q-111 -191 -351 -191q-201 0 -327.5 146t-126.5 405q0 258 126.5 404.5
t327.5 146.5q239 0 351 -192zM887 569q0 197 -88.5 294.5t-223.5 97.5q-148 0 -223.5 -101t-75.5 -291q0 -191 75.5 -292t223.5 -101q64 0 119 22.5t99 68t69 123t25 179.5z" />
    <glyph glyph-name="h" unicode="h" horiz-adv-x="1183" 
d="M334 1485v-549q111 184 356 184q363 0 363 -424v-696h-187v641q0 57 -4.5 99t-19 85.5t-40.5 70.5t-70.5 44.5t-106.5 17.5q-137 0 -214 -92.5t-77 -267.5v-598h-187v1485h187z" />
    <glyph glyph-name="i" unicode="i" horiz-adv-x="481" 
d="M147 1102h187v-1102h-187v1102zM147 1485h187v-225h-187v225z" />
    <glyph glyph-name="j" unicode="j" horiz-adv-x="481" 
d="M147 -59v1161h187v-1157q0 -90 -10.5 -144.5t-40 -92t-79 -52t-130.5 -14.5h-94v155h53q71 0 92.5 28t21.5 116zM147 1485h187v-225h-187v225z" />
    <glyph glyph-name="k" unicode="k" horiz-adv-x="1034" 
d="M147 1485h187v-879l444 496h230l-390 -422l424 -680h-219l-329 543l-160 -174v-369h-187v1485z" />
    <glyph glyph-name="l" unicode="l" horiz-adv-x="481" 
d="M334 1485v-1485h-187v1485h187z" />
    <glyph glyph-name="m" unicode="m" horiz-adv-x="1841" 
d="M334 598v-598h-187v1102h187v-166q111 184 332 184q238 0 317 -194q126 194 371 194q184 0 270 -112.5t86 -311.5v-696h-186v641q0 56 -5 99t-20 85.5t-40 70.5t-68.5 45t-102.5 17q-123 0 -194.5 -93t-71.5 -267v-598h-186v641q0 56 -5 99t-20 85.5t-40 70.5t-68.5 45
t-102.5 17q-123 0 -194.5 -93t-71.5 -267z" />
    <glyph glyph-name="n" unicode="n" horiz-adv-x="1183" 
d="M334 1102v-166q111 184 356 184q363 0 363 -424v-696h-187v641q0 57 -4.5 99t-19 85.5t-40.5 70.5t-70.5 44.5t-106.5 17.5q-137 0 -214 -92.5t-77 -267.5v-598h-187v1102h187z" />
    <glyph glyph-name="o" unicode="o" horiz-adv-x="1196" 
d="M274 547q0 -106 25.5 -187t71 -128.5t102.5 -71t125 -23.5q141 0 232.5 104t91.5 306q0 106 -25.5 186.5t-71 128t-102.5 71t-125 23.5q-144 0 -234 -98.5t-90 -310.5zM76 547q0 144 44 257t118.5 180t166 101.5t193.5 34.5t193.5 -34.5t166 -101.5t118.5 -180t44 -257
t-44 -257t-118.5 -180.5t-166 -102t-193.5 -34.5t-193.5 34.5t-166 102t-118.5 180.5t-44 257z" />
    <glyph glyph-name="p" unicode="p" horiz-adv-x="1230" 
d="M147 1102h187v-174q112 192 360 192q201 0 333 -154.5t132 -418.5q0 -134 -36 -243.5t-99 -181t-147.5 -110.5t-182.5 -39q-248 0 -360 193v-524h-187v1460zM326 547q0 -105 26.5 -186.5t72 -130t102 -73t120.5 -24.5q149 0 229 108.5t80 305.5t-80 305.5t-229 108.5
q-64 0 -120.5 -24.5t-102 -73t-72 -130t-26.5 -186.5z" />
    <glyph glyph-name="q" unicode="q" horiz-adv-x="1230" 
d="M897 928v174h186v-1460h-186v524q-112 -193 -360 -193q-98 0 -182.5 39t-147.5 110.5t-99 181t-36 243.5q0 264 132 418.5t333 154.5q248 0 360 -192zM905 547q0 105 -26.5 186.5t-72 130t-102 73t-120.5 24.5q-149 0 -229.5 -108.5t-80.5 -305.5t80.5 -305.5
t229.5 -108.5q64 0 120.5 24.5t102 73t72 130t26.5 186.5z" />
    <glyph glyph-name="r" unicode="r" horiz-adv-x="727" 
d="M696 1106v-199q-78 8 -104 8q-132 0 -195 -79.5t-63 -257.5v-578h-187v1102h183v-193q41 93 122 144.5t189 54.5q35 0 55 -2z" />
    <glyph glyph-name="s" unicode="s" horiz-adv-x="1075" 
d="M981 780h-195q-41 183 -268 183q-62 0 -114 -13.5t-88.5 -46.5t-36.5 -80q0 -63 42.5 -96t133.5 -53l155 -31q86 -17 149.5 -39.5t120 -59.5t86 -94.5t29.5 -134.5q0 -159 -128 -250.5t-328 -91.5q-107 0 -197 32.5t-148.5 87t-93.5 122t-43 141.5h197q46 -225 289 -225
q115 0 189.5 44.5t74.5 119.5q0 77 -62 119t-170 63l-163 33q-67 14 -118 33.5t-100.5 53.5t-76.5 89.5t-27 128.5q0 142 127 224.5t322 82.5q183 0 299 -91.5t143 -250.5z" />
    <glyph glyph-name="t" unicode="t" horiz-adv-x="665" 
d="M201 1102v276h186v-276h209v-150h-209v-653q0 -90 19 -116.5t96 -26.5h94v-156h-135q-83 0 -130.5 10.5t-78 42t-41 83t-10.5 140.5v676h-174v150h174z" />
    <glyph glyph-name="u" unicode="u" horiz-adv-x="1163" 
d="M829 0v158q-112 -185 -346 -185q-352 0 -352 424v705h186v-649q0 -57 4.5 -99t19 -85.5t39 -71t67.5 -45t102 -17.5q133 0 206.5 93t73.5 268v606h187v-1102h-187z" />
    <glyph glyph-name="v" unicode="v" horiz-adv-x="997" 
d="M207 1102l299 -844l299 844h192l-415 -1102h-166l-416 1102h207z" />
    <glyph glyph-name="w" unicode="w" horiz-adv-x="1474" 
d="M422 287l219 815h193l219 -815l211 815h200l-317 -1102h-170l-244 887l-235 -887h-170l-318 1102h201z" />
    <glyph glyph-name="x" unicode="x" horiz-adv-x="1064" 
d="M1012 1102l-375 -527l412 -575h-224l-299 420l-297 -420h-213l406 567l-381 535h223l268 -379l271 379h209z" />
    <glyph glyph-name="y" unicode="y" horiz-adv-x="954" 
d="M760 1102h194l-393 -1149q-26 -78 -47.5 -125.5t-50.5 -87t-67.5 -59t-90.5 -29.5t-127 -10h-96v155h76q43 0 67 2t52.5 11.5t45.5 29t34 53t32 84.5l8 23l-397 1102h207l280 -850z" />
    <glyph glyph-name="z" unicode="z" horiz-adv-x="999" 
d="M68 0v162l637 778h-596v162h813v-162l-635 -778h647v-162h-866z" />
    <glyph glyph-name="braceleft" unicode="{" horiz-adv-x="593" 
d="M477 -358q-95 0 -152.5 14.5t-90.5 52t-44.5 91.5t-11.5 145v334q0 53 -5 87t-20.5 64.5t-47.5 44.5t-82 14v150q40 0 68.5 10t45 27t26 45.5t12.5 57.5t3 71v332q0 91 11.5 145t44.5 91.5t90.5 52t152.5 14.5h96v-158h-92q-72 0 -93 -27.5t-21 -115.5v-338
q0 -134 -42 -195t-130 -84v-6q88 -23 130 -83.5t42 -194.5v-340q0 -88 21 -116t93 -28h92v-157h-96z" />
    <glyph glyph-name="bar" unicode="|" horiz-adv-x="522" 
d="M176 1485h170v-1669h-170v1669z" />
    <glyph glyph-name="braceright" unicode="}" horiz-adv-x="593" 
d="M20 -358v157h93q72 0 93 28t21 116v340q0 134 42 194.5t130 83.5v6q-88 23 -130 84t-42 195v338q0 88 -21 115.5t-93 27.5h-93v158h97q95 0 152.5 -14.5t90.5 -52t44.5 -91.5t11.5 -145v-332q0 -42 3 -71t12.5 -57.5t26 -45.5t45 -27t68.5 -10v-150q-50 0 -82 -14
t-47.5 -44.5t-20.5 -64.5t-5 -87v-334q0 -91 -11.5 -145t-44.5 -91.5t-90.5 -52t-152.5 -14.5h-97z" />
    <glyph glyph-name="asciitilde" unicode="~" 
d="M926 586q57 0 96 37.5t45 103.5h174q-9 -136 -94 -219.5t-221 -83.5q-56 0 -123.5 21.5t-119 48t-113 48t-107.5 21.5q-59 0 -98 -36.5t-43 -102.5h-175q8 135 93 219t223 84q66 0 137 -22t121.5 -48.5t107.5 -48.5t97 -22z" />
    <glyph glyph-name="uni00A0" unicode="&#xa0;" horiz-adv-x="485" 
 />
    <glyph glyph-name="exclamdown" unicode="&#xa1;" horiz-adv-x="501" 
d="M350 68v-426h-198v426l41 600h116zM369 866h-236v236h236v-236z" />
    <glyph glyph-name="cent" unicode="&#xa2;" horiz-adv-x="1118" 
d="M530 1286h95v-166q92 -4 170.5 -39.5t130.5 -91t84.5 -121.5t42.5 -135h-189q-19 91 -82 151t-157 70v-815q99 10 163 71t84 148h193q-27 -151 -146.5 -259.5t-293.5 -123.5v-174h-95v174q-215 18 -336.5 174.5t-121.5 399.5q0 233 122 388.5t336 178.5v170zM274 551
q0 -180 70.5 -284.5t185.5 -125.5v809q-115 -20 -185.5 -121t-70.5 -278z" />
    <glyph glyph-name="sterling" unicode="&#xa3;" horiz-adv-x="1169" 
d="M610 1354q-51 0 -98.5 -11.5t-90.5 -36.5t-69 -71t-26 -107q0 -20 3 -41.5t6 -38t12 -42t13.5 -37.5t18 -41t17.5 -37t20.5 -41.5t19.5 -38.5h395v-133h-335q28 -86 28 -152q0 -76 -33 -142.5t-78.5 -109t-105.5 -77.5l2 -4q76 26 140 26q55 0 171 -40t193 -40
q112 0 246 56l55 -162q-46 -27 -127 -47.5t-158 -20.5t-211.5 41t-216.5 41q-68 0 -148.5 -21.5t-150.5 -60.5l-61 150q31 13 65 33t74.5 55t72.5 76t53.5 98.5t21.5 118.5q0 90 -37 182h-248v133h186q-34 67 -51 106t-34 101.5t-17 118.5q0 98 43 172.5t115 117t156 63.5
t177 21q233 0 366 -131t130 -348h-192q-3 171 -88 246.5t-224 75.5z" />
    <glyph glyph-name="currency" unicode="&#xa4;" horiz-adv-x="1302" 
d="M162 709q0 158 90 284l-141 144l100 100l139 -139q130 100 295 100q172 0 301 -104l146 143l100 -100l-148 -148q91 -132 91 -280q0 -153 -91 -281l148 -145l-100 -101l-146 144q-135 -101 -301 -101q-160 0 -293 99l-141 -142l-100 101l141 143q-90 126 -90 283z
M332 709q0 -140 88 -235t223 -95q143 0 235.5 95t92.5 235q0 144 -92.5 241t-235.5 97q-135 0 -223 -97t-88 -241z" />
    <glyph glyph-name="yen" unicode="&#xa5;" horiz-adv-x="1234" 
d="M1053 227h-351v-227h-188v227h-334v131h334v156h-334v131h283l-473 840h219l405 -768l414 768h217l-489 -840h297v-131h-351v-156h351v-131z" />
    <glyph glyph-name="brokenbar" unicode="&#xa6;" horiz-adv-x="464" 
d="M147 1485h170v-625h-170v625zM147 440h170v-624h-170v624z" />
    <glyph glyph-name="section" unicode="&#xa7;" horiz-adv-x="1187" 
d="M590 -223q100 0 160.5 38.5t60.5 110.5q0 64 -40.5 111.5t-156.5 109.5l-266 142q-272 146 -272 356q0 103 75 181.5t191 117.5q-166 108 -166 279q0 70 34 126.5t91 91t127.5 52.5t146.5 18q180 0 293.5 -88.5t137.5 -238.5h-195q-16 88 -81.5 130t-162.5 42
q-91 0 -145.5 -34t-54.5 -91q0 -55 36 -96.5t129 -90.5l281 -151q74 -39 123.5 -72.5t92.5 -76t64 -93.5t21 -112q0 -109 -69 -196t-185 -136q70 -53 105.5 -112.5t35.5 -139.5q0 -106 -57.5 -183t-150 -114t-207.5 -37q-193 0 -313.5 102t-133.5 279h193q32 -225 258 -225z
M717 741l-228 121q-92 -27 -160.5 -81t-68.5 -124q0 -62 37 -108.5t125 -93.5l280 -152l21 -12q205 90 205 215q0 68 -49.5 121t-161.5 114z" />
    <glyph glyph-name="dieresis" unicode="&#xa8;" horiz-adv-x="747" 
d="M45 1282v203h186v-203h-186zM514 1485h188v-203h-188v203z" />
    <glyph glyph-name="copyright" unicode="&#xa9;" horiz-adv-x="1689" 
d="M78 739q0 169 60.5 314t163.5 245t244.5 156.5t299.5 56.5t298.5 -56.5t243.5 -156.5t163.5 -245t60.5 -314q0 -222 -103 -398.5t-277.5 -272t-385.5 -95.5q-158 0 -299.5 56.5t-244.5 155.5t-163.5 243t-60.5 311zM229 739q0 -184 82 -328t222.5 -222t312.5 -78
q131 0 244.5 46t195 127t128 199t46.5 256q0 187 -80 332.5t-219.5 224t-314.5 78.5q-172 0 -312.5 -78.5t-222.5 -224.5t-82 -332zM844 465q74 0 129.5 36t77.5 117l155 -40q-37 -107 -128.5 -175.5t-233.5 -68.5q-184 0 -284.5 113t-100.5 313q0 196 104.5 308t286.5 112
q140 0 229.5 -71.5t120.5 -188.5l-153 -43q-20 84 -74.5 129t-128.5 45q-98 0 -157.5 -73.5t-59.5 -217.5t59.5 -219.5t157.5 -75.5z" />
    <glyph glyph-name="ordfeminine" unicode="&#xaa;" horiz-adv-x="706" 
d="M494 983q-27 -51 -85.5 -75.5t-121.5 -24.5q-106 0 -167 49.5t-61 130.5q0 59 32.5 101t94 65.5t128.5 35.5t159 19v27q0 119 -131 119q-48 0 -82 -27.5t-37 -79.5h-145q6 95 80.5 155t195.5 60q123 0 196.5 -60.5t72.5 -203.5q-5 -118 -5 -182q4 -131 13 -195h-135
q-2 37 -2 86zM307 995q86 0 126 43.5t40 114.5v25q-150 -15 -204 -37.5t-54 -71.5q0 -34 27 -54t65 -20z" />
    <glyph glyph-name="guillemotleft" unicode="&#xab;" horiz-adv-x="1052" 
d="M346 90l-326 469l326 467h201l-307 -467l307 -469h-201zM807 90l-326 469l326 467h201l-308 -467l308 -469h-201z" />
    <glyph glyph-name="logicalnot" unicode="&#xac;" 
d="M999 705h-880v176h1069v-680h-189v504z" />
    <glyph glyph-name="uni00AD" unicode="&#xad;" horiz-adv-x="829" 
d="M739 473h-651v176h651v-176z" />
    <glyph glyph-name="registered" unicode="&#xae;" horiz-adv-x="1689" 
d="M78 739q0 169 60.5 314t163.5 245t244.5 156.5t299.5 56.5t298.5 -56.5t243.5 -156.5t163.5 -245t60.5 -314q0 -222 -103 -398.5t-277.5 -272t-385.5 -95.5q-158 0 -299.5 56.5t-244.5 155.5t-163.5 243t-60.5 311zM229 739q0 -184 82 -328t222.5 -222t312.5 -78
q131 0 244.5 46t195 127t128 199t46.5 256q0 187 -80 332.5t-219.5 224t-314.5 78.5q-172 0 -312.5 -78.5t-222.5 -224.5t-82 -332zM1036 360l-166 312h-36h-119v-312h-168v818h250q98 0 163.5 -10t118.5 -37t78 -78t25 -129q0 -70 -37 -127t-111 -90l189 -347h-187z
M1014 922q0 69 -49 95.5t-142 26.5h-108v-243h119q94 0 137 30t43 91z" />
    <glyph glyph-name="macron" unicode="&#xaf;" horiz-adv-x="704" 
d="M659 1300h-614v154h614v-154z" />
    <glyph glyph-name="degree" unicode="&#xb0;" horiz-adv-x="690" 
d="M45 1210q0 126 87.5 213.5t211.5 87.5q126 0 214.5 -87.5t88.5 -213.5q0 -125 -88.5 -213t-214.5 -88q-123 0 -211 88.5t-88 212.5zM195 1210q0 -67 42 -114t107 -47q67 0 111.5 47t44.5 114q0 68 -44.5 115t-111.5 47q-65 0 -107 -46.5t-42 -115.5z" />
    <glyph glyph-name="plusminus" unicode="&#xb1;" 
d="M600 772v318h188v-318h441v-176h-441v-320h-188v320h-440v176h440zM1229 0h-1069v176h1069v-176z" />
    <glyph glyph-name="twosuperior" unicode="&#xb2;" horiz-adv-x="712" 
d="M362 1747q121 0 199 -59t78 -162q0 -119 -104 -240t-310 -260h432v-129h-612v121q93 74 151.5 123t119 105.5t93 98.5t53.5 86.5t21 84.5q0 57 -34.5 88.5t-92.5 31.5q-63 0 -104.5 -42.5t-40.5 -131.5h-150q-2 128 80.5 206.5t220.5 78.5z" />
    <glyph glyph-name="threesuperior" unicode="&#xb3;" horiz-adv-x="739" 
d="M365 995q71 0 116 37.5t45 100.5q0 139 -194 139h-49v121h41q184 0 184 125q0 58 -40 88t-99 30q-72 0 -113.5 -41t-52.5 -116h-144q9 124 94 196t226 72q53 0 101.5 -13t89.5 -39t65 -70t24 -101q0 -60 -32 -109t-84 -76q66 -27 101.5 -82t35.5 -120q0 -123 -91 -188.5
t-227 -65.5q-139 0 -222 79t-91 199h144q12 -72 54.5 -119t117.5 -47z" />
    <glyph glyph-name="acute" unicode="&#xb4;" horiz-adv-x="514" 
d="M469 1485l-268 -238h-156l184 238h240z" />
    <glyph glyph-name="mu" unicode="&#xb5;" horiz-adv-x="1175" 
d="M121 -358q22 98 22 323v1137h187v-647q0 -175 56.5 -246.5t180.5 -71.5q129 0 201 91.5t72 260.5v613h186v-1102h-186v152q-47 -79 -117 -129t-148 -50q-157 0 -245 123v-114q0 -229 -25 -340h-184z" />
    <glyph glyph-name="mu" unicode="&#x3bc;" horiz-adv-x="1175" 
d="M121 -358q22 98 22 323v1137h187v-647q0 -175 56.5 -246.5t180.5 -71.5q129 0 201 91.5t72 260.5v613h186v-1102h-186v152q-47 -79 -117 -129t-148 -50q-157 0 -245 123v-114q0 -229 -25 -340h-184z" />
    <glyph glyph-name="paragraph" unicode="&#xb6;" horiz-adv-x="1067" 
d="M0 1100q0 182 125.5 283.5t368.5 101.5h426v-1667h-156v1523h-248v-1523h-156v919q-70 8 -132.5 33.5t-114.5 68.5t-82.5 110.5t-30.5 150.5z" />
    <glyph glyph-name="periodcentered" unicode="&#xb7;" horiz-adv-x="501" 
d="M369 434h-236v236h236v-236z" />
    <glyph glyph-name="cedilla" unicode="&#xb8;" horiz-adv-x="501" 
d="M45 -360l33 81q61 -28 119 -28q51 0 88 15.5t37 49.5q0 29 -26 45.5t-65 16.5q-50 0 -77 -19l-62 35l105 170h108l-65 -104q30 6 61 6q73 0 114.5 -37.5t41.5 -101.5q0 -77 -68 -122.5t-153 -45.5q-111 0 -191 39z" />
    <glyph glyph-name="onesuperior" unicode="&#xb9;" horiz-adv-x="475" 
d="M360 897h-151v631h-182v102q99 2 145.5 20.5t75.5 82.5h112v-836z" />
    <glyph glyph-name="ordmasculine" unicode="&#xba;" horiz-adv-x="727" 
d="M365 1001q71 0 112 52.5t41 152.5q0 99 -41.5 153t-111.5 54q-68 0 -110 -55t-42 -152q0 -98 42 -151.5t110 -53.5zM365 883q-82 0 -149.5 33t-112 108t-44.5 182q0 158 89 242t217 84q129 0 217 -84t88 -242t-87.5 -240.5t-217.5 -82.5z" />
    <glyph glyph-name="guillemotright" unicode="&#xbb;" horiz-adv-x="1052" 
d="M571 559l-325 -469h-201l309 469l-309 467h201zM1032 559l-325 -469h-201l309 469l-309 467h201z" />
    <glyph glyph-name="onequarter" unicode="&#xbc;" horiz-adv-x="1658" 
d="M360 649h-151v631h-182v102q99 2 145.5 20.5t75.5 82.5h112v-836zM272 0h-206l1024 1485h206zM1331 643l-250 -326h250v326zM1626 317v-124h-143v-193h-152v193h-411v118l413 525h150v-519h143z" />
    <glyph glyph-name="onehalf" unicode="&#xbd;" horiz-adv-x="1597" 
d="M360 649h-151v631h-182v102q99 2 145.5 20.5t75.5 82.5h112v-836zM272 0h-206l1024 1485h206zM1249 850q121 0 199 -59t78 -162q0 -119 -104 -240t-310 -260h432v-129h-612v121q118 94 186 152t132.5 124t92 118.5t27.5 102.5q0 58 -34.5 89.5t-92.5 31.5
q-63 0 -104.5 -42.5t-40.5 -131.5h-150q-2 128 80.5 206.5t220.5 78.5z" />
    <glyph glyph-name="threequarters" unicode="&#xbe;" horiz-adv-x="1923" 
d="M365 748q71 0 116 37t45 100q0 139 -194 139h-49v121h41q184 0 184 125q0 58 -40 88.5t-99 30.5q-143 0 -166 -158h-144q9 124 94 196t226 72q53 0 101.5 -13t89.5 -39t65 -70t24 -101q0 -60 -31.5 -108.5t-84.5 -75.5q65 -27 101 -82.5t36 -120.5q0 -123 -91 -188.5
t-227 -65.5q-139 0 -222 79t-91 199h144q11 -72 54 -118.5t118 -46.5zM537 0h-207l1024 1485h207zM1595 643l-249 -326h249v326zM1890 317v-124h-143v-193h-152v193h-411v118l413 525h150v-519h143z" />
    <glyph glyph-name="questiondown" unicode="&#xbf;" horiz-adv-x="1021" 
d="M487 -387q-89 0 -169.5 21.5t-146.5 64t-105 113.5t-39 161q0 56 17 108.5t40 89.5t64 79.5t69.5 65.5t77.5 61q11 8 43 31t43 32t32.5 30.5t30 37.5t16 41.5t7.5 54.5v64h190v-70q0 -40 -6.5 -73.5t-23 -63t-30.5 -50t-43 -45.5t-45 -38t-52.5 -38t-50.5 -36
q-37 -28 -55.5 -43t-47.5 -44t-43 -53t-25.5 -59.5t-11.5 -74.5q0 -94 76 -148.5t199 -54.5q64 0 116 18t84.5 46t55 65.5t32 73.5t11.5 73h186q-1 -130 -66 -230.5t-177 -155t-253 -54.5zM676 866h-236v236h236v-236z" />
    <glyph glyph-name="Agrave" unicode="&#xc0;" horiz-adv-x="1351" 
d="M0 0l551 1485h242l559 -1485h-226l-116 322h-682l-115 -322h-213zM666 1274l-275 -774h553zM584 1583l-303 232h264l225 -232h-186z" />
    <glyph glyph-name="Aacute" unicode="&#xc1;" horiz-adv-x="1351" 
d="M0 0l551 1485h242l559 -1485h-226l-116 322h-682l-115 -322h-213zM666 1274l-275 -774h553zM1073 1815l-305 -232h-184l225 232h264z" />
    <glyph glyph-name="Acircumflex" unicode="&#xc2;" horiz-adv-x="1351" 
d="M0 0l551 1485h242l559 -1485h-226l-116 322h-682l-115 -322h-213zM666 1274l-275 -774h553zM764 1815l270 -232h-219l-139 115l-139 -115h-220l277 232h170z" />
    <glyph glyph-name="Atilde" unicode="&#xc3;" horiz-adv-x="1351" 
d="M0 0l551 1485h242l559 -1485h-226l-116 322h-682l-115 -322h-213zM666 1274l-275 -774h553zM811 1720q39 0 64.5 23.5t31.5 68.5h146q-20 -120 -84.5 -175.5t-153.5 -55.5q-52 0 -103.5 24t-95.5 48t-79 24q-40 0 -64 -23.5t-29 -66.5h-145q20 115 82.5 172.5t153.5 57.5
q42 0 82.5 -15t67 -33.5t61 -33.5t65.5 -15z" />
    <glyph glyph-name="Adieresis" unicode="&#xc4;" horiz-adv-x="1351" 
d="M0 0l551 1485h242l559 -1485h-226l-116 322h-682l-115 -322h-213zM666 1274l-275 -774h553zM348 1800h187v-203h-187v203zM817 1800h189v-203h-189v203z" />
    <glyph glyph-name="Aring" unicode="&#xc5;" horiz-adv-x="1351" 
d="M0 0l551 1485h242l559 -1485h-226l-116 322h-682l-115 -322h-213zM666 1274l-275 -774h553zM676 1915q78 0 132 -49.5t54 -124.5t-53.5 -124.5t-132.5 -49.5q-77 0 -130.5 50t-53.5 124q0 75 54 124.5t130 49.5zM676 1829q-35 0 -61.5 -25.5t-26.5 -62.5t26.5 -61.5
t61.5 -24.5q36 0 62 24.5t26 61.5q0 38 -26 63t-62 25z" />
    <glyph glyph-name="AE" unicode="&#xc6;" horiz-adv-x="2150" 
d="M1081 1485h1008v-180h-797v-451h750v-180h-750v-494h797v-180h-1008v317h-624l-228 -317h-229zM1081 1186l-493 -686h493v686z" />
    <glyph glyph-name="Ccedilla" unicode="&#xc7;" horiz-adv-x="1486" 
d="M557 -360l33 81q61 -28 119 -28q51 0 88 15.5t37 49.5q0 29 -26 45.5t-65 16.5q-50 0 -77 -19l-62 35l86 141q-184 20 -317 123t-201 268.5t-68 376.5q0 347 188.5 556.5t502.5 209.5q234 0 403 -132.5t215 -366.5h-203q-35 145 -145 234t-281 89q-204 0 -335.5 -155.5
t-131.5 -434.5q0 -276 131.5 -435.5t342.5 -159.5q171 0 281 87.5t147 235.5h202q-48 -236 -216.5 -365.5t-407.5 -134.5l-45 -71q30 6 61 6q73 0 114.5 -37.5t41.5 -101.5q0 -77 -68 -122.5t-153 -45.5q-111 0 -191 39z" />
    <glyph glyph-name="Egrave" unicode="&#xc8;" horiz-adv-x="1255" 
d="M176 0v1485h1008v-180h-799v-451h752v-180h-752v-494h799v-180h-1008zM629 1583l-303 232h264l225 -232h-186z" />
    <glyph glyph-name="Eacute" unicode="&#xc9;" horiz-adv-x="1255" 
d="M176 0v1485h1008v-180h-799v-451h752v-180h-752v-494h799v-180h-1008zM1077 1815l-305 -232h-184l225 232h264z" />
    <glyph glyph-name="Ecircumflex" unicode="&#xca;" horiz-adv-x="1255" 
d="M176 0v1485h1008v-180h-799v-451h752v-180h-752v-494h799v-180h-1008zM782 1815l271 -232h-219l-140 115l-139 -115h-219l276 232h170z" />
    <glyph glyph-name="Edieresis" unicode="&#xcb;" horiz-adv-x="1255" 
d="M176 0v1485h1008v-180h-799v-451h752v-180h-752v-494h799v-180h-1008zM352 1800h187v-203h-187v203zM821 1800h189v-203h-189v203z" />
    <glyph glyph-name="Igrave" unicode="&#xcc;" horiz-adv-x="561" 
d="M385 1485v-1485h-209v1485h209zM188 1583l-303 232h265l225 -232h-187z" />
    <glyph glyph-name="Iacute" unicode="&#xcd;" horiz-adv-x="561" 
d="M385 1485v-1485h-209v1485h209zM678 1815l-305 -232h-185l226 232h264z" />
    <glyph glyph-name="Icircumflex" unicode="&#xce;" horiz-adv-x="561" 
d="M385 1485v-1485h-209v1485h209zM369 1815l270 -232h-219l-139 115l-140 -115h-219l277 232h170z" />
    <glyph glyph-name="Idieresis" unicode="&#xcf;" horiz-adv-x="561" 
d="M385 1485v-1485h-209v1485h209zM-47 1800h186v-203h-186v203zM422 1800h188v-203h-188v203z" />
    <glyph glyph-name="Eth" unicode="&#xd0;" horiz-adv-x="1492" 
d="M176 1485h406q146 0 265.5 -22.5t222.5 -76t172.5 -137.5t109 -212t39.5 -294q0 -167 -39.5 -295t-109 -212t-172.5 -137.5t-222 -76t-266 -22.5h-406v662h-131v184h131v639zM1178 743q0 105 -18 189.5t-47.5 143t-75.5 101.5t-95 68t-113.5 40t-122.5 19.5t-131 4.5
h-190v-463h326v-184h-326v-486h190q63 0 114.5 4t109 13.5t102.5 28.5t90 47.5t77.5 72t58 99.5t38.5 132.5t13 169.5z" />
    <glyph glyph-name="Ntilde" unicode="&#xd1;" horiz-adv-x="1546" 
d="M1370 0h-305l-680 1268v-1268h-209v1485h307l678 -1264v1264h209v-1485zM948 1720q39 0 64.5 23.5t31.5 68.5h146q-20 -120 -84.5 -175.5t-153.5 -55.5q-52 0 -103.5 24t-95.5 48t-79 24q-40 0 -63.5 -23.5t-28.5 -66.5h-146q20 115 82.5 172.5t153.5 57.5q42 0 82.5 -15
t67 -33.5t61 -33.5t65.5 -15z" />
    <glyph glyph-name="Ograve" unicode="&#xd2;" horiz-adv-x="1601" 
d="M317 743q0 -278 137 -435.5t347 -157.5t346.5 157.5t136.5 435.5t-136.5 435t-346.5 157t-347 -157t-137 -435zM1497 743q0 -224 -84 -398t-243 -273t-369 -99t-369.5 99t-243.5 273t-84 398t84 397.5t243.5 272t369.5 98.5t369 -98.5t243 -272t84 -397.5zM709 1583
l-303 232h264l225 -232h-186z" />
    <glyph glyph-name="Oacute" unicode="&#xd3;" horiz-adv-x="1601" 
d="M317 743q0 -278 137 -435.5t347 -157.5t346.5 157.5t136.5 435.5t-136.5 435t-346.5 157t-347 -157t-137 -435zM1497 743q0 -224 -84 -398t-243 -273t-369 -99t-369.5 99t-243.5 273t-84 398t84 397.5t243.5 272t369.5 98.5t369 -98.5t243 -272t84 -397.5zM1198 1815
l-305 -232h-184l225 232h264z" />
    <glyph glyph-name="Ocircumflex" unicode="&#xd4;" horiz-adv-x="1601" 
d="M317 743q0 -278 137 -435.5t347 -157.5t346.5 157.5t136.5 435.5t-136.5 435t-346.5 157t-347 -157t-137 -435zM1497 743q0 -224 -84 -398t-243 -273t-369 -99t-369.5 99t-243.5 273t-84 398t84 397.5t243.5 272t369.5 98.5t369 -98.5t243 -272t84 -397.5zM889 1815
l270 -232h-219l-139 115l-139 -115h-220l277 232h170z" />
    <glyph glyph-name="Otilde" unicode="&#xd5;" horiz-adv-x="1601" 
d="M317 743q0 -278 137 -435.5t347 -157.5t346.5 157.5t136.5 435.5t-136.5 435t-346.5 157t-347 -157t-137 -435zM1497 743q0 -224 -84 -398t-243 -273t-369 -99t-369.5 99t-243.5 273t-84 398t84 397.5t243.5 272t369.5 98.5t369 -98.5t243 -272t84 -397.5zM936 1720
q39 0 64.5 23.5t31.5 68.5h146q-20 -120 -84.5 -175.5t-153.5 -55.5q-52 0 -103.5 24t-95.5 48t-79 24q-40 0 -64 -23.5t-29 -66.5h-145q20 115 82 172.5t153 57.5q42 0 82.5 -15t67.5 -33.5t61.5 -33.5t65.5 -15z" />
    <glyph glyph-name="Odieresis" unicode="&#xd6;" horiz-adv-x="1601" 
d="M317 743q0 -278 137 -435.5t347 -157.5t346.5 157.5t136.5 435.5t-136.5 435t-346.5 157t-347 -157t-137 -435zM1497 743q0 -224 -84 -398t-243 -273t-369 -99t-369.5 99t-243.5 273t-84 398t84 397.5t243.5 272t369.5 98.5t369 -98.5t243 -272t84 -397.5zM473 1800h186
v-203h-186v203zM942 1800h188v-203h-188v203z" />
    <glyph glyph-name="multiply" unicode="&#xd7;" 
d="M1176 195l-132 -134l-356 355l-342 -340l-133 131l344 342l-344 346l133 131l342 -342l344 340l133 -131l-344 -344z" />
    <glyph glyph-name="Oslash" unicode="&#xd8;" horiz-adv-x="1599" 
d="M1497 743q0 -224 -84 -398t-243 -273t-369 -99q-271 0 -451 160l-137 -162l-82 74l141 166q-168 208 -168 532q0 224 84 397.5t243.5 272t369.5 98.5q264 0 448 -157l119 141l82 -72l-125 -147q172 -206 172 -533zM1284 743q0 225 -94 375l-713 -837q128 -131 324 -131
q210 0 346.5 157.5t136.5 435.5zM317 743q0 -222 91 -372l714 835q-132 129 -321 129q-210 0 -347 -157t-137 -435z" />
    <glyph glyph-name="Ugrave" unicode="&#xd9;" horiz-adv-x="1497" 
d="M154 1485h208v-903q0 -222 88.5 -325t294.5 -103q208 0 299 111.5t91 338.5v881h208v-864q0 -332 -140 -490t-458 -158q-157 0 -266.5 33.5t-183 108.5t-107.5 195t-34 294v881zM655 1583l-303 232h264l226 -232h-187z" />
    <glyph glyph-name="Uacute" unicode="&#xda;" horiz-adv-x="1497" 
d="M154 1485h208v-903q0 -222 88.5 -325t294.5 -103q208 0 299 111.5t91 338.5v881h208v-864q0 -332 -140 -490t-458 -158q-157 0 -266.5 33.5t-183 108.5t-107.5 195t-34 294v881zM1124 1815l-305 -232h-184l225 232h264z" />
    <glyph glyph-name="Ucircumflex" unicode="&#xdb;" horiz-adv-x="1497" 
d="M154 1485h208v-903q0 -222 88.5 -325t294.5 -103q208 0 299 111.5t91 338.5v881h208v-864q0 -332 -140 -490t-458 -158q-157 0 -266.5 33.5t-183 108.5t-107.5 195t-34 294v881zM836 1815l270 -232h-219l-139 115l-140 -115h-219l277 232h170z" />
    <glyph glyph-name="Udieresis" unicode="&#xdc;" horiz-adv-x="1497" 
d="M154 1485h208v-903q0 -222 88.5 -325t294.5 -103q208 0 299 111.5t91 338.5v881h208v-864q0 -332 -140 -490t-458 -158q-157 0 -266.5 33.5t-183 108.5t-107.5 195t-34 294v881zM420 1800h186v-203h-186v203zM889 1800h188v-203h-188v203z" />
    <glyph glyph-name="Yacute" unicode="&#xdd;" horiz-adv-x="1277" 
d="M0 1485h229l406 -725l414 725h229l-545 -910v-575h-209v580zM995 1815l-305 -232h-184l225 232h264z" />
    <glyph glyph-name="Thorn" unicode="&#xde;" horiz-adv-x="1269" 
d="M385 1227h223q114 0 203 -12.5t169 -44t132 -82.5t82.5 -132.5t30.5 -189.5t-30.5 -188.5t-82.5 -131.5t-132 -82.5t-169 -44t-203 -12.5h-223v-307h-209v1485h209v-258zM623 1042h-238v-550h238q73 0 125.5 5t105.5 22t85 46t52.5 79.5t20.5 121.5t-20.5 122t-52.5 80.5
t-85 46.5t-105.5 22t-125.5 5z" />
    <glyph glyph-name="germandbls" unicode="&#xdf;" horiz-adv-x="1296" 
d="M334 0h-187v1006q0 249 113 362q130 141 412 141q202 0 332.5 -96t130.5 -256q0 -229 -224 -321q310 -80 310 -398q0 -101 -30.5 -181t-81.5 -132.5t-122 -87t-148.5 -49.5t-164.5 -15q-108 0 -223 23l41 176q95 -31 190 -31q68 0 126 15t107 47.5t77 92t28 140.5
q0 297 -416 297h-6v170h4q164 0 254 61t90 171q0 99 -76.5 160t-199.5 61q-199 0 -273 -101q-63 -76 -63 -249v-1006z" />
    <glyph glyph-name="agrave" unicode="&#xe0;" horiz-adv-x="1144" 
d="M844 494v36q-92 -10 -159 -19t-134 -22.5t-111 -30.5t-80 -40t-52.5 -54t-16.5 -69q0 -79 57 -126.5t156 -47.5q70 0 127.5 18t107 58t77.5 115.5t28 181.5zM463 -27q-161 0 -270 84.5t-109 229.5q0 65 23 117t70.5 90.5t108.5 67.5t149.5 51t180 36.5t213.5 28.5v31
q0 145 -68.5 204.5t-187.5 59.5q-125 0 -192.5 -57.5t-73.5 -161.5h-192q9 115 76 200.5t167 127.5t217 42q230 0 336 -107.5t105 -342.5l-2 -258q-3 -256 28 -416h-188q-11 78 -14 162q-112 -189 -377 -189zM504 1247l-266 238h237l187 -238h-158z" />
    <glyph glyph-name="aacute" unicode="&#xe1;" horiz-adv-x="1144" 
d="M844 494v36q-92 -10 -159 -19t-134 -22.5t-111 -30.5t-80 -40t-52.5 -54t-16.5 -69q0 -79 57 -126.5t156 -47.5q70 0 127.5 18t107 58t77.5 115.5t28 181.5zM463 -27q-161 0 -270 84.5t-109 229.5q0 65 23 117t70.5 90.5t108.5 67.5t149.5 51t180 36.5t213.5 28.5v31
q0 145 -68.5 204.5t-187.5 59.5q-125 0 -192.5 -57.5t-73.5 -161.5h-192q9 115 76 200.5t167 127.5t217 42q230 0 336 -107.5t105 -342.5l-2 -258q-3 -256 28 -416h-188q-11 78 -14 162q-112 -189 -377 -189zM907 1485l-268 -238h-156l185 238h239z" />
    <glyph glyph-name="acircumflex" unicode="&#xe2;" horiz-adv-x="1144" 
d="M844 494v36q-92 -10 -159 -19t-134 -22.5t-111 -30.5t-80 -40t-52.5 -54t-16.5 -69q0 -79 57 -126.5t156 -47.5q70 0 127.5 18t107 58t77.5 115.5t28 181.5zM463 -27q-161 0 -270 84.5t-109 229.5q0 65 23 117t70.5 90.5t108.5 67.5t149.5 51t180 36.5t213.5 28.5v31
q0 145 -68.5 204.5t-187.5 59.5q-125 0 -192.5 -57.5t-73.5 -161.5h-192q9 115 76 200.5t167 127.5t217 42q230 0 336 -107.5t105 -342.5l-2 -258q-3 -256 28 -416h-188q-11 78 -14 162q-112 -189 -377 -189zM676 1485l264 -238h-197l-161 111l-162 -111h-197l271 238h182z
" />
    <glyph glyph-name="atilde" unicode="&#xe3;" horiz-adv-x="1144" 
d="M844 494v36q-92 -10 -159 -19t-134 -22.5t-111 -30.5t-80 -40t-52.5 -54t-16.5 -69q0 -79 57 -126.5t156 -47.5q70 0 127.5 18t107 58t77.5 115.5t28 181.5zM463 -27q-161 0 -270 84.5t-109 229.5q0 65 23 117t70.5 90.5t108.5 67.5t149.5 51t180 36.5t213.5 28.5v31
q0 145 -68.5 204.5t-187.5 59.5q-125 0 -192.5 -57.5t-73.5 -161.5h-192q9 115 76 200.5t167 127.5t217 42q230 0 336 -107.5t105 -342.5l-2 -258q-3 -256 28 -416h-188q-11 78 -14 162q-112 -189 -377 -189zM696 1393q39 0 65 23.5t32 68.5h145q-21 -119 -85.5 -175.5
t-152.5 -56.5q-41 0 -83 15.5t-70 34t-62.5 34t-62.5 15.5q-40 0 -63.5 -23.5t-28.5 -66.5h-146q20 115 82.5 172t153.5 57q53 0 102 -24.5t92.5 -49t81.5 -24.5z" />
    <glyph glyph-name="adieresis" unicode="&#xe4;" horiz-adv-x="1144" 
d="M844 494v36q-92 -10 -159 -19t-134 -22.5t-111 -30.5t-80 -40t-52.5 -54t-16.5 -69q0 -79 57 -126.5t156 -47.5q70 0 127.5 18t107 58t77.5 115.5t28 181.5zM463 -27q-161 0 -270 84.5t-109 229.5q0 65 23 117t70.5 90.5t108.5 67.5t149.5 51t180 36.5t213.5 28.5v31
q0 145 -68.5 204.5t-187.5 59.5q-125 0 -192.5 -57.5t-73.5 -161.5h-192q9 115 76 200.5t167 127.5t217 42q230 0 336 -107.5t105 -342.5l-2 -258q-3 -256 28 -416h-188q-11 78 -14 162q-112 -189 -377 -189zM233 1282v203h187v-203h-187zM702 1485h189v-203h-189v203z" />
    <glyph glyph-name="aring" unicode="&#xe5;" horiz-adv-x="1144" 
d="M844 494v36q-92 -10 -159 -19t-134 -22.5t-111 -30.5t-80 -40t-52.5 -54t-16.5 -69q0 -79 57 -126.5t156 -47.5q70 0 127.5 18t107 58t77.5 115.5t28 181.5zM463 -27q-161 0 -270 84.5t-109 229.5q0 65 23 117t70.5 90.5t108.5 67.5t149.5 51t180 36.5t213.5 28.5v31
q0 145 -68.5 204.5t-187.5 59.5q-125 0 -192.5 -57.5t-73.5 -161.5h-192q9 115 76 200.5t167 127.5t217 42q230 0 336 -107.5t105 -342.5l-2 -258q-3 -256 28 -416h-188q-11 78 -14 162q-112 -189 -377 -189zM582 1577q78 0 132 -49.5t54 -124.5t-53.5 -124.5t-132.5 -49.5
q-77 0 -131 50t-54 124q0 75 54.5 124.5t130.5 49.5zM582 1491q-35 0 -61.5 -25.5t-26.5 -62.5q0 -36 26.5 -61t61.5 -25q36 0 62 25t26 61q0 38 -26 63t-62 25z" />
    <glyph glyph-name="ae" unicode="&#xe6;" horiz-adv-x="1921" 
d="M469 -27q-170 0 -275.5 82.5t-105.5 225.5q0 64 18 113.5t60 88.5t98 67.5t144.5 52t185.5 41t235 36.5v45q0 248 -256 248q-125 0 -193 -57.5t-77 -161.5h-188q9 115 76 200.5t167 127.5t217 42q296 0 386 -184q131 180 380 180q166 0 287 -83.5t177.5 -225t43.5 -315.5
h-833q-1 -162 93 -261.5t234 -99.5q122 0 191.5 47.5t107.5 136.5h193q-41 -152 -167 -249t-320 -97q-297 0 -424 230q-147 -230 -455 -230zM844 498v45q-52 -11 -137 -26.5t-91 -16.5q-66 -13 -110 -24.5t-89 -28.5t-71 -37.5t-42.5 -50t-16.5 -66.5q0 -77 58.5 -122.5
t154.5 -45.5q70 0 128 18t108.5 58t79 116t28.5 181zM1018 649h635q-3 127 -86.5 220.5t-225.5 93.5q-143 0 -230 -83t-93 -231z" />
    <glyph glyph-name="ccedilla" unicode="&#xe7;" horiz-adv-x="1128" 
d="M362 -360l33 81q61 -28 119 -28q51 0 88 15.5t37 49.5q0 30 -25.5 46t-64.5 16q-51 0 -78 -19l-61 35l88 144q-200 27 -313 181.5t-113 387.5q0 165 61.5 293.5t182 203t282.5 74.5q98 0 181.5 -34t139 -90t90 -123.5t44.5 -139.5h-189q-21 101 -94.5 162t-183.5 61
q-137 0 -224.5 -103.5t-87.5 -301.5q0 -201 88.5 -307.5t223.5 -106.5q115 0 189.5 63.5t96.5 157.5h193q-19 -102 -80 -186.5t-161.5 -139t-221.5 -59.5l-45 -71q30 6 61 6q73 0 114.5 -37.5t41.5 -101.5q0 -77 -68 -122.5t-153 -45.5q-111 0 -191 39z" />
    <glyph glyph-name="egrave" unicode="&#xe8;" horiz-adv-x="1179" 
d="M606 -27q-129 0 -231.5 44t-168 122t-100 182.5t-34.5 227.5q0 258 148 414.5t380 156.5q166 0 287 -85.5t177.5 -228t43.5 -317.5h-834q0 -160 94.5 -256t233.5 -96q122 0 191.5 46.5t107.5 135.5h193q-41 -152 -167 -249t-321 -97zM600 961q-143 0 -230.5 -82.5
t-93.5 -229.5h635q-3 127 -86 219.5t-225 92.5zM512 1247l-266 238h237l187 -238h-158z" />
    <glyph glyph-name="eacute" unicode="&#xe9;" horiz-adv-x="1179" 
d="M606 -27q-129 0 -231.5 44t-168 122t-100 182.5t-34.5 227.5q0 258 148 414.5t380 156.5q166 0 287 -85.5t177.5 -228t43.5 -317.5h-834q0 -160 94.5 -256t233.5 -96q122 0 191.5 46.5t107.5 135.5h193q-41 -152 -167 -249t-321 -97zM600 961q-143 0 -230.5 -82.5
t-93.5 -229.5h635q-3 127 -86 219.5t-225 92.5zM936 1485l-268 -238h-156l184 238h240z" />
    <glyph glyph-name="ecircumflex" unicode="&#xea;" horiz-adv-x="1179" 
d="M606 -27q-129 0 -231.5 44t-168 122t-100 182.5t-34.5 227.5q0 258 148 414.5t380 156.5q166 0 287 -85.5t177.5 -228t43.5 -317.5h-834q0 -160 94.5 -256t233.5 -96q122 0 191.5 46.5t107.5 135.5h193q-41 -152 -167 -249t-321 -97zM600 961q-143 0 -230.5 -82.5
t-93.5 -229.5h635q-3 127 -86 219.5t-225 92.5zM684 1485l264 -238h-196l-162 111l-162 -111h-197l271 238h182z" />
    <glyph glyph-name="edieresis" unicode="&#xeb;" horiz-adv-x="1179" 
d="M606 -27q-129 0 -231.5 44t-168 122t-100 182.5t-34.5 227.5q0 258 148 414.5t380 156.5q166 0 287 -85.5t177.5 -228t43.5 -317.5h-834q0 -160 94.5 -256t233.5 -96q122 0 191.5 46.5t107.5 135.5h193q-41 -152 -167 -249t-321 -97zM600 961q-143 0 -230.5 -82.5
t-93.5 -229.5h635q-3 127 -86 219.5t-225 92.5zM262 1282v203h187v-203h-187zM731 1485h189v-203h-189v203z" />
    <glyph glyph-name="igrave" unicode="&#xec;" horiz-adv-x="481" 
d="M147 1102h187v-1102h-187v1102zM162 1247l-266 238h237l186 -238h-157z" />
    <glyph glyph-name="iacute" unicode="&#xed;" horiz-adv-x="481" 
d="M147 1102h187v-1102h-187v1102zM586 1485l-269 -238h-155l184 238h240z" />
    <glyph glyph-name="icircumflex" unicode="&#xee;" horiz-adv-x="481" 
d="M147 1102h187v-1102h-187v1102zM334 1485l264 -238h-197l-161 111l-162 -111h-197l271 238h182z" />
    <glyph glyph-name="idieresis" unicode="&#xef;" horiz-adv-x="481" 
d="M147 1102h187v-1102h-187v1102zM-88 1282v203h186v-203h-186zM381 1485h188v-203h-188v203z" />
    <glyph glyph-name="eth" unicode="&#xf0;" horiz-adv-x="1173" 
d="M657 1444l144 88l94 -53l-156 -97q348 -283 348 -735q0 -329 -139.5 -501.5t-376.5 -172.5q-232 0 -365.5 154.5t-133.5 421.5q0 260 133 415.5t342 155.5q199 0 315 -162l2 3q-84 191 -280 327l-152 -92l-92 49l160 98q-64 38 -162 82l135 123q104 -51 184 -104z
M573 133q139 0 225.5 106.5t86.5 309.5q0 200 -88 306t-224 106q-145 0 -222 -111t-77 -301q0 -194 76.5 -305t222.5 -111z" />
    <glyph glyph-name="ntilde" unicode="&#xf1;" horiz-adv-x="1183" 
d="M334 1102v-166q111 184 356 184q363 0 363 -424v-696h-187v641q0 57 -4.5 99t-19 85.5t-40.5 70.5t-70.5 44.5t-106.5 17.5q-137 0 -214 -92.5t-77 -267.5v-598h-187v1102h187zM756 1393q39 0 64.5 23.5t31.5 68.5h145q-21 -119 -85 -175.5t-152 -56.5q-41 0 -83 15.5
t-70.5 34t-63 34t-62.5 15.5q-40 0 -63.5 -23.5t-28.5 -66.5h-145q20 115 82 172t153 57q42 0 82.5 -15.5t67.5 -33.5t61.5 -33.5t65.5 -15.5z" />
    <glyph glyph-name="ograve" unicode="&#xf2;" horiz-adv-x="1196" 
d="M274 547q0 -106 25.5 -187t71 -128.5t102.5 -71t125 -23.5q141 0 232.5 104t91.5 306q0 106 -25.5 186.5t-71 128t-102.5 71t-125 23.5q-144 0 -234 -98.5t-90 -310.5zM76 547q0 144 44 257t118.5 180t166 101.5t193.5 34.5t193.5 -34.5t166 -101.5t118.5 -180t44 -257
t-44 -257t-118.5 -180.5t-166 -102t-193.5 -34.5t-193.5 34.5t-166 102t-118.5 180.5t-44 257zM520 1247l-266 238h238l186 -238h-158z" />
    <glyph glyph-name="oacute" unicode="&#xf3;" horiz-adv-x="1196" 
d="M274 547q0 -106 25.5 -187t71 -128.5t102.5 -71t125 -23.5q141 0 232.5 104t91.5 306q0 106 -25.5 186.5t-71 128t-102.5 71t-125 23.5q-144 0 -234 -98.5t-90 -310.5zM76 547q0 144 44 257t118.5 180t166 101.5t193.5 34.5t193.5 -34.5t166 -101.5t118.5 -180t44 -257
t-44 -257t-118.5 -180.5t-166 -102t-193.5 -34.5t-193.5 34.5t-166 102t-118.5 180.5t-44 257zM944 1485l-268 -238h-156l185 238h239z" />
    <glyph glyph-name="ocircumflex" unicode="&#xf4;" horiz-adv-x="1196" 
d="M274 547q0 -106 25.5 -187t71 -128.5t102.5 -71t125 -23.5q141 0 232.5 104t91.5 306q0 106 -25.5 186.5t-71 128t-102.5 71t-125 23.5q-144 0 -234 -98.5t-90 -310.5zM76 547q0 144 44 257t118.5 180t166 101.5t193.5 34.5t193.5 -34.5t166 -101.5t118.5 -180t44 -257
t-44 -257t-118.5 -180.5t-166 -102t-193.5 -34.5t-193.5 34.5t-166 102t-118.5 180.5t-44 257zM692 1485l264 -238h-196l-162 111l-162 -111h-196l270 238h182z" />
    <glyph glyph-name="otilde" unicode="&#xf5;" horiz-adv-x="1196" 
d="M274 547q0 -106 25.5 -187t71 -128.5t102.5 -71t125 -23.5q141 0 232.5 104t91.5 306q0 106 -25.5 186.5t-71 128t-102.5 71t-125 23.5q-144 0 -234 -98.5t-90 -310.5zM76 547q0 144 44 257t118.5 180t166 101.5t193.5 34.5t193.5 -34.5t166 -101.5t118.5 -180t44 -257
t-44 -257t-118.5 -180.5t-166 -102t-193.5 -34.5t-193.5 34.5t-166 102t-118.5 180.5t-44 257zM733 1393q39 0 64.5 23.5t31.5 68.5h146q-21 -119 -85.5 -175.5t-152.5 -56.5q-41 0 -83 15.5t-70 34t-62.5 34t-62.5 15.5q-40 0 -63.5 -23.5t-28.5 -66.5h-146
q20 115 82.5 172t153.5 57q53 0 102 -24.5t92.5 -49t81.5 -24.5z" />
    <glyph glyph-name="odieresis" unicode="&#xf6;" horiz-adv-x="1196" 
d="M274 547q0 -106 25.5 -187t71 -128.5t102.5 -71t125 -23.5q141 0 232.5 104t91.5 306q0 106 -25.5 186.5t-71 128t-102.5 71t-125 23.5q-144 0 -234 -98.5t-90 -310.5zM76 547q0 144 44 257t118.5 180t166 101.5t193.5 34.5t193.5 -34.5t166 -101.5t118.5 -180t44 -257
t-44 -257t-118.5 -180.5t-166 -102t-193.5 -34.5t-193.5 34.5t-166 102t-118.5 180.5t-44 257zM270 1282v203h187v-203h-187zM739 1485h189v-203h-189v203z" />
    <glyph glyph-name="divide" unicode="&#xf7;" 
d="M582 66v235h235v-235h-235zM582 778v236h235v-236h-235zM1229 440h-1069v176h1069v-176z" />
    <glyph glyph-name="oslash" unicode="&#xf8;" horiz-adv-x="1196" 
d="M76 547q0 144 44 257t118.5 180t166 101.5t193.5 34.5q194 0 330 -112l80 92l84 -72l-86 -98q114 -150 114 -383q0 -144 -44 -257t-118.5 -180.5t-166 -102t-193.5 -34.5q-196 0 -330 111l-96 -111l-80 74l98 115q-114 150 -114 385zM274 547q0 -146 45 -238l492 565
q-85 82 -213 82q-144 0 -234 -98.5t-90 -310.5zM922 547q0 133 -45 235l-494 -565q83 -80 215 -80q141 0 232.5 104t91.5 306z" />
    <glyph glyph-name="ugrave" unicode="&#xf9;" horiz-adv-x="1163" 
d="M829 0v158q-112 -185 -346 -185q-352 0 -352 424v705h186v-649q0 -57 4.5 -99t19 -85.5t39 -71t67.5 -45t102 -17.5q133 0 206.5 93t73.5 268v606h187v-1102h-187zM543 1247l-267 238h238l186 -238h-157z" />
    <glyph glyph-name="uacute" unicode="&#xfa;" horiz-adv-x="1163" 
d="M829 0v158q-112 -185 -346 -185q-352 0 -352 424v705h186v-649q0 -57 4.5 -99t19 -85.5t39 -71t67.5 -45t102 -17.5q133 0 206.5 93t73.5 268v606h187v-1102h-187zM926 1485l-269 -238h-155l184 238h240z" />
    <glyph glyph-name="ucircumflex" unicode="&#xfb;" horiz-adv-x="1163" 
d="M829 0v158q-112 -185 -346 -185q-352 0 -352 424v705h186v-649q0 -57 4.5 -99t19 -85.5t39 -71t67.5 -45t102 -17.5q133 0 206.5 93t73.5 268v606h187v-1102h-187zM674 1485l264 -238h-197l-161 111l-162 -111h-197l271 238h182z" />
    <glyph glyph-name="udieresis" unicode="&#xfc;" horiz-adv-x="1163" 
d="M829 0v158q-112 -185 -346 -185q-352 0 -352 424v705h186v-649q0 -57 4.5 -99t19 -85.5t39 -71t67.5 -45t102 -17.5q133 0 206.5 93t73.5 268v606h187v-1102h-187zM252 1282v203h186v-203h-186zM721 1485h188v-203h-188v203z" />
    <glyph glyph-name="yacute" unicode="&#xfd;" horiz-adv-x="954" 
d="M760 1102h194l-393 -1149q-26 -78 -47.5 -125.5t-50.5 -87t-67.5 -59t-90.5 -29.5t-127 -10h-96v155h76q43 0 67 2t52.5 11.5t45.5 29t34 53t32 84.5l8 23l-397 1102h207l280 -850zM817 1485l-268 -238h-156l185 238h239z" />
    <glyph glyph-name="thorn" unicode="&#xfe;" horiz-adv-x="1230" 
d="M147 1485h187v-557q112 192 360 192q201 0 331 -154t130 -419q0 -267 -130 -420.5t-331 -153.5q-248 0 -360 193v-524h-187v1843zM326 547q0 -105 26.5 -186.5t72 -130t102 -73t120.5 -24.5q149 0 229 108.5t80 305.5t-80 305.5t-229 108.5q-64 0 -120.5 -24.5t-102 -73
t-72 -130t-26.5 -186.5z" />
    <glyph glyph-name="ydieresis" unicode="&#xff;" horiz-adv-x="954" 
d="M760 1102h194l-393 -1149q-26 -78 -47.5 -125.5t-50.5 -87t-67.5 -59t-90.5 -29.5t-127 -10h-96v155h76q43 0 67 2t52.5 11.5t45.5 29t34 53t32 84.5l8 23l-397 1102h207l280 -850zM150 1282v203h186v-203h-186zM618 1485h189v-203h-189v203z" />
    <glyph glyph-name="Amacron" unicode="&#x100;" horiz-adv-x="1351" 
d="M0 0l551 1485h242l559 -1485h-226l-116 322h-682l-115 -322h-213zM666 1274l-275 -774h553zM983 1620h-614v154h614v-154z" />
    <glyph glyph-name="amacron" unicode="&#x101;" horiz-adv-x="1144" 
d="M844 494v36q-92 -10 -159 -19t-134 -22.5t-111 -30.5t-80 -40t-52.5 -54t-16.5 -69q0 -79 57 -126.5t156 -47.5q70 0 127.5 18t107 58t77.5 115.5t28 181.5zM463 -27q-161 0 -270 84.5t-109 229.5q0 65 23 117t70.5 90.5t108.5 67.5t149.5 51t180 36.5t213.5 28.5v31
q0 145 -68.5 204.5t-187.5 59.5q-125 0 -192.5 -57.5t-73.5 -161.5h-192q9 115 76 200.5t167 127.5t217 42q230 0 336 -107.5t105 -342.5l-2 -258q-3 -256 28 -416h-188q-11 78 -14 162q-112 -189 -377 -189zM889 1300h-615v154h615v-154z" />
    <glyph glyph-name="Abreve" unicode="&#x102;" horiz-adv-x="1351" 
d="M0 0l551 1485h242l559 -1485h-226l-116 322h-682l-115 -322h-213zM666 1274l-275 -774h553zM842 1815h157q-13 -112 -94 -178t-231 -66q-146 0 -226 66t-94 178h158q18 -119 164 -119q144 0 166 119z" />
    <glyph glyph-name="abreve" unicode="&#x103;" horiz-adv-x="1144" 
d="M844 494v36q-92 -10 -159 -19t-134 -22.5t-111 -30.5t-80 -40t-52.5 -54t-16.5 -69q0 -79 57 -126.5t156 -47.5q70 0 127.5 18t107 58t77.5 115.5t28 181.5zM463 -27q-161 0 -270 84.5t-109 229.5q0 65 23 117t70.5 90.5t108.5 67.5t149.5 51t180 36.5t213.5 28.5v31
q0 145 -68.5 204.5t-187.5 59.5q-125 0 -192.5 -57.5t-73.5 -161.5h-192q9 115 76 200.5t167 127.5t217 42q230 0 336 -107.5t105 -342.5l-2 -258q-3 -256 28 -416h-188q-11 78 -14 162q-112 -189 -377 -189zM907 1485q-6 -49 -25 -91t-55.5 -78.5t-99.5 -57.5t-147 -21
q-82 0 -144 21t-98.5 57.5t-55.5 78.5t-24 91h145q7 -54 51 -89.5t128 -35.5t128.5 35.5t51.5 89.5h145z" />
    <glyph glyph-name="Aogonek" unicode="&#x104;" horiz-adv-x="1351" 
d="M0 0l551 1485h242l559 -1485q-87 -43 -134 -82.5t-47 -81.5q0 -47 27.5 -69.5t69.5 -22.5q43 0 84 18v-124q-54 -23 -123 -23q-43 0 -82 10.5t-72.5 32.5t-53.5 61t-20 91q0 58 31 101.5t94 88.5l-116 322h-682l-115 -322h-213zM666 1274l-275 -774h553z" />
    <glyph glyph-name="aogonek" unicode="&#x105;" horiz-adv-x="1144" 
d="M463 -27q-161 0 -270 84.5t-109 229.5q0 65 23 117t70.5 90.5t108.5 67.5t149.5 51t180 36.5t213.5 28.5v31q0 145 -68.5 204.5t-187.5 59.5q-125 0 -192.5 -57.5t-73.5 -161.5h-192q9 115 76 200.5t167 127.5t217 42q230 0 336 -107.5t105 -342.5l-2 -258
q-3 -256 28 -416q-198 -82 -198 -172q0 -82 112 -82q40 0 86 12v-125q-52 -18 -131 -18q-35 0 -66.5 5t-63.5 18t-55 33.5t-37.5 54t-14.5 75.5q0 121 180 199q-11 78 -14 162q-112 -189 -377 -189zM844 494v36q-92 -10 -159 -19t-134 -22.5t-111 -30.5t-80 -40t-52.5 -54
t-16.5 -69q0 -79 57 -126.5t156 -47.5q70 0 127.5 18t107 58t77.5 115.5t28 181.5z" />
    <glyph glyph-name="Cacute" unicode="&#x106;" horiz-adv-x="1486" 
d="M1219 473h202q-48 -240 -221.5 -370t-421.5 -130q-209 0 -363 99t-232.5 272.5t-78.5 400.5q0 347 188.5 556.5t502.5 209.5q234 0 403 -132.5t215 -366.5h-203q-35 145 -145 234t-281 89q-204 0 -335.5 -155.5t-131.5 -434.5q0 -276 131.5 -435.5t342.5 -159.5
q171 0 281 87.5t147 235.5zM1159 1815l-305 -232h-184l225 232h264z" />
    <glyph glyph-name="cacute" unicode="&#x107;" horiz-adv-x="1128" 
d="M598 1120q98 0 181.5 -34t139 -90t90 -123.5t44.5 -139.5h-189q-21 101 -94.5 162t-183.5 61q-137 0 -224.5 -103.5t-87.5 -301.5q0 -201 88.5 -307.5t223.5 -106.5q115 0 189.5 63.5t96.5 157.5h193q-29 -162 -162 -273.5t-323 -111.5q-237 0 -372.5 159.5t-135.5 416.5
q0 165 61.5 293.5t182 203t282.5 74.5zM913 1485l-268 -238h-156l185 238h239z" />
    <glyph glyph-name="Ccircumflex" unicode="&#x108;" horiz-adv-x="1486" 
d="M1219 473h202q-48 -240 -221.5 -370t-421.5 -130q-209 0 -363 99t-232.5 272.5t-78.5 400.5q0 347 188.5 556.5t502.5 209.5q234 0 403 -132.5t215 -366.5h-203q-35 145 -145 234t-281 89q-204 0 -335.5 -155.5t-131.5 -434.5q0 -276 131.5 -435.5t342.5 -159.5
q171 0 281 87.5t147 235.5zM881 1815l270 -232h-219l-139 115l-140 -115h-219l277 232h170z" />
    <glyph glyph-name="ccircumflex" unicode="&#x109;" horiz-adv-x="1128" 
d="M598 1120q98 0 181.5 -34t139 -90t90 -123.5t44.5 -139.5h-189q-21 101 -94.5 162t-183.5 61q-137 0 -224.5 -103.5t-87.5 -301.5q0 -201 88.5 -307.5t223.5 -106.5q115 0 189.5 63.5t96.5 157.5h193q-29 -162 -162 -273.5t-323 -111.5q-237 0 -372.5 159.5t-135.5 416.5
q0 165 61.5 293.5t182 203t282.5 74.5zM684 1485l264 -238h-196l-162 111l-162 -111h-197l271 238h182z" />
    <glyph glyph-name="Cdotaccent" unicode="&#x10a;" horiz-adv-x="1486" 
d="M1219 473h202q-48 -240 -221.5 -370t-421.5 -130q-209 0 -363 99t-232.5 272.5t-78.5 400.5q0 347 188.5 556.5t502.5 209.5q234 0 403 -132.5t215 -366.5h-203q-35 145 -145 234t-281 89q-204 0 -335.5 -155.5t-131.5 -434.5q0 -276 131.5 -435.5t342.5 -159.5
q171 0 281 87.5t147 235.5zM702 1802h187v-203h-187v203z" />
    <glyph glyph-name="cdotaccent" unicode="&#x10b;" horiz-adv-x="1128" 
d="M598 1120q98 0 181.5 -34t139 -90t90 -123.5t44.5 -139.5h-189q-21 101 -94.5 162t-183.5 61q-137 0 -224.5 -103.5t-87.5 -301.5q0 -201 88.5 -307.5t223.5 -106.5q115 0 189.5 63.5t96.5 157.5h193q-29 -162 -162 -273.5t-323 -111.5q-237 0 -372.5 159.5t-135.5 416.5
q0 165 61.5 293.5t182 203t282.5 74.5zM496 1485h186v-203h-186v203z" />
    <glyph glyph-name="Ccaron" unicode="&#x10c;" horiz-adv-x="1486" 
d="M1219 473h202q-48 -240 -221.5 -370t-421.5 -130q-209 0 -363 99t-232.5 272.5t-78.5 400.5q0 347 188.5 556.5t502.5 209.5q234 0 403 -132.5t215 -366.5h-203q-35 145 -145 234t-281 89q-204 0 -335.5 -155.5t-131.5 -434.5q0 -276 131.5 -435.5t342.5 -159.5
q171 0 281 87.5t147 235.5zM705 1583l-269 232h219l138 -115l141 115h219l-276 -232h-172z" />
    <glyph glyph-name="ccaron" unicode="&#x10d;" horiz-adv-x="1128" 
d="M598 1120q98 0 181.5 -34t139 -90t90 -123.5t44.5 -139.5h-189q-21 101 -94.5 162t-183.5 61q-137 0 -224.5 -103.5t-87.5 -301.5q0 -201 88.5 -307.5t223.5 -106.5q115 0 189.5 63.5t96.5 157.5h193q-29 -162 -162 -273.5t-323 -111.5q-237 0 -372.5 159.5t-135.5 416.5
q0 165 61.5 293.5t182 203t282.5 74.5zM496 1247l-265 238h197l160 -111l164 111h196l-272 -238h-180z" />
    <glyph glyph-name="Dcaron" unicode="&#x10e;" horiz-adv-x="1495" 
d="M1178 743q0 105 -18 189.5t-47.5 143t-75.5 101.5t-95 68t-113.5 40t-122.5 19.5t-131 4.5h-190v-1133h190q63 0 114.5 4t109 13.5t102.5 28.5t90 47.5t77.5 72t58 99.5t38.5 132.5t13 169.5zM176 1485h406q146 0 265.5 -22.5t222.5 -76t172.5 -137.5t109 -212t39.5 -294
q0 -167 -39.5 -295t-109 -212t-172.5 -137.5t-222 -76t-266 -22.5h-406v1485zM651 1583l-268 232h219l137 -115l142 115h219l-277 -232h-172z" />
    <glyph glyph-name="dcaron" unicode="&#x10f;" 
d="M1430 1485l-144 -348h-119l62 348h201zM897 928v557h186v-1485h-186v166q-112 -193 -360 -193q-98 0 -182.5 39t-147.5 110.5t-99 181t-36 243.5q0 264 132 418.5t333 154.5q248 0 360 -192zM905 547q0 105 -26.5 186.5t-72 130t-102 73t-120.5 24.5
q-149 0 -229.5 -108.5t-80.5 -305.5t80.5 -305.5t229.5 -108.5q64 0 120.5 24.5t102 73t72 130t26.5 186.5z" />
    <glyph glyph-name="Dcroat" unicode="&#x110;" horiz-adv-x="1492" 
d="M176 1485h406q146 0 265.5 -22.5t222.5 -76t172.5 -137.5t109 -212t39.5 -294q0 -167 -39.5 -295t-109 -212t-172.5 -137.5t-222 -76t-266 -22.5h-406v662h-131v184h131v639zM1178 743q0 105 -18 189.5t-47.5 143t-75.5 101.5t-95 68t-113.5 40t-122.5 19.5t-131 4.5
h-190v-463h326v-184h-326v-486h190q63 0 114.5 4t109 13.5t102.5 28.5t90 47.5t77.5 72t58 99.5t38.5 132.5t13 169.5z" />
    <glyph glyph-name="dcroat" unicode="&#x111;" horiz-adv-x="1230" 
d="M645 1184v153h252v148h186v-148h152v-153h-152v-1184h-186v166q-112 -193 -360 -193q-98 0 -182.5 39t-147.5 110.5t-99 181t-36 243.5q0 264 132 418.5t333 154.5q248 0 360 -192v256h-252zM905 547q0 105 -26.5 186.5t-72 130t-102 73t-120.5 24.5
q-149 0 -229.5 -108.5t-80.5 -305.5t80.5 -305.5t229.5 -108.5q64 0 120.5 24.5t102 73t72 130t26.5 186.5z" />
    <glyph glyph-name="Emacron" unicode="&#x112;" horiz-adv-x="1255" 
d="M176 0v1485h1008v-180h-799v-451h752v-180h-752v-494h799v-180h-1008zM993 1620h-614v154h614v-154z" />
    <glyph glyph-name="emacron" unicode="&#x113;" horiz-adv-x="1179" 
d="M606 -27q-129 0 -231.5 44t-168 122t-100 182.5t-34.5 227.5q0 258 148 414.5t380 156.5q166 0 287 -85.5t177.5 -228t43.5 -317.5h-834q0 -160 94.5 -256t233.5 -96q122 0 191.5 46.5t107.5 135.5h193q-41 -152 -167 -249t-321 -97zM600 961q-143 0 -230.5 -82.5
t-93.5 -229.5h635q-3 127 -86 219.5t-225 92.5zM897 1300h-614v154h614v-154z" />
    <glyph glyph-name="Ebreve" unicode="&#x114;" horiz-adv-x="1255" 
d="M176 0v1485h1008v-180h-799v-451h752v-180h-752v-494h799v-180h-1008zM846 1815h158q-13 -112 -94.5 -178t-231.5 -66q-146 0 -226 66t-94 178h158q18 -119 164 -119q144 0 166 119z" />
    <glyph glyph-name="ebreve" unicode="&#x115;" horiz-adv-x="1179" 
d="M606 -27q-129 0 -231.5 44t-168 122t-100 182.5t-34.5 227.5q0 258 148 414.5t380 156.5q166 0 287 -85.5t177.5 -228t43.5 -317.5h-834q0 -160 94.5 -256t233.5 -96q122 0 191.5 46.5t107.5 135.5h193q-41 -152 -167 -249t-321 -97zM600 961q-143 0 -230.5 -82.5
t-93.5 -229.5h635q-3 127 -86 219.5t-225 92.5zM915 1485q-6 -49 -25 -91t-55.5 -78.5t-99.5 -57.5t-147 -21q-82 0 -144 21t-98.5 57.5t-55.5 78.5t-24 91h146q7 -54 50.5 -89.5t127.5 -35.5t128.5 35.5t51.5 89.5h145z" />
    <glyph glyph-name="Edotaccent" unicode="&#x116;" horiz-adv-x="1255" 
d="M176 0v1485h1008v-180h-799v-451h752v-180h-752v-494h799v-180h-1008zM588 1802h186v-203h-186v203z" />
    <glyph glyph-name="edotaccent" unicode="&#x117;" horiz-adv-x="1179" 
d="M606 -27q-129 0 -231.5 44t-168 122t-100 182.5t-34.5 227.5q0 258 148 414.5t380 156.5q166 0 287 -85.5t177.5 -228t43.5 -317.5h-834q0 -160 94.5 -256t233.5 -96q122 0 191.5 46.5t107.5 135.5h193q-41 -152 -167 -249t-321 -97zM600 961q-143 0 -230.5 -82.5
t-93.5 -229.5h635q-3 127 -86 219.5t-225 92.5zM498 1485h186v-203h-186v203z" />
    <glyph glyph-name="Eogonek" unicode="&#x118;" horiz-adv-x="1255" 
d="M176 0v1485h1008v-180h-799v-451h752v-180h-752v-494h799v-180q-180 -90 -180 -164q0 -47 27 -69.5t69 -22.5q44 0 84 18v-124q-54 -23 -123 -23q-59 0 -108 17.5t-84 63t-35 114.5q0 112 141 190h-799z" />
    <glyph glyph-name="eogonek" unicode="&#x119;" horiz-adv-x="1179" 
d="M600 961q-141 0 -229 -82.5t-95 -229.5h635q-3 127 -86 219.5t-225 92.5zM909 -367q-52 -18 -131 -18q-45 0 -84 9t-75 30t-57 61.5t-21 96.5q0 76 73 161q-132 0 -236 44t-170.5 122t-101 182t-34.5 228q0 258 148 414.5t380 156.5q166 0 287 -85.5t177.5 -228
t43.5 -317.5h-834q1 -159 95 -255.5t233 -96.5q122 0 191.5 46.5t107.5 135.5h193q-47 -179 -220 -286q-66 -40 -114.5 -98.5t-48.5 -96.5q0 -92 112 -92q40 0 86 12v-125z" />
    <glyph glyph-name="Ecaron" unicode="&#x11a;" horiz-adv-x="1255" 
d="M176 0v1485h1008v-180h-799v-451h752v-180h-752v-494h799v-180h-1008zM610 1583l-268 232h219l137 -115l142 115h219l-277 -232h-172z" />
    <glyph glyph-name="ecaron" unicode="&#x11b;" horiz-adv-x="1179" 
d="M606 -27q-129 0 -231.5 44t-168 122t-100 182.5t-34.5 227.5q0 258 148 414.5t380 156.5q166 0 287 -85.5t177.5 -228t43.5 -317.5h-834q0 -160 94.5 -256t233.5 -96q122 0 191.5 46.5t107.5 135.5h193q-41 -152 -167 -249t-321 -97zM600 961q-143 0 -230.5 -82.5
t-93.5 -229.5h635q-3 127 -86 219.5t-225 92.5zM496 1247l-265 238h197l160 -111l164 111h196l-272 -238h-180z" />
    <glyph glyph-name="Gcircumflex" unicode="&#x11c;" horiz-adv-x="1576" 
d="M795 1511q233 0 401 -122.5t213 -335.5h-203q-39 131 -144.5 206.5t-277.5 75.5q-204 0 -335.5 -155.5t-131.5 -434.5q0 -277 129 -436t338 -159q64 0 122.5 10.5t117.5 38.5t102 70.5t70 111.5t27 158v39h-394v180h590v-758h-164l-10 186q-135 -213 -469 -213
q-210 0 -363 99t-231 272.5t-78 400.5q0 346 189 556t502 210zM881 1815l270 -232h-219l-139 115l-140 -115h-219l277 232h170z" />
    <glyph glyph-name="gcircumflex" unicode="&#x11d;" horiz-adv-x="1212" 
d="M879 928v174h186v-955q0 -158 -26 -243.5t-78 -143.5q-60 -69 -159 -107t-222 -38q-190 0 -308.5 86.5t-144.5 251.5h199q21 -83 78.5 -128.5t177.5 -45.5q149 0 225 82q36 38 54 89t18 154v105q-111 -191 -351 -191q-201 0 -327.5 146t-126.5 405q0 258 126.5 404.5
t327.5 146.5q239 0 351 -192zM887 569q0 197 -88.5 294.5t-223.5 97.5q-148 0 -223.5 -101t-75.5 -291q0 -191 75.5 -292t223.5 -101q64 0 119 22.5t99 68t69 123t25 179.5zM684 1485l264 -238h-196l-162 111l-162 -111h-197l271 238h182z" />
    <glyph glyph-name="Gbreve" unicode="&#x11e;" horiz-adv-x="1576" 
d="M795 1511q233 0 401 -122.5t213 -335.5h-203q-39 131 -144.5 206.5t-277.5 75.5q-204 0 -335.5 -155.5t-131.5 -434.5q0 -277 129 -436t338 -159q64 0 122.5 10.5t117.5 38.5t102 70.5t70 111.5t27 158v39h-394v180h590v-758h-164l-10 186q-135 -213 -469 -213
q-210 0 -363 99t-231 272.5t-78 400.5q0 346 189 556t502 210zM954 1815h158q-13 -112 -94.5 -178t-231.5 -66q-146 0 -225.5 66t-93.5 178h158q18 -119 163 -119q144 0 166 119z" />
    <glyph glyph-name="gbreve" unicode="&#x11f;" horiz-adv-x="1212" 
d="M879 928v174h186v-955q0 -158 -26 -243.5t-78 -143.5q-60 -69 -159 -107t-222 -38q-190 0 -308.5 86.5t-144.5 251.5h199q21 -83 78.5 -128.5t177.5 -45.5q149 0 225 82q36 38 54 89t18 154v105q-111 -191 -351 -191q-201 0 -327.5 146t-126.5 405q0 258 126.5 404.5
t327.5 146.5q239 0 351 -192zM887 569q0 197 -88.5 294.5t-223.5 97.5q-148 0 -223.5 -101t-75.5 -291q0 -191 75.5 -292t223.5 -101q64 0 119 22.5t99 68t69 123t25 179.5zM903 1485q-6 -49 -25 -91t-56 -78.5t-100 -57.5t-147 -21q-82 0 -144 21t-98 57.5t-55 78.5t-24 91
h145q7 -54 51 -89.5t128 -35.5t128.5 35.5t51.5 89.5h145z" />
    <glyph glyph-name="Gdotaccent" unicode="&#x120;" horiz-adv-x="1576" 
d="M795 1511q233 0 401 -122.5t213 -335.5h-203q-39 131 -144.5 206.5t-277.5 75.5q-204 0 -335.5 -155.5t-131.5 -434.5q0 -277 129 -436t338 -159q64 0 122.5 10.5t117.5 38.5t102 70.5t70 111.5t27 158v39h-394v180h590v-758h-164l-10 186q-135 -213 -469 -213
q-210 0 -363 99t-231 272.5t-78 400.5q0 346 189 556t502 210zM700 1802h187v-203h-187v203z" />
    <glyph glyph-name="gdotaccent" unicode="&#x121;" horiz-adv-x="1212" 
d="M879 928v174h186v-955q0 -158 -26 -243.5t-78 -143.5q-60 -69 -159 -107t-222 -38q-190 0 -308.5 86.5t-144.5 251.5h199q21 -83 78.5 -128.5t177.5 -45.5q149 0 225 82q36 38 54 89t18 154v105q-111 -191 -351 -191q-201 0 -327.5 146t-126.5 405q0 258 126.5 404.5
t327.5 146.5q239 0 351 -192zM887 569q0 197 -88.5 294.5t-223.5 97.5q-148 0 -223.5 -101t-75.5 -291q0 -191 75.5 -292t223.5 -101q64 0 119 22.5t99 68t69 123t25 179.5zM506 1485h186v-203h-186v203z" />
    <glyph glyph-name="Gcommaaccent" unicode="&#x122;" horiz-adv-x="1576" 
d="M795 1511q233 0 401 -122.5t213 -335.5h-203q-39 131 -144.5 206.5t-277.5 75.5q-204 0 -335.5 -155.5t-131.5 -434.5q0 -277 129 -436t338 -159q64 0 122.5 10.5t117.5 38.5t102 70.5t70 111.5t27 158v39h-394v180h590v-758h-164l-10 186q-135 -213 -469 -213
q-210 0 -363 99t-231 272.5t-78 400.5q0 346 189 556t502 210zM668 -256v182h194v-194l-90 -185h-110l79 197h-73z" />
    <glyph glyph-name="gcommaaccent" unicode="&#x123;" horiz-adv-x="1212" 
d="M680 1413v-184h-195v196l90 183h111l-80 -195h74zM879 928v174h186v-955q0 -158 -26 -243.5t-78 -143.5q-60 -69 -159 -107t-222 -38q-190 0 -308.5 86.5t-144.5 251.5h199q21 -83 78.5 -128.5t177.5 -45.5q149 0 225 82q36 38 54 89t18 154v105q-111 -191 -351 -191
q-201 0 -327.5 146t-126.5 405q0 258 126.5 404.5t327.5 146.5q239 0 351 -192zM887 569q0 197 -88.5 294.5t-223.5 97.5q-148 0 -223.5 -101t-75.5 -291q0 -191 75.5 -292t223.5 -101q64 0 119 22.5t99 68t69 123t25 179.5z" />
    <glyph glyph-name="Hcircumflex" unicode="&#x124;" horiz-adv-x="1550" 
d="M1165 1485h209v-1485h-209v674h-780v-674h-209v1485h209v-631h780v631zM862 1815l271 -232h-220l-139 115l-139 -115h-219l276 232h170z" />
    <glyph glyph-name="hcircumflex" unicode="&#x125;" horiz-adv-x="1183" 
d="M334 1485v-549q111 184 356 184q363 0 363 -424v-696h-187v641q0 57 -4.5 99t-19 85.5t-40.5 70.5t-70.5 44.5t-106.5 17.5q-137 0 -214 -92.5t-77 -267.5v-598h-187v1485h187zM328 1815l270 -232h-219l-139 115l-140 -115h-219l277 232h170z" />
    <glyph glyph-name="Hbar" unicode="&#x126;" horiz-adv-x="1552" 
d="M1165 1485h209v-262h137v-164h-137v-1059h-209v674h-780v-674h-209v1059h-135v164h135v262h209v-262h780v262zM385 854h780v205h-780v-205z" />
    <glyph glyph-name="hbar" unicode="&#x127;" horiz-adv-x="1183" 
d="M334 1485v-148h256v-153h-256v-248q111 184 356 184q363 0 363 -424v-696h-187v641q0 57 -4.5 99t-19 85.5t-40.5 70.5t-70.5 44.5t-106.5 17.5q-137 0 -214 -92.5t-77 -267.5v-598h-187v1184h-172v153h172v148h187z" />
    <glyph glyph-name="Itilde" unicode="&#x128;" horiz-adv-x="561" 
d="M385 1485v-1485h-209v1485h209zM416 1720q39 0 64.5 23.5t31.5 68.5h145q-20 -120 -84 -175.5t-153 -55.5q-52 0 -103.5 24t-96 48t-79.5 24q-40 0 -63.5 -23.5t-28.5 -66.5h-145q20 115 82 172.5t153 57.5q42 0 82.5 -15t67.5 -33.5t61.5 -33.5t65.5 -15z" />
    <glyph glyph-name="itilde" unicode="&#x129;" horiz-adv-x="481" 
d="M147 1102h187v-1102h-187v1102zM375 1393q39 0 64.5 23.5t31.5 68.5h145q-21 -119 -85 -175.5t-152 -56.5q-41 0 -83 15.5t-70.5 34t-63 34t-62.5 15.5q-40 0 -63.5 -23.5t-28.5 -66.5h-145q20 115 82 172t153 57q42 0 82.5 -15.5t67.5 -33.5t61.5 -33.5t65.5 -15.5z" />
    <glyph glyph-name="Imacron" unicode="&#x12a;" horiz-adv-x="561" 
d="M385 1485v-1485h-209v1485h209zM588 1620h-615v154h615v-154z" />
    <glyph glyph-name="imacron" unicode="&#x12b;" horiz-adv-x="481" 
d="M147 1102h187v-1102h-187v1102zM547 1300h-615v154h615v-154z" />
    <glyph glyph-name="Ibreve" unicode="&#x12c;" horiz-adv-x="561" 
d="M385 1485v-1485h-209v1485h209zM446 1815h158q-13 -112 -94 -178t-231 -66q-146 0 -226 66t-94 178h158q18 -119 164 -119q143 0 165 119z" />
    <glyph glyph-name="ibreve" unicode="&#x12d;" horiz-adv-x="481" 
d="M147 1102h187v-1102h-187v1102zM565 1485q-6 -49 -25 -91t-55.5 -78.5t-99.5 -57.5t-147 -21q-82 0 -144 21t-98.5 57.5t-55.5 78.5t-24 91h145q7 -54 51 -89.5t128 -35.5t128.5 35.5t51.5 89.5h145z" />
    <glyph glyph-name="Iogonek" unicode="&#x12e;" horiz-adv-x="561" 
d="M176 0v1485h209v-1485q-180 -90 -180 -164q0 -47 27 -69.5t69 -22.5q43 0 84 18v-124q-54 -23 -123 -23q-59 0 -108 17.5t-84 63t-35 114.5q0 112 141 190z" />
    <glyph glyph-name="iogonek" unicode="&#x12f;" horiz-adv-x="481" 
d="M147 0v1102h187v-1102q-94 -39 -147.5 -84.5t-53.5 -89.5q0 -42 32 -61t81 -19q40 0 86 12v-125q-52 -18 -131 -18q-44 0 -83.5 9t-75.5 28.5t-57.5 57t-21.5 89.5q0 63 43.5 111.5t140.5 89.5zM147 1485h187v-225h-187v225z" />
    <glyph glyph-name="Idotaccent" unicode="&#x130;" horiz-adv-x="561" 
d="M385 1485v-1485h-209v1485h209zM188 1802h187v-203h-187v203z" />
    <glyph glyph-name="dotlessi" unicode="&#x131;" horiz-adv-x="481" 
d="M147 1102h187v-1102h-187v1102z" />
    <glyph glyph-name="Jcircumflex" unicode="&#x134;" horiz-adv-x="1130" 
d="M745 473v1012h209v-1014q0 -241 -123 -369.5t-344 -128.5q-220 0 -342 124t-122 362h194q0 -149 77 -232.5t193 -83.5q50 0 92 14.5t81.5 49t62 102.5t22.5 164zM938 1815l270 -232h-219l-139 115l-139 -115h-219l276 232h170z" />
    <glyph glyph-name="jcircumflex" unicode="&#x135;" horiz-adv-x="481" 
d="M147 -59v1161h187v-1157q0 -90 -10.5 -144.5t-40 -92t-79 -52t-130.5 -14.5h-94v155h53q71 0 92.5 28t21.5 116zM334 1485l264 -238h-197l-161 111l-162 -111h-197l271 238h182z" />
    <glyph glyph-name="Kcommaaccent" unicode="&#x136;" horiz-adv-x="1363" 
d="M385 1485v-748l670 748h260l-555 -606l618 -879h-250l-510 725l-233 -258v-467h-209v1485h209zM641 -256v182h195v-194l-91 -185h-110l80 197h-74z" />
    <glyph glyph-name="kcommaaccent" unicode="&#x137;" horiz-adv-x="1034" 
d="M147 1485h187v-879l444 496h230l-390 -422l424 -680h-219l-329 543l-160 -174v-369h-187v1485zM479 -256v182h195v-194l-90 -185h-111l80 197h-74z" />
    <glyph glyph-name="Lacute" unicode="&#x139;" horiz-adv-x="1169" 
d="M385 1485v-1305h784v-180h-993v1485h209zM670 1815l-305 -232h-185l226 232h264z" />
    <glyph glyph-name="lacute" unicode="&#x13a;" horiz-adv-x="481" 
d="M334 1485v-1485h-187v1485h187zM637 1815l-305 -232h-185l226 232h264z" />
    <glyph glyph-name="Lcommaaccent" unicode="&#x13b;" horiz-adv-x="1169" 
d="M385 1485v-1305h784v-180h-993v1485h209zM578 -256v182h194v-194l-90 -185h-111l80 197h-73z" />
    <glyph glyph-name="lcommaaccent" unicode="&#x13c;" horiz-adv-x="481" 
d="M334 1485v-1485h-187v1485h187zM145 -256v182h195v-194l-90 -185h-111l80 197h-74z" />
    <glyph glyph-name="Lcaron" unicode="&#x13d;" horiz-adv-x="1169" 
d="M385 1485v-1305h784v-180h-993v1485h209zM836 1485l-144 -348h-119l62 348h201z" />
    <glyph glyph-name="lcaron" unicode="&#x13e;" horiz-adv-x="638" 
d="M680 1485l-143 -348h-119l61 348h201zM334 1485v-1485h-187v1485h187z" />
    <glyph glyph-name="Ldot" unicode="&#x13f;" horiz-adv-x="1169" 
d="M385 1485v-1305h784v-180h-993v1485h209zM772 954h186v-202h-186v202z" />
    <glyph glyph-name="ldot" unicode="&#x140;" horiz-adv-x="667" 
d="M334 1485v-1485h-187v1485h187zM481 938h187v-203h-187v203z" />
    <glyph glyph-name="Lslash" unicode="&#x141;" horiz-adv-x="1169" 
d="M385 1485v-639l387 264v-186l-387 -265v-479h784v-180h-993v516l-176 -121v187l176 120v783h209z" />
    <glyph glyph-name="lslash" unicode="&#x142;" horiz-adv-x="565" 
d="M375 1485v-553l149 102v-157l-149 -103v-774h-187v647l-147 -100v155l147 101v682h187z" />
    <glyph glyph-name="Nacute" unicode="&#x143;" horiz-adv-x="1546" 
d="M1370 0h-305l-680 1268v-1268h-209v1485h307l678 -1264v1264h209v-1485zM1169 1815l-305 -232h-184l225 232h264z" />
    <glyph glyph-name="nacute" unicode="&#x144;" horiz-adv-x="1183" 
d="M334 1102v-166q111 184 356 184q363 0 363 -424v-696h-187v641q0 57 -4.5 99t-19 85.5t-40.5 70.5t-70.5 44.5t-106.5 17.5q-137 0 -214 -92.5t-77 -267.5v-598h-187v1102h187zM946 1485l-268 -238h-156l185 238h239z" />
    <glyph glyph-name="Ncommaaccent" unicode="&#x145;" horiz-adv-x="1546" 
d="M1370 0h-305l-680 1268v-1268h-209v1485h307l678 -1264v1264h209v-1485zM678 -256v182h194v-194l-90 -185h-110l80 197h-74z" />
    <glyph glyph-name="ncommaaccent" unicode="&#x146;" horiz-adv-x="1183" 
d="M334 1102v-166q111 184 356 184q363 0 363 -424v-696h-187v641q0 57 -4.5 99t-19 85.5t-40.5 70.5t-70.5 44.5t-106.5 17.5q-137 0 -214 -92.5t-77 -267.5v-598h-187v1102h187zM498 -256v182h194v-194l-90 -185h-110l79 197h-73z" />
    <glyph glyph-name="Ncaron" unicode="&#x147;" horiz-adv-x="1546" 
d="M1370 0h-305l-680 1268v-1268h-209v1485h307l678 -1264v1264h209v-1485zM729 1583l-268 232h219l137 -115l141 115h220l-277 -232h-172z" />
    <glyph glyph-name="ncaron" unicode="&#x148;" horiz-adv-x="1183" 
d="M334 1102v-166q111 184 356 184q363 0 363 -424v-696h-187v641q0 57 -4.5 99t-19 85.5t-40.5 70.5t-70.5 44.5t-106.5 17.5q-137 0 -214 -92.5t-77 -267.5v-598h-187v1102h187zM526 1247l-264 238h197l159 -111l164 111h197l-272 -238h-181z" />
    <glyph glyph-name="Eng" unicode="&#x14a;" horiz-adv-x="1546" 
d="M1161 6l-776 1258v-1264h-209v1485h313l672 -1108v1108h209v-1516q0 -108 -18.5 -176.5t-62 -107t-104 -52.5t-157.5 -14h-86v186h45q61 0 93 6t51.5 28t24.5 54t5 95v18z" />
    <glyph glyph-name="eng" unicode="&#x14b;" horiz-adv-x="1183" 
d="M866 -57v698q0 57 -4.5 98.5t-19 85t-40.5 70.5t-70.5 44t-106.5 17q-137 0 -214 -92t-77 -266v-598h-187v1102h187v-166q111 184 356 184q363 0 363 -424v-772q0 -89 -10 -141t-40.5 -85t-78.5 -44.5t-131 -11.5h-95v157h54q71 0 92.5 28t21.5 116z" />
    <glyph glyph-name="Omacron" unicode="&#x14c;" horiz-adv-x="1601" 
d="M317 743q0 -278 137 -435.5t347 -157.5t346.5 157.5t136.5 435.5t-136.5 435t-346.5 157t-347 -157t-137 -435zM1497 743q0 -224 -84 -398t-243 -273t-369 -99t-369.5 99t-243.5 273t-84 398t84 397.5t243.5 272t369.5 98.5t369 -98.5t243 -272t84 -397.5zM1108 1620
h-614v154h614v-154z" />
    <glyph glyph-name="omacron" unicode="&#x14d;" horiz-adv-x="1196" 
d="M274 547q0 -106 25.5 -187t71 -128.5t102.5 -71t125 -23.5q141 0 232.5 104t91.5 306q0 106 -25.5 186.5t-71 128t-102.5 71t-125 23.5q-144 0 -234 -98.5t-90 -310.5zM76 547q0 144 44 257t118.5 180t166 101.5t193.5 34.5t193.5 -34.5t166 -101.5t118.5 -180t44 -257
t-44 -257t-118.5 -180.5t-166 -102t-193.5 -34.5t-193.5 34.5t-166 102t-118.5 180.5t-44 257zM905 1300h-614v154h614v-154z" />
    <glyph glyph-name="Obreve" unicode="&#x14e;" horiz-adv-x="1601" 
d="M317 743q0 -278 137 -435.5t347 -157.5t346.5 157.5t136.5 435.5t-136.5 435t-346.5 157t-347 -157t-137 -435zM1497 743q0 -224 -84 -398t-243 -273t-369 -99t-369.5 99t-243.5 273t-84 398t84 397.5t243.5 272t369.5 98.5t369 -98.5t243 -272t84 -397.5zM967 1815h157
q-13 -112 -94 -178t-231 -66q-146 0 -226 66t-94 178h158q18 -119 164 -119q144 0 166 119z" />
    <glyph glyph-name="obreve" unicode="&#x14f;" horiz-adv-x="1196" 
d="M274 547q0 -106 25.5 -187t71 -128.5t102.5 -71t125 -23.5q141 0 232.5 104t91.5 306q0 106 -25.5 186.5t-71 128t-102.5 71t-125 23.5q-144 0 -234 -98.5t-90 -310.5zM76 547q0 144 44 257t118.5 180t166 101.5t193.5 34.5t193.5 -34.5t166 -101.5t118.5 -180t44 -257
t-44 -257t-118.5 -180.5t-166 -102t-193.5 -34.5t-193.5 34.5t-166 102t-118.5 180.5t-44 257zM924 1485q-6 -49 -25 -91t-56 -78.5t-100 -57.5t-147 -21q-82 0 -144 21t-98.5 57.5t-55.5 78.5t-24 91h146q7 -54 50.5 -89.5t127.5 -35.5t128.5 35.5t51.5 89.5h146z" />
    <glyph glyph-name="Ohungarumlaut" unicode="&#x150;" horiz-adv-x="1601" 
d="M317 743q0 -278 137 -435.5t347 -157.5t346.5 157.5t136.5 435.5t-136.5 435t-346.5 157t-347 -157t-137 -435zM1497 743q0 -224 -84 -398t-243 -273t-369 -99t-369.5 99t-243.5 273t-84 398t84 397.5t243.5 272t369.5 98.5t369 -98.5t243 -272t84 -397.5zM1028 1815
l-305 -232h-184l225 232h264zM1370 1815l-305 -232h-184l225 232h264z" />
    <glyph glyph-name="ohungarumlaut" unicode="&#x151;" horiz-adv-x="1196" 
d="M274 547q0 -106 25.5 -187t71 -128.5t102.5 -71t125 -23.5q141 0 232.5 104t91.5 306q0 106 -25.5 186.5t-71 128t-102.5 71t-125 23.5q-144 0 -234 -98.5t-90 -310.5zM76 547q0 144 44 257t118.5 180t166 101.5t193.5 34.5t193.5 -34.5t166 -101.5t118.5 -180t44 -257
t-44 -257t-118.5 -180.5t-166 -102t-193.5 -34.5t-193.5 34.5t-166 102t-118.5 180.5t-44 257zM782 1485l-268 -238h-156l185 238h239zM1106 1485l-266 -238h-158l186 238h238z" />
    <glyph glyph-name="OE" unicode="&#x152;" horiz-adv-x="2322" 
d="M1284 743q0 139 -37.5 252.5t-103 187t-153 113t-189.5 39.5t-189.5 -39.5t-153.5 -113t-103.5 -187t-37.5 -252.5q0 -278 137 -435.5t347 -157.5t346.5 157.5t136.5 435.5zM1288 0v203q-171 -230 -489 -230q-209 0 -368 99t-243 273t-84 398q0 165 51.5 307.5t143 244
t222 159t282.5 57.5q314 0 485 -227v201h963v-180h-797v-451h750v-180h-750v-494h797v-180h-963z" />
    <glyph glyph-name="oe" unicode="&#x153;" horiz-adv-x="2007" 
d="M76 547q0 144 44 257t118.5 180t166 101.5t193.5 34.5q130 0 238.5 -55.5t175.5 -167.5q65 107 171.5 165t243.5 58q166 0 287 -83.5t177.5 -225t43.5 -315.5h-833q-1 -162 93.5 -261.5t234.5 -99.5q122 0 191.5 47.5t107.5 136.5h192q-41 -152 -167 -249t-320 -97
q-293 0 -424 217q-67 -109 -174.5 -163t-237.5 -54q-102 0 -193.5 34.5t-166 102t-118.5 180.5t-44 257zM274 547q0 -208 91 -311t233 -103q141 0 232.5 106t91.5 308q0 208 -91 311t-233 103q-68 0 -125 -23t-102.5 -70.5t-71 -129.5t-25.5 -191zM1427 963q-143 0 -230 -83
t-93 -231h635q-3 127 -86.5 220.5t-225.5 93.5z" />
    <glyph glyph-name="Racute" unicode="&#x154;" horiz-adv-x="1390" 
d="M1081 0l-321 627q-37 -2 -113 -2h-262v-625h-209v1485h471q96 0 172 -7t149 -24.5t125 -49t92.5 -78t60.5 -114.5t20 -155q0 -170 -75.5 -264.5t-219.5 -133.5l344 -659h-234zM664 1309h-279v-508h279q74 0 124.5 4t104.5 19t85.5 41.5t52 73.5t20.5 114t-20.5 114.5
t-52.5 74.5t-85 42.5t-104.5 20t-124.5 4.5zM1061 1815l-305 -232h-185l226 232h264z" />
    <glyph glyph-name="racute" unicode="&#x155;" horiz-adv-x="727" 
d="M696 1106v-199q-78 8 -104 8q-132 0 -195 -79.5t-63 -257.5v-578h-187v1102h183v-193q41 93 122 144.5t189 54.5q35 0 55 -2zM768 1485l-268 -238h-156l184 238h240z" />
    <glyph glyph-name="Rcommaaccent" unicode="&#x156;" horiz-adv-x="1390" 
d="M1081 0l-321 627q-37 -2 -113 -2h-262v-625h-209v1485h471q96 0 172 -7t149 -24.5t125 -49t92.5 -78t60.5 -114.5t20 -155q0 -170 -75.5 -264.5t-219.5 -133.5l344 -659h-234zM664 1309h-279v-508h279q74 0 124.5 4t104.5 19t85.5 41.5t52 73.5t20.5 114t-20.5 114.5
t-52.5 74.5t-85 42.5t-104.5 20t-124.5 4.5zM610 -256v182h195v-194l-90 -185h-111l80 197h-74z" />
    <glyph glyph-name="rcommaaccent" unicode="&#x157;" horiz-adv-x="727" 
d="M696 1106v-199q-78 8 -104 8q-132 0 -195 -79.5t-63 -257.5v-578h-187v1102h183v-193q41 93 122 144.5t189 54.5q35 0 55 -2zM145 -256v182h195v-194l-90 -185h-111l80 197h-74z" />
    <glyph glyph-name="Rcaron" unicode="&#x158;" horiz-adv-x="1390" 
d="M1081 0l-321 627q-37 -2 -113 -2h-262v-625h-209v1485h471q96 0 172 -7t149 -24.5t125 -49t92.5 -78t60.5 -114.5t20 -155q0 -170 -75.5 -264.5t-219.5 -133.5l344 -659h-234zM664 1309h-279v-508h279q74 0 124.5 4t104.5 19t85.5 41.5t52 73.5t20.5 114t-20.5 114.5
t-52.5 74.5t-85 42.5t-104.5 20t-124.5 4.5zM614 1583l-268 232h219l137 -115l142 115h219l-277 -232h-172z" />
    <glyph glyph-name="rcaron" unicode="&#x159;" horiz-adv-x="727" 
d="M696 1106v-199q-78 8 -104 8q-132 0 -195 -79.5t-63 -257.5v-578h-187v1102h183v-193q41 93 122 144.5t189 54.5q35 0 55 -2zM328 1247l-265 238h197l160 -111l164 111h196l-272 -238h-180z" />
    <glyph glyph-name="Sacute" unicode="&#x15a;" horiz-adv-x="1312" 
d="M115 1106q0 101 49.5 181.5t129.5 127.5t171.5 71.5t185.5 24.5q103 0 193 -23.5t166.5 -71t129.5 -127t74 -183.5h-202q-24 82 -85.5 135t-132 73.5t-151.5 20.5q-48 0 -98.5 -11t-101 -34.5t-83 -68t-32.5 -103.5q0 -172 241 -227l172 -39q56 -12 100 -24t98 -31.5
t94.5 -42t81.5 -56t67 -72.5t42.5 -92.5t16.5 -115.5q0 -85 -30.5 -157.5t-83.5 -125t-124.5 -89.5t-154.5 -55t-172 -18q-259 0 -419.5 131t-190.5 357h204q29 -153 134 -232t276 -79q161 0 253.5 69t92.5 180q0 109 -82 169t-237 94l-185 38q-64 14 -120.5 35.5t-110 55.5
t-92 77.5t-61.5 104.5t-23 133zM1051 1815l-306 -232h-184l225 232h265z" />
    <glyph glyph-name="sacute" unicode="&#x15b;" horiz-adv-x="1075" 
d="M981 780h-195q-41 183 -268 183q-62 0 -114 -13.5t-88.5 -46.5t-36.5 -80q0 -63 42.5 -96t133.5 -53l155 -31q86 -17 149.5 -39.5t120 -59.5t86 -94.5t29.5 -134.5q0 -159 -128 -250.5t-328 -91.5q-107 0 -197 32.5t-148.5 87t-93.5 122t-43 141.5h197q46 -225 289 -225
q115 0 189.5 44.5t74.5 119.5q0 77 -62 119t-170 63l-163 33q-67 14 -118 33.5t-100.5 53.5t-76.5 89.5t-27 128.5q0 142 127 224.5t322 82.5q183 0 299 -91.5t143 -250.5zM872 1485l-268 -238h-155l184 238h239z" />
    <glyph glyph-name="Scircumflex" unicode="&#x15c;" horiz-adv-x="1312" 
d="M115 1106q0 101 49.5 181.5t129.5 127.5t171.5 71.5t185.5 24.5q103 0 193 -23.5t166.5 -71t129.5 -127t74 -183.5h-202q-24 82 -85.5 135t-132 73.5t-151.5 20.5q-48 0 -98.5 -11t-101 -34.5t-83 -68t-32.5 -103.5q0 -172 241 -227l172 -39q56 -12 100 -24t98 -31.5
t94.5 -42t81.5 -56t67 -72.5t42.5 -92.5t16.5 -115.5q0 -85 -30.5 -157.5t-83.5 -125t-124.5 -89.5t-154.5 -55t-172 -18q-259 0 -419.5 131t-190.5 357h204q29 -153 134 -232t276 -79q161 0 253.5 69t92.5 180q0 109 -82 169t-237 94l-185 38q-64 14 -120.5 35.5t-110 55.5
t-92 77.5t-61.5 104.5t-23 133zM758 1815l270 -232h-219l-139 115l-140 -115h-219l277 232h170z" />
    <glyph glyph-name="scircumflex" unicode="&#x15d;" horiz-adv-x="1075" 
d="M981 780h-195q-41 183 -268 183q-62 0 -114 -13.5t-88.5 -46.5t-36.5 -80q0 -63 42.5 -96t133.5 -53l155 -31q86 -17 149.5 -39.5t120 -59.5t86 -94.5t29.5 -134.5q0 -159 -128 -250.5t-328 -91.5q-107 0 -197 32.5t-148.5 87t-93.5 122t-43 141.5h197q46 -225 289 -225
q115 0 189.5 44.5t74.5 119.5q0 77 -62 119t-170 63l-163 33q-67 14 -118 33.5t-100.5 53.5t-76.5 89.5t-27 128.5q0 142 127 224.5t322 82.5q183 0 299 -91.5t143 -250.5zM641 1485l264 -238h-196l-162 111l-162 -111h-197l271 238h182z" />
    <glyph glyph-name="Scedilla" unicode="&#x15e;" horiz-adv-x="1312" 
d="M449 -360l32 81q61 -28 119 -28q51 0 88 15.5t37 49.5q0 30 -25.5 46t-64.5 16q-51 0 -78 -19l-61 35l86 141q-219 23 -354.5 151.5t-161.5 332.5h204q29 -153 134 -232t276 -79q161 0 253.5 69t92.5 180q0 109 -82 169t-237 94l-185 38q-64 14 -120.5 35.5t-110 55.5
t-92 77.5t-61.5 104.5t-23 133q0 101 49.5 181.5t129.5 127.5t171.5 71.5t185.5 24.5q103 0 193 -23.5t166.5 -71t129.5 -127t74 -183.5h-202q-24 82 -85.5 135t-132 73.5t-151.5 20.5q-48 0 -98.5 -11t-101 -34.5t-83 -68t-32.5 -103.5q0 -172 241 -227l172 -39
q56 -12 100 -24t98 -31.5t94.5 -42t81.5 -56t67 -72.5t42.5 -92.5t16.5 -115.5q0 -138 -79 -240.5t-202.5 -152.5t-271.5 -52l-45 -71q30 6 62 6q73 0 114 -37.5t41 -101.5q0 -77 -68 -122.5t-153 -45.5q-110 0 -190 39z" />
    <glyph glyph-name="scedilla" unicode="&#x15f;" horiz-adv-x="1075" 
d="M322 -360l32 81q61 -28 119 -28q51 0 88 15.5t37 49.5q0 30 -25.5 46t-64.5 16q-51 0 -78 -19l-61 35l86 144q-174 22 -279 129.5t-119 246.5h197q46 -225 289 -225q115 0 189.5 44.5t74.5 119.5q0 77 -62 119t-170 63l-163 33q-67 14 -118 33.5t-100.5 53.5t-76.5 89.5
t-27 128.5q0 142 127 224.5t322 82.5q183 0 299 -91.5t143 -250.5h-195q-41 183 -268 183q-62 0 -114 -13.5t-88.5 -46.5t-36.5 -80q0 -63 42.5 -96t133.5 -53l155 -31q86 -17 149.5 -39.5t120 -59.5t86 -94.5t29.5 -134.5q0 -154 -121 -245t-313 -97l-45 -71q30 6 62 6
q73 0 114 -37.5t41 -101.5q0 -77 -68 -122.5t-153 -45.5q-110 0 -190 39z" />
    <glyph glyph-name="Scaron" unicode="&#x160;" horiz-adv-x="1312" 
d="M115 1106q0 101 49.5 181.5t129.5 127.5t171.5 71.5t185.5 24.5q103 0 193 -23.5t166.5 -71t129.5 -127t74 -183.5h-202q-24 82 -85.5 135t-132 73.5t-151.5 20.5q-48 0 -98.5 -11t-101 -34.5t-83 -68t-32.5 -103.5q0 -172 241 -227l172 -39q56 -12 100 -24t98 -31.5
t94.5 -42t81.5 -56t67 -72.5t42.5 -92.5t16.5 -115.5q0 -85 -30.5 -157.5t-83.5 -125t-124.5 -89.5t-154.5 -55t-172 -18q-259 0 -419.5 131t-190.5 357h204q29 -153 134 -232t276 -79q161 0 253.5 69t92.5 180q0 109 -82 169t-237 94l-185 38q-64 14 -120.5 35.5t-110 55.5
t-92 77.5t-61.5 104.5t-23 133zM580 1583l-269 232h219l138 -115l141 115h219l-276 -232h-172z" />
    <glyph glyph-name="scaron" unicode="&#x161;" horiz-adv-x="1075" 
d="M981 780h-195q-41 183 -268 183q-62 0 -114 -13.5t-88.5 -46.5t-36.5 -80q0 -63 42.5 -96t133.5 -53l155 -31q86 -17 149.5 -39.5t120 -59.5t86 -94.5t29.5 -134.5q0 -159 -128 -250.5t-328 -91.5q-107 0 -197 32.5t-148.5 87t-93.5 122t-43 141.5h197q46 -225 289 -225
q115 0 189.5 44.5t74.5 119.5q0 77 -62 119t-170 63l-163 33q-67 14 -118 33.5t-100.5 53.5t-76.5 89.5t-27 128.5q0 142 127 224.5t322 82.5q183 0 299 -91.5t143 -250.5zM453 1247l-265 238h197l160 -111l164 111h196l-272 -238h-180z" />
    <glyph glyph-name="uni0162" unicode="&#x162;" horiz-adv-x="1175" 
d="M483 0v1305h-483v180h1176v-180h-484v-1305h-209zM494 -256v182h194v-194l-90 -185h-111l80 197h-73z" />
    <glyph glyph-name="uni0163" unicode="&#x163;" horiz-adv-x="665" 
d="M201 1102v276h186v-276h209v-150h-209v-653q0 -90 19 -116.5t96 -26.5h94v-156h-135q-83 0 -130.5 10.5t-78 42t-41 83t-10.5 140.5v676h-174v150h174zM217 -256v182h195v-194l-90 -185h-111l80 197h-74z" />
    <glyph glyph-name="Tcaron" unicode="&#x164;" horiz-adv-x="1175" 
d="M483 0v1305h-483v180h1176v-180h-484v-1305h-209zM498 1583l-269 232h220l137 -115l141 115h219l-276 -232h-172z" />
    <glyph glyph-name="tcaron" unicode="&#x165;" horiz-adv-x="733" 
d="M774 1485l-143 -307h-119l61 307h201zM201 1102v276h186v-276h209v-150h-209v-653q0 -90 19 -116.5t96 -26.5h94v-156h-135q-83 0 -130.5 10.5t-78 42t-41 83t-10.5 140.5v676h-174v150h174z" />
    <glyph glyph-name="Tbar" unicode="&#x166;" horiz-adv-x="1173" 
d="M483 0v662h-309v184h309v459h-483v180h1176v-180h-484v-459h309v-184h-309v-662h-209z" />
    <glyph glyph-name="tbar" unicode="&#x167;" horiz-adv-x="708" 
d="M223 1102v276h187v-276h208v-150h-208v-170h208v-153h-208v-330q0 -90 18.5 -116.5t95.5 -26.5h94v-156h-135q-83 0 -130.5 10.5t-78 42t-41 83t-10.5 140.5v353h-174v153h174v170h-174v150h174z" />
    <glyph glyph-name="Utilde" unicode="&#x168;" horiz-adv-x="1497" 
d="M154 1485h208v-903q0 -222 88.5 -325t294.5 -103q208 0 299 111.5t91 338.5v881h208v-864q0 -332 -140 -490t-458 -158q-157 0 -266.5 33.5t-183 108.5t-107.5 195t-34 294v881zM909 1720q39 0 65 23.5t32 68.5h145q-20 -120 -84.5 -175.5t-153.5 -55.5q-52 0 -103.5 24
t-95.5 48t-79 24q-40 0 -63.5 -23.5t-28.5 -66.5h-146q20 115 82.5 172.5t153.5 57.5q42 0 82.5 -15t67 -33.5t61 -33.5t65.5 -15z" />
    <glyph glyph-name="utilde" unicode="&#x169;" horiz-adv-x="1163" 
d="M829 0v158q-112 -185 -346 -185q-352 0 -352 424v705h186v-649q0 -57 4.5 -99t19 -85.5t39 -71t67.5 -45t102 -17.5q133 0 206.5 93t73.5 268v606h187v-1102h-187zM723 1393q39 0 64.5 23.5t31.5 68.5h146q-21 -119 -85.5 -175.5t-152.5 -56.5q-41 0 -83 15.5t-70 34
t-62.5 34t-62.5 15.5q-40 0 -64 -23.5t-29 -66.5h-145q20 115 82 172t153 57q42 0 82.5 -15.5t67.5 -33.5t61.5 -33.5t65.5 -15.5z" />
    <glyph glyph-name="Umacron" unicode="&#x16a;" horiz-adv-x="1497" 
d="M154 1485h208v-903q0 -222 88.5 -325t294.5 -103q208 0 299 111.5t91 338.5v881h208v-864q0 -332 -140 -490t-458 -158q-157 0 -266.5 33.5t-183 108.5t-107.5 195t-34 294v881zM1055 1620h-615v154h615v-154z" />
    <glyph glyph-name="umacron" unicode="&#x16b;" horiz-adv-x="1163" 
d="M829 0v158q-112 -185 -346 -185q-352 0 -352 424v705h186v-649q0 -57 4.5 -99t19 -85.5t39 -71t67.5 -45t102 -17.5q133 0 206.5 93t73.5 268v606h187v-1102h-187zM887 1300h-615v154h615v-154z" />
    <glyph glyph-name="Ubreve" unicode="&#x16c;" horiz-adv-x="1497" 
d="M154 1485h208v-903q0 -222 88.5 -325t294.5 -103q208 0 299 111.5t91 338.5v881h208v-864q0 -332 -140 -490t-458 -158q-157 0 -266.5 33.5t-183 108.5t-107.5 195t-34 294v881zM913 1815h158q-13 -112 -94.5 -178t-231.5 -66q-146 0 -225.5 66t-93.5 178h158
q18 -119 164 -119q143 0 165 119z" />
    <glyph glyph-name="ubreve" unicode="&#x16d;" horiz-adv-x="1163" 
d="M829 0v158q-112 -185 -346 -185q-352 0 -352 424v705h186v-649q0 -57 4.5 -99t19 -85.5t39 -71t67.5 -45t102 -17.5q133 0 206.5 93t73.5 268v606h187v-1102h-187zM905 1485q-6 -49 -25 -91t-55.5 -78.5t-99.5 -57.5t-147 -21q-82 0 -144 21t-98.5 57.5t-55.5 78.5
t-24 91h145q7 -54 51 -89.5t128 -35.5t128.5 35.5t51.5 89.5h145z" />
    <glyph glyph-name="Uring" unicode="&#x16e;" horiz-adv-x="1497" 
d="M154 1485h208v-903q0 -222 88.5 -325t294.5 -103q208 0 299 111.5t91 338.5v881h208v-864q0 -332 -140 -490t-458 -158q-157 0 -266.5 33.5t-183 108.5t-107.5 195t-34 294v881zM748 1915q78 0 132 -49.5t54 -124.5t-53.5 -124.5t-132.5 -49.5q-77 0 -131 50t-54 124
q0 75 54.5 124.5t130.5 49.5zM748 1829q-35 0 -62 -25.5t-27 -62.5t27 -61.5t62 -24.5q36 0 62 24.5t26 61.5q0 38 -26 63t-62 25z" />
    <glyph glyph-name="uring" unicode="&#x16f;" horiz-adv-x="1163" 
d="M829 0v158q-112 -185 -346 -185q-352 0 -352 424v705h186v-649q0 -57 4.5 -99t19 -85.5t39 -71t67.5 -45t102 -17.5q133 0 206.5 93t73.5 268v606h187v-1102h-187zM580 1577q78 0 132 -49.5t54 -124.5t-53.5 -124.5t-132.5 -49.5q-77 0 -131 50t-54 124q0 75 54.5 124.5
t130.5 49.5zM580 1491q-35 0 -61.5 -25.5t-26.5 -62.5q0 -36 26.5 -61t61.5 -25q36 0 62 25t26 61q0 38 -26 63t-62 25z" />
    <glyph glyph-name="Uhungarumlaut" unicode="&#x170;" horiz-adv-x="1497" 
d="M154 1485h208v-903q0 -222 88.5 -325t294.5 -103q208 0 299 111.5t91 338.5v881h208v-864q0 -332 -140 -490t-458 -158q-157 0 -266.5 33.5t-183 108.5t-107.5 195t-34 294v881zM975 1815l-305 -232h-185l226 232h264zM1317 1815l-305 -232h-185l226 232h264z" />
    <glyph glyph-name="uhungarumlaut" unicode="&#x171;" horiz-adv-x="1163" 
d="M764 1485l-268 -238h-156l184 238h240zM1087 1485l-266 -238h-157l186 238h237zM829 0v158q-112 -185 -346 -185q-352 0 -352 424v705h186v-649q0 -57 4.5 -99t19 -85.5t39 -71t67.5 -45t102 -17.5q133 0 206.5 93t73.5 268v606h187v-1102h-187z" />
    <glyph glyph-name="Uogonek" unicode="&#x172;" horiz-adv-x="1497" 
d="M776 -385q-59 0 -108 17.5t-84 63t-35 114.5q0 52 23.5 90t78.5 77q-261 19 -379 165t-118 462v881h208v-903q0 -222 88.5 -325t294.5 -103q208 0 299 111.5t91 338.5v881h208v-864q0 -151 -24 -258t-80.5 -187.5t-149 -130t-229.5 -76.5q-55 -10 -98 -51.5t-43 -81.5
q0 -47 27 -69.5t69 -22.5q43 0 84 18v-124q-54 -23 -123 -23z" />
    <glyph glyph-name="uogonek" unicode="&#x173;" horiz-adv-x="1169" 
d="M829 0v158q-112 -185 -346 -185q-352 0 -352 424v705h186v-649q0 -57 4.5 -99t19 -85.5t39 -71t67.5 -45t102 -17.5q133 0 206.5 93t73.5 268v606h187v-1102h6q-94 -39 -147.5 -84.5t-53.5 -89.5q0 -42 32 -61t81 -19q40 0 86 12v-125q-52 -18 -131 -18q-44 0 -83.5 9
t-75.5 28.5t-57.5 57t-21.5 89.5q0 63 44 111.5t141 89.5h-7z" />
    <glyph glyph-name="Wcircumflex" unicode="&#x174;" horiz-adv-x="1888" 
d="M1069 1485l293 -1247l274 1247h219l-370 -1485h-254l-287 1221l-280 -1221h-254l-377 1485h229l287 -1247l274 1247h246zM1032 1815l271 -232h-220l-139 115l-139 -115h-219l276 232h170z" />
    <glyph glyph-name="wcircumflex" unicode="&#x175;" horiz-adv-x="1474" 
d="M422 287l219 815h193l219 -815l211 815h200l-317 -1102h-170l-244 887l-235 -887h-170l-318 1102h201zM821 1485l264 -238h-196l-162 111l-162 -111h-196l270 238h182z" />
    <glyph glyph-name="Ycircumflex" unicode="&#x176;" horiz-adv-x="1277" 
d="M0 1485h229l406 -725l414 725h229l-545 -910v-575h-209v580zM727 1815l270 -232h-219l-139 115l-139 -115h-219l276 232h170z" />
    <glyph glyph-name="ycircumflex" unicode="&#x177;" horiz-adv-x="954" 
d="M760 1102h194l-393 -1149q-26 -78 -47.5 -125.5t-50.5 -87t-67.5 -59t-90.5 -29.5t-127 -10h-96v155h76q43 0 67 2t52.5 11.5t45.5 29t34 53t32 84.5l8 23l-397 1102h207l280 -850zM571 1485l265 -238h-197l-162 111l-162 -111h-196l270 238h182z" />
    <glyph glyph-name="Ydieresis" unicode="&#x178;" horiz-adv-x="1277" 
d="M0 1485h229l406 -725l414 725h229l-545 -910v-575h-209v580zM311 1800h187v-203h-187v203zM780 1800h189v-203h-189v203z" />
    <glyph glyph-name="Zacute" unicode="&#x179;" horiz-adv-x="1296" 
d="M1204 1485v-180l-872 -1125h905v-180h-1153v180l874 1125h-806v180h1052zM1057 1815l-305 -232h-185l226 232h264z" />
    <glyph glyph-name="zacute" unicode="&#x17a;" horiz-adv-x="999" 
d="M68 0v162l637 778h-596v162h813v-162l-635 -778h647v-162h-866zM846 1485l-268 -238h-156l184 238h240z" />
    <glyph glyph-name="Zdotaccent" unicode="&#x17b;" horiz-adv-x="1296" 
d="M1204 1485v-180l-872 -1125h905v-180h-1153v180l874 1125h-806v180h1052zM592 1802h186v-203h-186v203z" />
    <glyph glyph-name="zdotaccent" unicode="&#x17c;" horiz-adv-x="999" 
d="M68 0v162l637 778h-596v162h813v-162l-635 -778h647v-162h-866zM438 1485h187v-203h-187v203z" />
    <glyph glyph-name="Zcaron" unicode="&#x17d;" horiz-adv-x="1296" 
d="M1204 1485v-180l-872 -1125h905v-180h-1153v180l874 1125h-806v180h1052zM590 1583l-268 232h219l137 -115l141 115h219l-276 -232h-172z" />
    <glyph glyph-name="zcaron" unicode="&#x17e;" horiz-adv-x="999" 
d="M68 0v162l637 778h-596v162h813v-162l-635 -778h647v-162h-866zM446 1247l-264 238h197l160 -111l163 111h197l-272 -238h-181z" />
    <glyph glyph-name="uni018F" unicode="&#x18f;" horiz-adv-x="1599" 
d="M367 1077h-220q43 143 145 243t231.5 145.5t279.5 45.5q311 0 499.5 -207t188.5 -561t-190 -562t-502 -208q-177 0 -315 67t-222.5 184.5t-122.5 276t-24 343.5h1157q-17 229 -149.5 360t-321.5 131q-165 0 -278.5 -72t-155.5 -186zM801 150q195 0 324.5 133.5
t146.5 380.5h-940q6 -243 138 -378.5t331 -135.5z" />
    <glyph glyph-name="Scommaaccent" unicode="&#x218;" horiz-adv-x="1312" 
d="M115 1106q0 101 49.5 181.5t129.5 127.5t171.5 71.5t185.5 24.5q103 0 193 -23.5t166.5 -71t129.5 -127t74 -183.5h-202q-24 82 -85.5 135t-132 73.5t-151.5 20.5q-48 0 -98.5 -11t-101 -34.5t-83 -68t-32.5 -103.5q0 -172 241 -227l172 -39q56 -12 100 -24t98 -31.5
t94.5 -42t81.5 -56t67 -72.5t42.5 -92.5t16.5 -115.5q0 -85 -30.5 -157.5t-83.5 -125t-124.5 -89.5t-154.5 -55t-172 -18q-259 0 -419.5 131t-190.5 357h204q29 -153 134 -232t276 -79q161 0 253.5 69t92.5 180q0 109 -82 169t-237 94l-185 38q-64 14 -120.5 35.5t-110 55.5
t-92 77.5t-61.5 104.5t-23 133zM559 -256v182h195v-194l-90 -185h-111l80 197h-74z" />
    <glyph glyph-name="scommaaccent" unicode="&#x219;" horiz-adv-x="1075" 
d="M981 780h-195q-41 183 -268 183q-62 0 -114 -13.5t-88.5 -46.5t-36.5 -80q0 -63 42.5 -96t133.5 -53l155 -31q86 -17 149.5 -39.5t120 -59.5t86 -94.5t29.5 -134.5q0 -159 -128 -250.5t-328 -91.5q-107 0 -197 32.5t-148.5 87t-93.5 122t-43 141.5h197q46 -225 289 -225
q115 0 189.5 44.5t74.5 119.5q0 77 -62 119t-170 63l-163 33q-67 14 -118 33.5t-100.5 53.5t-76.5 89.5t-27 128.5q0 142 127 224.5t322 82.5q183 0 299 -91.5t143 -250.5zM432 -256v182h195v-194l-90 -185h-111l80 197h-74z" />
    <glyph glyph-name="Tcommaaccent" unicode="&#x21a;" horiz-adv-x="1175" 
d="M483 0v1305h-483v180h1176v-180h-484v-1305h-209zM494 -256v182h194v-194l-90 -185h-111l80 197h-73z" />
    <glyph glyph-name="tcommaaccent" unicode="&#x21b;" horiz-adv-x="665" 
d="M201 1102v276h186v-276h209v-150h-209v-653q0 -90 19 -116.5t96 -26.5h94v-156h-135q-83 0 -130.5 10.5t-78 42t-41 83t-10.5 140.5v676h-174v150h174zM217 -256v182h195v-194l-90 -185h-111l80 197h-74z" />
    <glyph glyph-name="uni0232" unicode="&#x232;" horiz-adv-x="1277" 
d="M0 1485h229l406 -725l414 725h229l-545 -910v-575h-209v580zM946 1620h-614v154h614v-154z" />
    <glyph glyph-name="uni0233" unicode="&#x233;" horiz-adv-x="954" 
d="M760 1102h194l-393 -1149q-26 -78 -47.5 -125.5t-50.5 -87t-67.5 -59t-90.5 -29.5t-127 -10h-96v155h76q43 0 67 2t52.5 11.5t45.5 29t34 53t32 84.5l8 23l-397 1102h207l280 -850zM784 1300h-614v154h614v-154z" />
    <glyph glyph-name="dotlessj" unicode="&#x237;" horiz-adv-x="481" 
d="M147 -59v1161h187v-1157q0 -90 -10.5 -144.5t-40 -92t-79 -52t-130.5 -14.5h-94v155h53q71 0 92.5 28t21.5 116z" />
    <glyph glyph-name="uni0259" unicode="&#x259;" horiz-adv-x="1179" 
d="M578 1120q171 0 293.5 -76.5t181.5 -204.5t59 -294q0 -258 -148 -415t-380 -157q-166 0 -287 85.5t-177.5 228t-43.5 317.5h833q-1 159 -94.5 255.5t-232.5 96.5q-122 0 -191.5 -46.5t-107.5 -135.5h-193q41 152 167 249t321 97zM584 133q142 0 229.5 82t93.5 229h-635
q2 -81 37 -150t107 -115t168 -46z" />
    <glyph glyph-name="circumflex" unicode="&#x2c6;" horiz-adv-x="806" 
d="M498 1485l264 -238h-197l-162 111l-161 -111h-197l270 238h183z" />
    <glyph glyph-name="caron" unicode="&#x2c7;" horiz-adv-x="806" 
d="M309 1247l-264 238h197l159 -111l164 111h197l-273 -238h-180z" />
    <glyph glyph-name="breve" unicode="&#x2d8;" horiz-adv-x="739" 
d="M694 1485q-6 -49 -25 -91t-55.5 -78.5t-99.5 -57.5t-147 -21q-82 0 -144 21t-98.5 57.5t-55.5 78.5t-24 91h145q7 -54 51 -89.5t128 -35.5t128.5 35.5t51.5 89.5h145z" />
    <glyph glyph-name="dotaccent" unicode="&#x2d9;" horiz-adv-x="276" 
d="M45 1485h186v-203h-186v203z" />
    <glyph glyph-name="ring" unicode="&#x2da;" horiz-adv-x="460" 
d="M229 1577q78 0 132.5 -49.5t54.5 -124.5q0 -74 -54 -124t-133 -50q-77 0 -130.5 50t-53.5 124q0 75 54 124.5t130 49.5zM229 1491q-35 0 -61.5 -25.5t-26.5 -62.5q0 -36 26.5 -61t61.5 -25q36 0 62 25t26 61q0 38 -26 63t-62 25z" />
    <glyph glyph-name="ogonek" unicode="&#x2db;" horiz-adv-x="495" 
d="M229 0h187q-94 -39 -147.5 -84.5t-53.5 -89.5q0 -42 32 -61t81 -19q40 0 86 12v-125q-52 -18 -131 -18q-44 0 -83.5 9t-75.5 28.5t-57.5 57t-21.5 89.5q0 63 43.5 111.5t140.5 89.5z" />
    <glyph glyph-name="tilde" unicode="&#x2dc;" horiz-adv-x="843" 
d="M557 1393q39 0 64.5 23.5t31.5 68.5h146q-21 -119 -85.5 -175.5t-152.5 -56.5q-41 0 -83 15.5t-70 34t-62.5 34t-62.5 15.5q-40 0 -64 -23.5t-29 -66.5h-145q20 115 82.5 172t153.5 57q53 0 102 -24.5t92.5 -49t81.5 -24.5z" />
    <glyph glyph-name="hungarumlaut" unicode="&#x2dd;" horiz-adv-x="837" 
d="M469 1485l-268 -238h-156l184 238h240zM793 1485l-267 -238h-157l186 238h238z" />
    <glyph glyph-name="uni032C" unicode="&#x32c;" horiz-adv-x="806" 
d="M332 -283l-287 283h207l149 -145l154 145h207l-293 -283h-137z" />
    <glyph glyph-name="Delta" unicode="&#x394;" horiz-adv-x="1427" 
d="M-10 0l725 1489l725 -1489h-1450zM1151 176l-436 909l-436 -909h872z" />
    <glyph glyph-name="Delta" unicode="&#x2206;" horiz-adv-x="1427" 
d="M-10 0l725 1489l725 -1489h-1450zM1151 176l-436 909l-436 -909h872z" />
    <glyph glyph-name="Omega" unicode="&#x3a9;" horiz-adv-x="1626" 
d="M813 1511q113 0 219 -27t198 -81.5t160.5 -131t108 -182.5t39.5 -229q0 -191 -114 -351.5t-294 -217.5v-115h406v-176h-596v403q181 27 290 159.5t109 309.5q0 210 -149 344t-377 134t-377 -134t-149 -344q0 -177 109 -309.5t290 -159.5v-403h-596v176h406v115
q-180 57 -294 217.5t-114 351.5q0 123 39.5 229t108 182.5t160.5 131t198 81.5t219 27z" />
    <glyph glyph-name="Omega" unicode="&#x2126;" horiz-adv-x="1626" 
d="M813 1511q113 0 219 -27t198 -81.5t160.5 -131t108 -182.5t39.5 -229q0 -191 -114 -351.5t-294 -217.5v-115h406v-176h-596v403q181 27 290 159.5t109 309.5q0 210 -149 344t-377 134t-377 -134t-149 -344q0 -177 109 -309.5t290 -159.5v-403h-596v176h406v115
q-180 57 -294 217.5t-114 351.5q0 123 39.5 229t108 182.5t160.5 131t198 81.5t219 27z" />
    <glyph glyph-name="pi" unicode="&#x3c0;" horiz-adv-x="1325" 
d="M406 0h-189v926h-151v176h1179v-176h-155v-627q0 -89 20.5 -115t97.5 -26h49v-158h-90q-83 0 -131 10.5t-79.5 42t-42.5 83.5t-11 140v650h-497v-926z" />
    <glyph glyph-name="Wgrave" unicode="&#x1e80;" horiz-adv-x="1888" 
d="M1069 1485l293 -1247l274 1247h219l-370 -1485h-254l-287 1221l-280 -1221h-254l-377 1485h229l287 -1247l274 1247h246zM852 1583l-303 232h264l225 -232h-186z" />
    <glyph glyph-name="wgrave" unicode="&#x1e81;" horiz-adv-x="1474" 
d="M422 287l219 815h193l219 -815l211 815h200l-317 -1102h-170l-244 887l-235 -887h-170l-318 1102h201zM649 1247l-266 238h238l186 -238h-158z" />
    <glyph glyph-name="Wacute" unicode="&#x1e82;" horiz-adv-x="1888" 
d="M1069 1485l293 -1247l274 1247h219l-370 -1485h-254l-287 1221l-280 -1221h-254l-377 1485h229l287 -1247l274 1247h246zM1341 1815l-305 -232h-184l225 232h264z" />
    <glyph glyph-name="wacute" unicode="&#x1e83;" horiz-adv-x="1474" 
d="M422 287l219 815h193l219 -815l211 815h200l-317 -1102h-170l-244 887l-235 -887h-170l-318 1102h201zM1073 1485l-268 -238h-156l185 238h239z" />
    <glyph glyph-name="Wdieresis" unicode="&#x1e84;" horiz-adv-x="1888" 
d="M1069 1485l293 -1247l274 1247h219l-370 -1485h-254l-287 1221l-280 -1221h-254l-377 1485h229l287 -1247l274 1247h246zM616 1800h187v-203h-187v203zM1085 1800h189v-203h-189v203z" />
    <glyph glyph-name="wdieresis" unicode="&#x1e85;" horiz-adv-x="1474" 
d="M422 287l219 815h193l219 -815l211 815h200l-317 -1102h-170l-244 887l-235 -887h-170l-318 1102h201zM399 1282v203h187v-203h-187zM868 1485h189v-203h-189v203z" />
    <glyph glyph-name="uni1ECA" unicode="&#x1eca;" horiz-adv-x="561" 
d="M385 1485v-1485h-209v1485h209zM188 -156h187v-202h-187v202z" />
    <glyph glyph-name="uni1ECB" unicode="&#x1ecb;" horiz-adv-x="481" 
d="M147 1102h187v-1102h-187v1102zM147 1485h187v-225h-187v225zM147 -156h187v-202h-187v202z" />
    <glyph glyph-name="uni1ECC" unicode="&#x1ecc;" horiz-adv-x="1601" 
d="M317 743q0 -278 137 -435.5t347 -157.5t346.5 157.5t136.5 435.5t-136.5 435t-346.5 157t-347 -157t-137 -435zM1497 743q0 -224 -84 -398t-243 -273t-369 -99t-369.5 99t-243.5 273t-84 398t84 397.5t243.5 272t369.5 98.5t369 -98.5t243 -272t84 -397.5zM709 -156h186
v-202h-186v202z" />
    <glyph glyph-name="uni1ECD" unicode="&#x1ecd;" horiz-adv-x="1196" 
d="M274 547q0 -106 25.5 -187t71 -128.5t102.5 -71t125 -23.5q141 0 232.5 104t91.5 306q0 106 -25.5 186.5t-71 128t-102.5 71t-125 23.5q-144 0 -234 -98.5t-90 -310.5zM76 547q0 144 44 257t118.5 180t166 101.5t193.5 34.5t193.5 -34.5t166 -101.5t118.5 -180t44 -257
t-44 -257t-118.5 -180.5t-166 -102t-193.5 -34.5t-193.5 34.5t-166 102t-118.5 180.5t-44 257zM506 -156h186v-202h-186v202z" />
    <glyph glyph-name="uni1EE4" unicode="&#x1ee4;" horiz-adv-x="1497" 
d="M154 1485h208v-903q0 -222 88.5 -325t294.5 -103q208 0 299 111.5t91 338.5v881h208v-864q0 -332 -140 -490t-458 -158q-157 0 -266.5 33.5t-183 108.5t-107.5 195t-34 294v881zM655 -156h187v-202h-187v202z" />
    <glyph glyph-name="uni1EE5" unicode="&#x1ee5;" horiz-adv-x="1163" 
d="M829 0v158q-112 -185 -346 -185q-352 0 -352 424v705h186v-649q0 -57 4.5 -99t19 -85.5t39 -71t67.5 -45t102 -17.5q133 0 206.5 93t73.5 268v606h187v-1102h-187zM487 -156h187v-202h-187v202z" />
    <glyph glyph-name="Ygrave" unicode="&#x1ef2;" horiz-adv-x="1277" 
d="M0 1485h229l406 -725l414 725h229l-545 -910v-575h-209v580zM588 1583l-303 232h264l225 -232h-186z" />
    <glyph glyph-name="ygrave" unicode="&#x1ef3;" horiz-adv-x="954" 
d="M760 1102h194l-393 -1149q-26 -78 -47.5 -125.5t-50.5 -87t-67.5 -59t-90.5 -29.5t-127 -10h-96v155h76q43 0 67 2t52.5 11.5t45.5 29t34 53t32 84.5l8 23l-397 1102h207l280 -850zM440 1247l-266 238h238l186 -238h-158z" />
    <glyph glyph-name="endash" unicode="&#x2013;" horiz-adv-x="1048" 
d="M973 473h-895v176h895v-176z" />
    <glyph glyph-name="emdash" unicode="&#x2014;" horiz-adv-x="1480" 
d="M1415 473h-1349v176h1349v-176z" />
    <glyph glyph-name="quoteleft" unicode="&#x2018;" horiz-adv-x="499" 
d="M369 1200v-235h-236v252l125 268h119l-107 -285h99z" />
    <glyph glyph-name="quoteright" unicode="&#x2019;" horiz-adv-x="501" 
d="M133 1249v236h236v-252l-125 -268h-119l108 284h-100z" />
    <glyph glyph-name="quotesinglbase" unicode="&#x201a;" horiz-adv-x="499" 
d="M133 0v236h236v-252l-125 -269h-119l108 285h-100z" />
    <glyph glyph-name="quotedblleft" unicode="&#x201c;" horiz-adv-x="843" 
d="M369 1200v-235h-236v252l125 268h119l-107 -285h99zM711 1200v-235h-236v252l125 268h119l-107 -285h99z" />
    <glyph glyph-name="quotedblright" unicode="&#x201d;" horiz-adv-x="843" 
d="M475 1249v236h236v-252l-125 -268h-119l108 284h-100zM133 1249v236h236v-252l-125 -268h-119l108 284h-100z" />
    <glyph glyph-name="quotedblbase" unicode="&#x201e;" horiz-adv-x="864" 
d="M133 0v236h236v-252l-125 -269h-119l108 285h-100zM496 0v236h235v-252l-125 -269h-119l109 285h-100z" />
    <glyph glyph-name="dagger" unicode="&#x2020;" horiz-adv-x="1157" 
d="M672 0h-189v860h-417v176h417v449h189v-449h418v-176h-418v-860z" />
    <glyph glyph-name="daggerdbl" unicode="&#x2021;" horiz-adv-x="1157" 
d="M672 573h418v-176h-418v-397h-189v397h-417v176h417v330h-417v176h417v406h189v-406h418v-176h-418v-330z" />
    <glyph glyph-name="bullet" unicode="&#x2022;" horiz-adv-x="915" 
d="M88 571q0 150 106.5 256.5t254.5 106.5q160 0 268 -105.5t108 -257.5q0 -160 -107.5 -267t-268.5 -107q-149 0 -255 108t-106 266z" />
    <glyph glyph-name="ellipsis" unicode="&#x2026;" horiz-adv-x="1505" 
d="M870 0h-235v236h235v-236zM1372 0h-235v236h235v-236zM369 0h-236v236h236v-236z" />
    <glyph glyph-name="perthousand" unicode="&#x2030;" horiz-adv-x="2861" 
d="M2454 -14q-161 0 -247.5 118t-86.5 314t86.5 314t247.5 118q164 0 250.5 -117.5t86.5 -314.5t-86.5 -314.5t-250.5 -117.5zM2454 98q89 0 135.5 83.5t46.5 236.5q0 155 -46.5 238t-135.5 83q-86 0 -132.5 -83.5t-46.5 -237.5q0 -153 46.5 -236.5t132.5 -83.5zM410 635
q-161 0 -247.5 118t-86.5 314t86.5 314t247.5 118q164 0 251 -117.5t87 -314.5t-87 -314.5t-251 -117.5zM410 748q89 0 135.5 83t46.5 236q0 155 -46.5 238.5t-135.5 83.5q-86 0 -132.5 -84t-46.5 -238q0 -153 46.5 -236t132.5 -83zM614 0h-206l1024 1485h206zM1638 -14
q-161 0 -247 117.5t-86 314.5t86 314.5t247 117.5q164 0 251 -117.5t87 -314.5t-87 -314.5t-251 -117.5zM1638 98q89 0 136 83.5t47 236.5q0 154 -47 237.5t-136 83.5q-86 0 -132 -83.5t-46 -237.5q0 -153 46 -236.5t132 -83.5z" />
    <glyph glyph-name="guilsinglleft" unicode="&#x2039;" horiz-adv-x="591" 
d="M346 90l-326 469l326 467h201l-307 -467l307 -469h-201z" />
    <glyph glyph-name="guilsinglright" unicode="&#x203a;" horiz-adv-x="591" 
d="M571 559l-325 -469h-201l309 469l-309 467h201z" />
    <glyph glyph-name="fraction" unicode="&#x2044;" horiz-adv-x="411" 
d="M-203 0h-207l1024 1485h207z" />
    <glyph glyph-name="zero.superior" unicode="&#x2070;" horiz-adv-x="817" 
d="M410 883q-161 0 -247.5 118t-86.5 314t86.5 314t247.5 118q164 0 251 -117.5t87 -314.5t-87 -314.5t-251 -117.5zM410 995q89 0 135.5 83.5t46.5 236.5q0 155 -46.5 238t-135.5 83q-86 0 -132.5 -83.5t-46.5 -237.5q0 -153 46.5 -236.5t132.5 -83.5z" />
    <glyph glyph-name="four.superior" unicode="&#x2074;" horiz-adv-x="772" 
d="M444 1540l-249 -326h249v326zM739 1214v-124h-143v-193h-152v193h-411v118l413 525h150v-519h143z" />
    <glyph glyph-name="five.superior" unicode="&#x2075;" horiz-adv-x="743" 
d="M371 995q69 0 113 45.5t44 122.5q0 84 -48 131t-113 47q-55 0 -94.5 -23.5t-51.5 -62.5l-139 7l55 471h508v-129h-383l-26 -201q66 49 170 49q114 0 195 -76t81 -211q0 -133 -89.5 -207.5t-223.5 -74.5q-140 0 -221 78.5t-87 197.5h142q8 -75 50 -119.5t118 -44.5z" />
    <glyph glyph-name="six.superior" unicode="&#x2076;" horiz-adv-x="743" 
d="M223 1165q0 -80 43 -125t111 -45q71 0 114.5 45t43.5 125t-43.5 126t-112.5 46t-112.5 -46t-43.5 -126zM387 1636q-81 0 -127.5 -74t-46.5 -198q66 88 193 88q119 0 199.5 -78t80.5 -207q0 -128 -85.5 -206t-221.5 -78q-159 0 -238.5 110.5t-79.5 298.5q0 95 18 174
t56 143.5t104.5 101t155.5 36.5q126 0 197 -67.5t78 -161.5h-150q-4 59 -40.5 88.5t-92.5 29.5z" />
    <glyph glyph-name="seven.superior" unicode="&#x2077;" horiz-adv-x="634" 
d="M23 1604v129h608v-129q-169 -169 -249 -327.5t-93 -379.5h-166q16 390 354 707h-454z" />
    <glyph glyph-name="eight.superior" unicode="&#x2078;" horiz-adv-x="763" 
d="M383 1747q131 0 210 -59t79 -154q0 -127 -105 -191q129 -71 129 -208q0 -120 -87.5 -186t-225.5 -66t-225.5 66t-87.5 186q0 138 129 208q-51 30 -78 81.5t-27 109.5q0 95 79 154t210 59zM383 1286q-73 0 -115.5 -38t-42.5 -105q0 -70 42.5 -109t115.5 -39t116.5 39
t43.5 109q0 67 -43.5 105t-116.5 38zM524 1513q0 58 -38 90.5t-103 32.5q-64 0 -102.5 -32.5t-38.5 -90.5t39 -92.5t102 -34.5q65 0 103 34.5t38 92.5z" />
    <glyph glyph-name="nine.superior" unicode="&#x2079;" horiz-adv-x="735" 
d="M518 1464q0 81 -44 126.5t-112 45.5q-69 0 -112 -45.5t-43 -126.5q0 -80 43 -126t112 -46q67 0 111.5 46.5t44.5 125.5zM354 995q79 0 125.5 74t48.5 197q-30 -39 -80 -63.5t-114 -24.5q-119 0 -200 78t-81 208q0 127 86.5 205t222.5 78q158 0 237 -111t79 -299
q0 -94 -18.5 -173.5t-57 -143.5t-105 -100.5t-155.5 -36.5q-125 0 -194.5 67.5t-77.5 161.5h149q6 -59 42 -88t93 -29z" />
    <glyph glyph-name="plus.superior" unicode="&#x207a;" horiz-adv-x="761" 
d="M449 897h-136v242h-252v133h252v246h136v-246h251v-133h-251v-242z" />
    <glyph glyph-name="minus.superior" unicode="&#x207b;" horiz-adv-x="743" 
d="M63 1272h619v-133h-619v133z" />
    <glyph glyph-name="equal.superior" unicode="&#x207c;" horiz-adv-x="757" 
d="M672 1257h-586v134h586v-134zM672 1016h-586v133h586v-133z" />
    <glyph glyph-name="parenleft.superior" unicode="&#x207d;" horiz-adv-x="352" 
d="M49 1206q0 155 48.5 295t111.5 232h135q-62 -102 -101.5 -240t-39.5 -287q0 -150 39.5 -287t101.5 -241h-135q-63 95 -111.5 234t-48.5 294z" />
    <glyph glyph-name="parenright.superior" unicode="&#x207e;" horiz-adv-x="350" 
d="M299 1206q0 -156 -47.5 -296t-110.5 -232h-135q62 104 101.5 241t39.5 287q0 149 -39.5 287t-101.5 240h135q63 -89 110.5 -230t47.5 -297z" />
    <glyph glyph-name="n.superior" unicode="&#x207f;" horiz-adv-x="733" 
d="M248 1518v-84q50 98 182 98q215 0 215 -246v-389h-151v354q0 35 -3.5 59.5t-14 49.5t-33.5 38t-58 13q-137 0 -137 -186v-328h-150v621h150z" />
    <glyph glyph-name="zero.inferior" unicode="&#x2080;" horiz-adv-x="817" 
d="M410 -279q-161 0 -247.5 118t-86.5 315q0 196 86.5 314t247.5 118q164 0 251 -117.5t87 -314.5t-87 -315t-251 -118zM410 -166q89 0 135.5 83.5t46.5 236.5q0 155 -46.5 238t-135.5 83q-86 0 -132.5 -83.5t-46.5 -237.5q0 -153 46.5 -236.5t132.5 -83.5z" />
    <glyph glyph-name="one.inferior" unicode="&#x2081;" horiz-adv-x="475" 
d="M360 -264h-151v631h-182v102q100 2 146 20.5t75 81.5h112v-835z" />
    <glyph glyph-name="two.inferior" unicode="&#x2082;" horiz-adv-x="712" 
d="M362 586q121 0 199 -59t78 -162q0 -119 -104 -240t-310 -260h432v-129h-612v121q118 94 186 152t132.5 124t92 118.5t27.5 102.5q0 58 -34.5 89.5t-92.5 31.5q-63 0 -104.5 -42.5t-40.5 -131.5h-150q-2 128 80.5 206.5t220.5 78.5z" />
    <glyph glyph-name="three.inferior" unicode="&#x2083;" horiz-adv-x="739" 
d="M365 -166q71 0 116 37t45 100q0 140 -194 140h-49v120h41q184 0 184 125q0 58 -40 88.5t-99 30.5q-143 0 -166 -158h-144q9 124 94 196.5t226 72.5q114 0 197 -57t83 -167q0 -60 -31.5 -108.5t-84.5 -75.5q65 -27 101 -82.5t36 -120.5q0 -123 -91 -188.5t-227 -65.5
q-139 0 -222 79.5t-91 199.5h144q12 -72 54.5 -119t117.5 -47z" />
    <glyph glyph-name="four.inferior" unicode="&#x2084;" horiz-adv-x="772" 
d="M444 379l-249 -326h249v326zM739 53v-125h-143v-192h-152v192h-411v119l413 524h150v-518h143z" />
    <glyph glyph-name="five.inferior" unicode="&#x2085;" horiz-adv-x="743" 
d="M371 -166q69 0 113 45.5t44 122.5q0 84 -48 131t-113 47q-55 0 -94.5 -23.5t-51.5 -62.5l-139 6l55 471h508v-129h-383l-26 -200q66 49 170 49q114 0 195 -76t81 -211q0 -133 -89.5 -208t-223.5 -75q-140 0 -221 79t-87 198h142q8 -75 50 -119.5t118 -44.5z" />
    <glyph glyph-name="six.inferior" unicode="&#x2086;" horiz-adv-x="743" 
d="M223 4q0 -80 43 -125t111 -45q71 0 114.5 45t43.5 125t-43.5 126t-112.5 46t-112.5 -46t-43.5 -126zM387 475q-81 0 -127.5 -74t-46.5 -198q66 88 193 88q119 0 199.5 -78t80.5 -207q0 -128 -85.5 -206.5t-221.5 -78.5q-158 0 -238 111t-80 299q0 95 18 174t56 143.5
t104.5 101t155.5 36.5q126 0 197 -68t78 -162h-150q-4 59 -41 89t-92 30z" />
    <glyph glyph-name="seven.inferior" unicode="&#x2087;" horiz-adv-x="634" 
d="M23 442v129h608v-129q-169 -169 -249 -327.5t-93 -378.5h-166q16 389 354 706h-454z" />
    <glyph glyph-name="eight.inferior" unicode="&#x2088;" horiz-adv-x="763" 
d="M383 586q131 0 210 -59t79 -154q0 -127 -105 -191q129 -71 129 -209q0 -120 -87.5 -186t-225.5 -66t-225.5 66t-87.5 186q0 139 129 209q-51 30 -78 81.5t-27 109.5q0 95 79 154t210 59zM383 125q-73 0 -115.5 -38t-42.5 -105q0 -70 42.5 -109t115.5 -39t116.5 39
t43.5 109q0 67 -43.5 105t-116.5 38zM524 352q0 58 -38 90.5t-103 32.5q-64 0 -102.5 -32.5t-38.5 -90.5t39 -92.5t102 -34.5q65 0 103 34.5t38 92.5z" />
    <glyph glyph-name="nine.inferior" unicode="&#x2089;" horiz-adv-x="735" 
d="M518 303q0 81 -44 126.5t-112 45.5q-69 0 -112 -45.5t-43 -126.5q0 -80 43 -126t112 -46q67 0 111.5 46.5t44.5 125.5zM354 -166q79 0 125.5 73.5t48.5 196.5q-30 -39 -80 -63.5t-114 -24.5q-119 0 -200 78.5t-81 208.5q0 127 86.5 205t222.5 78q158 0 237 -111t79 -299
q0 -94 -18.5 -173.5t-57 -144t-105 -101t-155.5 -36.5q-124 0 -194 68t-78 162h149q6 -59 42 -88t93 -29z" />
    <glyph glyph-name="parenleft.inferior" unicode="&#x208d;" horiz-adv-x="352" 
d="M49 45q0 155 48.5 294t111.5 232h135q-62 -102 -101.5 -239.5t-39.5 -286.5q0 -150 39.5 -287t101.5 -241h-135q-63 95 -111.5 234t-48.5 294z" />
    <glyph glyph-name="parenright.inferior" unicode="&#x208e;" horiz-adv-x="350" 
d="M299 45q0 -156 -47.5 -296t-110.5 -232h-135q62 104 101.5 241t39.5 287q0 149 -39.5 286.5t-101.5 239.5h135q63 -90 110.5 -230t47.5 -296z" />
    <glyph glyph-name="Euro" unicode="&#x20ac;" horiz-adv-x="1437" 
d="M719 528h-322q40 -191 148.5 -295t265.5 -104q156 0 261 86.5t128 249.5h195q-26 -226 -187.5 -359t-390.5 -133q-252 0 -413 146t-209 409h-226l88 131h121q-2 29 -2 91q0 55 2 84h-209l88 129h138q50 258 215 403t413 145q225 0 383.5 -134t184.5 -357h-195
q-21 162 -125.5 249t-259.5 87q-156 0 -265.5 -101.5t-148.5 -291.5h576l-88 -129h-506q-2 -29 -2 -84q0 -62 2 -91h428z" />
    <glyph glyph-name="afii61289" unicode="&#x2113;" horiz-adv-x="919" 
d="M236 348v70l-148 -111l-88 131l236 180v508q0 189 76.5 287t244.5 98q136 0 212.5 -87t76.5 -228q0 -185 -96.5 -324.5t-298.5 -291.5l-27 -21v-223q0 -113 39 -156t110 -43q100 0 197 86l82 -129q-56 -52 -135.5 -86.5t-165.5 -34.5q-168 0 -241.5 88t-73.5 287z
M424 1151v-387l16 12q224 169 224 414q0 166 -119 166q-66 0 -93.5 -44.5t-27.5 -160.5z" />
    <glyph glyph-name="afii61352" unicode="&#x2116;" horiz-adv-x="2191" 
d="M2116 1139q0 -178 -89 -278.5t-239 -100.5q-151 0 -240.5 100.5t-89.5 278.5q0 176 93.5 274t236.5 98q144 0 236 -95.5t92 -276.5zM1937 1139q0 103 -39 162t-110 59q-76 0 -115 -58.5t-39 -162.5q0 -103 38.5 -163.5t115.5 -60.5q72 0 110.5 61.5t38.5 162.5zM2105 496
h-635v176h635v-176zM1370 0h-305l-680 1268v-1268h-209v1485h307l678 -1264v1264h209v-1485z" />
    <glyph glyph-name="uni2117" unicode="&#x2117;" horiz-adv-x="1689" 
d="M78 739q0 169 60.5 314t163.5 245t244.5 156.5t299.5 56.5t298.5 -56.5t243.5 -156.5t163.5 -245t60.5 -314q0 -222 -103 -398.5t-277.5 -272t-385.5 -95.5q-158 0 -299.5 56.5t-244.5 155.5t-163.5 243t-60.5 311zM229 739q0 -184 82 -328t222.5 -222t312.5 -78
q131 0 244.5 46t195 127t128 199t46.5 256q0 187 -80 332.5t-219.5 224t-314.5 78.5q-172 0 -312.5 -78.5t-222.5 -224.5t-82 -332zM860 672h-119v-312h-168v818h250q98 0 163.5 -10t118.5 -37t78 -78t25 -129q0 -109 -86.5 -180.5t-261.5 -71.5zM1040 922q0 69 -48.5 95.5
t-141.5 26.5h-109v-243h119q94 0 137 30t43 91z" />
    <glyph glyph-name="trademark" unicode="&#x2122;" horiz-adv-x="1738" 
d="M266 668v684h-256v133h674v-133h-256v-684h-162zM1294 668h-161l-218 602v-602h-161v817h252l213 -613l204 613h248v-817h-162v602z" />
    <glyph glyph-name="estimated" unicode="&#x212e;" horiz-adv-x="1187" 
d="M1020 307h82q-53 -150 -178 -242t-316 -92q-132 0 -238.5 45t-174.5 123.5t-104 182.5t-36 225q0 253 149 412t394 159q125 0 227 -46t167 -125t100.5 -181t37.5 -217h-839v-395q48 -50 140.5 -82.5t193.5 -32.5q142 0 243 70t152 196zM291 944v-328h602v324
q-47 49 -125 80t-172 31q-95 0 -175.5 -28t-129.5 -79z" />
    <glyph glyph-name="onethird" unicode="&#x2153;" horiz-adv-x="1626" 
d="M360 649h-151v631h-182v102q99 2 145.5 20.5t75.5 82.5h112v-836zM272 0h-206l1024 1485h206zM1251 98q71 0 116.5 37.5t45.5 100.5q0 139 -194 139h-50v121h41q185 0 185 125q0 58 -40.5 88t-99.5 30q-143 0 -165 -157h-144q9 124 94 196t226 72q53 0 101.5 -13
t89.5 -39t65 -70t24 -101q0 -60 -32 -109t-84 -76q66 -27 101.5 -82t35.5 -120q0 -123 -91 -188.5t-227 -65.5q-139 0 -222 79t-91 199h143q12 -72 54.5 -119t117.5 -47z" />
    <glyph glyph-name="twothirds" unicode="&#x2154;" horiz-adv-x="1863" 
d="M362 1499q121 0 199 -59t78 -162q0 -119 -104 -240t-310 -260h432v-129h-612v121q93 74 151.5 123t119 105.5t93 98.5t53.5 86.5t21 84.5q0 58 -34.5 89.5t-92.5 31.5q-63 0 -104.5 -43t-40.5 -132h-150q-2 128 80.5 206.5t220.5 78.5zM510 0h-207l1024 1485h207z
M1489 98q71 0 116.5 37.5t45.5 100.5q0 139 -195 139h-49v121h41q184 0 184 125q0 58 -40 88t-99 30q-72 0 -113.5 -41t-52.5 -116h-143q9 124 93.5 196t225.5 72q53 0 102 -13t89.5 -39t65 -70t24.5 -101q0 -60 -32 -109t-85 -76q66 -27 101.5 -82t35.5 -120
q0 -123 -90.5 -188.5t-226.5 -65.5q-139 0 -222 79t-91 199h143q12 -72 54.5 -119t117.5 -47z" />
    <glyph glyph-name="uni2155" unicode="&#x2155;" horiz-adv-x="1630" 
d="M360 649h-151v631h-182v102q99 2 145.5 20.5t75.5 82.5h112v-836zM272 0h-206l1024 1485h206zM1257 98q69 0 113.5 45.5t44.5 122.5q0 84 -48.5 131t-113.5 47q-55 0 -94 -23.5t-51 -62.5l-139 7l55 471h508v-129h-383l-27 -201q66 49 170 49q114 0 195.5 -76t81.5 -211
q0 -133 -90 -207.5t-224 -74.5q-140 0 -220.5 78.5t-86.5 197.5h142q8 -75 49.5 -119.5t117.5 -44.5z" />
    <glyph glyph-name="uni2156" unicode="&#x2156;" horiz-adv-x="1865" 
d="M362 1499q121 0 199 -59t78 -162q0 -119 -104 -240t-310 -260h432v-129h-612v121q93 74 151.5 123t119 105.5t93 98.5t53.5 86.5t21 84.5q0 58 -34.5 89.5t-92.5 31.5q-63 0 -104.5 -43t-40.5 -132h-150q-2 128 80.5 206.5t220.5 78.5zM510 0h-207l1024 1485h207z
M1495 98q69 0 113.5 45.5t44.5 122.5q0 84 -48.5 131t-113.5 47q-55 0 -94 -23.5t-51 -62.5l-140 7l56 471h507v-129h-383l-26 -201q66 49 170 49q114 0 195 -76t81 -211q0 -133 -89.5 -207.5t-223.5 -74.5q-140 0 -220.5 78.5t-86.5 197.5h141q8 -75 50 -119.5t118 -44.5z
" />
    <glyph glyph-name="uni2157" unicode="&#x2157;" horiz-adv-x="1894" 
d="M365 748q71 0 116 37t45 100q0 139 -194 139h-49v121h41q184 0 184 125q0 58 -40 88.5t-99 30.5q-143 0 -166 -158h-144q9 124 94 196t226 72q53 0 101.5 -13t89.5 -39t65 -70t24 -101q0 -60 -31.5 -108.5t-84.5 -75.5q65 -27 101 -82.5t36 -120.5q0 -123 -91 -188.5
t-227 -65.5q-139 0 -222 79t-91 199h144q11 -72 54 -118.5t118 -46.5zM537 0h-207l1024 1485h207zM1522 98q69 0 113 45.5t44 122.5q0 84 -48 131t-113 47q-55 0 -94.5 -23.5t-51.5 -62.5l-139 7l55 471h508v-129h-383l-27 -201q66 49 170 49q114 0 195.5 -76t81.5 -211
q0 -133 -89.5 -207.5t-223.5 -74.5q-140 0 -221 78.5t-87 197.5h142q8 -75 50 -119.5t118 -44.5z" />
    <glyph glyph-name="uni2158" unicode="&#x2158;" horiz-adv-x="1927" 
d="M444 1292l-249 -325h249v325zM739 967v-125h-143v-193h-152v193h-411v119l413 524h150v-518h143zM569 0h-207l1024 1485h207zM1554 98q69 0 113.5 45.5t44.5 122.5q0 84 -48.5 131t-113.5 47q-55 0 -94 -23.5t-51 -62.5l-139 7l55 471h508v-129h-383l-27 -201
q66 49 170 49q114 0 195.5 -76t81.5 -211q0 -133 -90 -207.5t-224 -74.5q-140 0 -220.5 78.5t-86.5 197.5h141q8 -75 50 -119.5t118 -44.5z" />
    <glyph glyph-name="uni2159" unicode="&#x2159;" horiz-adv-x="1630" 
d="M360 649h-151v631h-182v102q99 2 145.5 20.5t75.5 82.5h112v-836zM272 0h-206l1024 1485h206zM1110 268q0 -80 43 -125t111 -45q71 0 114 45t43 125t-43 126t-112 46t-112.5 -46t-43.5 -126zM1274 739q-81 0 -127.5 -74t-46.5 -198q66 88 192 88q119 0 200 -78t81 -207
q0 -128 -85.5 -206t-221.5 -78q-159 0 -238.5 110.5t-79.5 298.5q0 95 18 174t56 143.5t104.5 101t155.5 36.5q126 0 196.5 -67.5t77.5 -161.5h-149q-4 59 -40.5 88.5t-92.5 29.5z" />
    <glyph glyph-name="uni215A" unicode="&#x215a;" horiz-adv-x="1898" 
d="M371 748q69 0 113 45t44 122q0 84 -48 131.5t-113 47.5q-55 0 -94.5 -23.5t-51.5 -62.5l-139 6l55 471h508v-129h-383l-26 -201q66 49 170 49q114 0 195 -75.5t81 -210.5q0 -133 -89.5 -208t-223.5 -75q-140 0 -221 78.5t-87 197.5h142q8 -74 50 -118.5t118 -44.5zM541 0
h-207l1024 1485h207zM1378 268q0 -80 43 -125t111 -45q71 0 114.5 45t43.5 125t-43.5 126t-112.5 46t-112.5 -46t-43.5 -126zM1542 739q-81 0 -127.5 -74t-46.5 -198q66 88 193 88q119 0 199.5 -78t80.5 -207q0 -128 -85.5 -206t-221.5 -78q-158 0 -237.5 110.5t-79.5 298.5
q0 95 18 174t56 143.5t104 101t155 36.5q126 0 197 -67.5t78 -161.5h-150q-4 59 -40.5 88.5t-92.5 29.5z" />
    <glyph glyph-name="oneeighth" unicode="&#x215b;" horiz-adv-x="1650" 
d="M360 649h-151v631h-182v102q99 2 145.5 20.5t75.5 82.5h112v-836zM272 0h-206l1024 1485h206zM1270 850q131 0 210 -59t79 -154q0 -127 -105 -191q129 -71 129 -208q0 -120 -87.5 -186t-225.5 -66t-226 66t-88 186q0 138 129 208q-51 30 -77.5 81.5t-26.5 109.5
q0 95 79 154t210 59zM1270 389q-73 0 -115.5 -38t-42.5 -105q0 -70 42.5 -109t115.5 -39t116.5 39t43.5 109q0 67 -43.5 105t-116.5 38zM1411 616q0 58 -38 90.5t-103 32.5q-64 0 -103 -32.5t-39 -90.5t39 -92.5t103 -34.5q65 0 103 34.5t38 92.5z" />
    <glyph glyph-name="threeeighths" unicode="&#x215c;" horiz-adv-x="1916" 
d="M365 748q71 0 116 37t45 100q0 139 -194 139h-49v121h41q184 0 184 125q0 58 -40 88.5t-99 30.5q-143 0 -166 -158h-144q9 124 94 196t226 72q53 0 101.5 -13t89.5 -39t65 -70t24 -101q0 -60 -31.5 -108.5t-84.5 -75.5q65 -27 101 -82.5t36 -120.5q0 -123 -91 -188.5
t-227 -65.5q-139 0 -222 79t-91 199h144q11 -72 54 -118.5t118 -46.5zM537 0h-207l1024 1485h207zM1534 850q131 0 210 -59t79 -154q0 -127 -105 -191q129 -71 129 -208q0 -120 -87.5 -186t-225.5 -66t-225.5 66t-87.5 186q0 138 129 208q-51 30 -78 81.5t-27 109.5
q0 95 79 154t210 59zM1534 389q-73 0 -115.5 -38t-42.5 -105q0 -70 42.5 -109t115.5 -39t116.5 39t43.5 109q0 67 -43.5 105t-116.5 38zM1675 616q0 58 -38 90.5t-103 32.5q-64 0 -102.5 -32.5t-38.5 -90.5t39 -92.5t102 -34.5q65 0 103 34.5t38 92.5z" />
    <glyph glyph-name="fiveeighths" unicode="&#x215d;" horiz-adv-x="1918" 
d="M371 748q69 0 113 45t44 122q0 84 -48 131.5t-113 47.5q-55 0 -94.5 -23.5t-51.5 -62.5l-139 6l55 471h508v-129h-383l-26 -201q66 49 170 49q114 0 195 -75.5t81 -210.5q0 -133 -89.5 -208t-223.5 -75q-140 0 -221 78.5t-87 197.5h142q8 -74 50 -118.5t118 -44.5zM541 0
h-207l1024 1485h207zM1538 850q131 0 210 -59t79 -154q0 -127 -105 -191q129 -71 129 -208q0 -120 -87.5 -186t-225.5 -66t-225.5 66t-87.5 186q0 138 129 208q-51 30 -78 81.5t-27 109.5q0 95 79 154t210 59zM1538 389q-73 0 -115.5 -38t-42.5 -105q0 -70 42.5 -109
t115.5 -39t116.5 39t43.5 109q0 67 -43.5 105t-116.5 38zM1679 616q0 58 -38 90.5t-103 32.5q-64 0 -102.5 -32.5t-38.5 -90.5t39 -92.5t102 -34.5q65 0 103 34.5t38 92.5z" />
    <glyph glyph-name="seveneighths" unicode="&#x215e;" horiz-adv-x="1812" 
d="M23 1356v129h608v-129q-169 -169 -249 -327.5t-93 -379.5h-166q16 390 354 707h-454zM432 0h-207l1024 1485h207zM1430 850q131 0 209.5 -59t78.5 -154q0 -128 -104 -191q129 -71 129 -208q0 -120 -87.5 -186t-225.5 -66t-226 66t-88 186q0 138 129 208
q-51 30 -77.5 81.5t-26.5 109.5q0 95 79 154t210 59zM1430 389q-73 0 -115.5 -38t-42.5 -105q0 -70 42.5 -109t115.5 -39t116 39t43 109q0 67 -43 105t-116 38zM1571 616q0 58 -38 90.5t-103 32.5q-64 0 -103 -32.5t-39 -90.5t39 -92.5t103 -34.5q65 0 103 34.5t38 92.5z
" />
    <glyph glyph-name="uni215F" unicode="&#x215f;" horiz-adv-x="886" 
d="M360 649h-151v631h-182v102q99 2 145.5 20.5t75.5 82.5h112v-836zM272 0h-206l1024 1485h206z" />
    <glyph glyph-name="uni2190" unicode="&#x2190;" horiz-adv-x="1638" 
d="M1559 461h-1201l435 -434l-115 -113l-637 637l637 637l115 -115l-435 -432h1201v-180z" />
    <glyph glyph-name="uni2191" unicode="&#x2191;" horiz-adv-x="1638" 
d="M729 0v1200l-434 -434l-113 115l637 637l637 -637l-115 -115l-432 434v-1200h-180z" />
    <glyph glyph-name="uni2192" unicode="&#x2192;" horiz-adv-x="1638" 
d="M80 641h1200l-434 434l115 113l636 -637l-636 -637l-115 115l434 432h-1200v180z" />
    <glyph glyph-name="uni2193" unicode="&#x2193;" horiz-adv-x="1638" 
d="M909 1485v-1200l434 434l113 -115l-637 -637l-637 637l115 115l432 -434v1200h180z" />
    <glyph glyph-name="uni2196" unicode="&#x2196;" horiz-adv-x="1638" 
d="M1292 -35l-850 848v-614l-159 2v901h901v-162h-613l848 -848z" />
    <glyph glyph-name="uni2197" unicode="&#x2197;" horiz-adv-x="1638" 
d="M219 92l848 850h-614l2 160h901v-901h-162v612l-848 -848z" />
    <glyph glyph-name="uni2198" unicode="&#x2198;" horiz-adv-x="1638" 
d="M346 1137l850 -848v614l160 -2v-901h-901v162h612l-848 848z" />
    <glyph glyph-name="uni2199" unicode="&#x2199;" horiz-adv-x="1638" 
d="M1419 1010l-848 -850h615l-2 -160h-901v901h161v-612l848 848z" />
    <glyph glyph-name="uni219E" unicode="&#x219e;" horiz-adv-x="1638" 
d="M1559 461h-627l434 -432l-115 -115l-546 547h-347l435 -434l-115 -113l-637 637l637 637l115 -115l-435 -432h347l546 549l115 -115l-434 -434h627v-180z" />
    <glyph glyph-name="uni219F" unicode="&#x219f;" horiz-adv-x="1638" 
d="M729 0v627l-432 -434l-115 114l547 547v346l-434 -434l-113 115l637 637l637 -637l-115 -115l-432 434v-346l549 -547l-115 -114l-434 434v-627h-180z" />
    <glyph glyph-name="uni21A0" unicode="&#x21a0;" horiz-adv-x="1638" 
d="M100 641h627l-434 432l115 115l546 -547h346l-434 434l115 113l637 -637l-637 -637l-115 115l434 432h-346l-546 -549l-115 115l434 434h-627v180z" />
    <glyph glyph-name="uni21A1" unicode="&#x21a1;" horiz-adv-x="1638" 
d="M909 1485v-627l432 434l115 -114l-547 -547v-346l434 434l113 -115l-637 -637l-637 637l115 115l432 -434v346l-549 547l115 114l434 -434v627h180z" />
    <glyph glyph-name="uni21A2" unicode="&#x21a2;" horiz-adv-x="1638" 
d="M1067 551l524 -522l-114 -115l-547 547h-572l435 -432l-115 -115l-637 637l637 639l115 -115l-435 -434h572l547 549l114 -115z" />
    <glyph glyph-name="uni21A3" unicode="&#x21a3;" horiz-adv-x="1638" 
d="M66 29l524 522l-524 524l114 115l547 -549h571l-434 434l115 115l637 -639l-637 -637l-115 115l434 432h-571l-547 -547z" />
    <glyph glyph-name="uni21A4" unicode="&#x21a4;" horiz-adv-x="1638" 
d="M1559 0h-181v461h-1020l435 -434l-115 -113l-637 637l637 637l115 -115l-435 -432h1020v461h181v-1102z" />
    <glyph glyph-name="uni21A5" unicode="&#x21a5;" horiz-adv-x="1638" 
d="M268 0v180h461v1020l-434 -434l-113 115l637 637l637 -637l-115 -115l-432 434v-1020h461v-180h-1102z" />
    <glyph glyph-name="uni21A6" unicode="&#x21a6;" horiz-adv-x="1638" 
d="M80 1102h180v-461h1020l-434 434l115 113l636 -637l-636 -637l-115 115l434 432h-1020v-461h-180v1102z" />
    <glyph glyph-name="uni21A7" unicode="&#x21a7;" horiz-adv-x="1638" 
d="M1370 1483v-180h-461v-1020l434 434l113 -115l-637 -637l-637 637l115 115l432 -434v1020h-461v180h1102z" />
    <glyph glyph-name="uni21B0" unicode="&#x21b0;" horiz-adv-x="1638" 
d="M1518 -358h-181v819h-979l435 -434l-115 -113l-637 637l637 637l115 -115l-435 -432h1160v-999z" />
    <glyph glyph-name="uni21B1" unicode="&#x21b1;" horiz-adv-x="1638" 
d="M301 -358h-180v999h1159l-434 432l115 115l636 -637l-636 -637l-115 113l434 434h-979v-819z" />
    <glyph glyph-name="uni21B2" unicode="&#x21b2;" horiz-adv-x="1638" 
d="M1337 641v844h181v-1024h-1160l435 -432l-115 -115l-637 637l637 637l115 -113l-435 -434h979z" />
    <glyph glyph-name="uni21B3" unicode="&#x21b3;" horiz-adv-x="1638" 
d="M121 1485h180v-844h979l-434 434l115 113l636 -637l-636 -637l-115 115l434 432h-1159v1024z" />
    <glyph glyph-name="partialdiff" unicode="&#x2202;" horiz-adv-x="1173" 
d="M885 539q0 199 -87 297t-225 98q-146 0 -222.5 -103.5t-76.5 -291.5q0 -192 76 -297t223 -105q140 0 226 100.5t86 301.5zM571 -27q-232 0 -363.5 150.5t-131.5 415.5q0 257 131 408t340 151q100 0 180.5 -42t134.5 -118l2 2q-63 175 -214.5 295.5t-334.5 126.5v166
q167 -8 311.5 -81.5t245 -192t158 -279t57.5 -338.5q0 -328 -139 -496t-377 -168z" />
    <glyph glyph-name="product" unicode="&#x220f;" horiz-adv-x="1363" 
d="M334 -358h-187v1843h1070v-1843h-189v1667h-694v-1667z" />
    <glyph glyph-name="summation" unicode="&#x2211;" horiz-adv-x="1202" 
d="M66 -205l552 766l-552 770v154h1071v-176h-846l545 -748l-545 -743h846v-176h-1071v153z" />
    <glyph glyph-name="minus" unicode="&#x2212;" 
d="M139 639h1112v-176h-1112v176z" />
    <glyph glyph-name="radical" unicode="&#x221a;" horiz-adv-x="1044" 
d="M0 487l303 140l301 -711l258 1569h182l-321 -1843h-180l-332 739l-131 -59z" />
    <glyph glyph-name="infinity" unicode="&#x221e;" horiz-adv-x="1613" 
d="M1188 848q157 0 257.5 -94t100.5 -240q0 -150 -98 -244t-256 -94q-115 0 -206 55.5t-177 153.5q-186 -207 -387 -207q-158 0 -257 94t-99 242q0 147 102 240.5t266 93.5q197 0 375 -197q89 102 176.5 149.5t202.5 47.5zM430 346q72 0 133 38t137 132q-69 82 -129 123
t-135 41q-83 0 -136.5 -46t-53.5 -120q0 -70 52.5 -119t131.5 -49zM1171 680q-69 0 -127.5 -43t-125.5 -123q66 -81 129 -124.5t137 -43.5q77 0 129.5 48t52.5 120q0 70 -54 118t-141 48z" />
    <glyph glyph-name="integral" unicode="&#x222b;" horiz-adv-x="649" 
d="M229 307v658q0 153 21 261t62.5 169.5t95.5 88.5t127 27q77 0 129.5 -34t52.5 -99q0 -48 -28 -78t-77 -30q-45 0 -72.5 26.5t-27.5 67.5q0 29 8 53q-29 0 -49.5 -15.5t-31.5 -38t-17.5 -60t-8 -69t-1.5 -77.5q0 -22 3 -132.5t3 -197.5v-686q0 -191 -36 -307
t-100.5 -162.5t-164.5 -46.5q-78 0 -130.5 32.5t-52.5 98.5q0 47 28.5 77t76.5 30q45 0 72.5 -26.5t27.5 -67.5q0 -30 -8 -54q24 0 42 9.5t29 30t17.5 41t9.5 55.5t3.5 59t0.5 65q0 22 -2 133t-2 199z" />
    <glyph glyph-name="approxequal" unicode="&#x2248;" 
d="M926 776q57 0 96 38t45 104h174q-9 -137 -94 -221.5t-221 -84.5q-56 0 -123.5 22t-119 49t-113 49t-107.5 22q-58 0 -97.5 -38t-43.5 -104h-175q8 136 93.5 221t222.5 85q66 0 137 -22t121.5 -49t107.5 -49t97 -22zM926 393q57 0 96 36.5t45 102.5h174
q-9 -136 -94 -219.5t-221 -83.5q-56 0 -123.5 22t-119 49t-113 49t-107.5 22q-58 0 -97.5 -38t-43.5 -104h-175q8 135 93 219t223 84q66 0 137 -21.5t121.5 -48t107.5 -48t97 -21.5z" />
    <glyph glyph-name="notequal" unicode="&#x2260;" 
d="M436 266h-254v176h348l127 238h-475v178h572l166 307l153 -73l-127 -234h262v-178h-356l-129 -238h485v-176h-579l-185 -342l-151 76z" />
    <glyph glyph-name="lessequal" unicode="&#x2264;" 
d="M422 668l795 -250v-197l-1051 367v160l1051 376v-200zM160 0v176h1069v-176h-1069z" />
    <glyph glyph-name="greaterequal" unicode="&#x2265;" 
d="M967 668l-797 256v200l1053 -376v-160l-1053 -367v197zM1229 0h-1069v176h1069v-176z" />
    <glyph glyph-name="uni25A0" unicode="&#x25a0;" horiz-adv-x="1277" 
d="M88 0v1102h1102v-1102h-1102z" />
    <glyph glyph-name="uni25A1" unicode="&#x25a1;" horiz-adv-x="1277" 
d="M88 0v1102h1102v-1102h-1102zM268 922v-742h742v742h-742z" />
    <glyph glyph-name="lozenge" unicode="&#x25ca;" horiz-adv-x="1042" 
d="M528 1221l-299 -523l299 -522l299 522zM23 698l505 863l492 -863l-492 -862z" />
    <glyph glyph-name="uni25CB" unicode="&#x25cb;" horiz-adv-x="1232" 
d="M616 952q-176 0 -287.5 -116t-111.5 -287q0 -170 111.5 -286t287.5 -116q175 0 287.5 116t112.5 286q0 171 -112.5 287t-287.5 116zM616 1126q163 0 297 -78t208.5 -210t74.5 -289q0 -156 -74.5 -288t-208.5 -210t-297 -78t-296.5 78t-208 210t-74.5 288q0 157 74.5 289
t208 210t296.5 78z" />
    <glyph glyph-name="uni25CF" unicode="&#x25cf;" horiz-adv-x="1232" 
d="M616 -27q-163 0 -296.5 78t-208 210t-74.5 288q0 157 74.5 289t208 210t296.5 78t297 -78t208.5 -210t74.5 -289q0 -156 -74.5 -288t-208.5 -210t-297 -78z" />
    <glyph glyph-name="fi" unicode="&#xfb01;" horiz-adv-x="1122" 
d="M788 1102h187v-1102h-187v1102zM788 1485h187v-225h-187v225zM195 1102v80q0 91 11 145t44 91.5t90 52t152 14.5h96v-156h-92q-73 0 -94 -25t-21 -112v-90h207v-150h-207v-952h-186v952h-154v150h154z" />
    <glyph glyph-name="fl" unicode="&#xfb02;" horiz-adv-x="1122" 
d="M195 1102v80q0 91 11 145t44 91.5t90 52t152 14.5h96v-156h-92q-73 0 -94 -25t-21 -112v-90h207v-150h-207v-952h-186v952h-154v150h154zM975 1485v-1485h-187v1485h187z" />
    <glyph glyph-name="CR" horiz-adv-x="485" 
 />
    <glyph glyph-name="apple" horiz-adv-x="915" 
d="M88 571q0 150 106.5 256.5t254.5 106.5q160 0 268 -105.5t108 -257.5q0 -160 -107.5 -267t-268.5 -107q-149 0 -255 108t-106 266z" />
    <glyph glyph-name="dot" horiz-adv-x="481" 
d="M147 1485h187v-225h-187v225z" />
    <glyph glyph-name="dotaccent.low" horiz-adv-x="276" 
d="M45 -156h186v-202h-186v202z" />
    <glyph glyph-name="commaaccent" horiz-adv-x="290" 
d="M51 -256v182h195v-194l-90 -185h-111l80 197h-74z" />
    <glyph glyph-name="caron.slovak" horiz-adv-x="352" 
d="M307 1485l-143 -348h-119l61 348h201z" />
    <glyph glyph-name="zero.slashed" horiz-adv-x="1353" 
d="M1253 743q0 -239 -61 -409t-191.5 -265.5t-324.5 -95.5q-146 0 -256.5 54t-181 155t-105.5 241.5t-35 319.5q0 238 61 407.5t192 265t325 95.5q146 0 256.5 -53.5t180.5 -154.5t105 -241.5t35 -318.5zM297 743v-69l739 293q-33 194 -125.5 291.5t-234.5 97.5
q-179 0 -279 -155t-100 -458zM1055 743q0 40 -2 60l-738 -291q33 -190 126.5 -286.5t234.5 -96.5q179 0 279 155t100 459z" />
    <glyph glyph-name="one.pof" horiz-adv-x="686" 
d="M510 0h-188v1026h-322v135q67 2 111 6.5t87.5 15t73.5 29.5t57 49.5t50 75.5h131v-1337z" />
    <glyph glyph-name="two.pof" horiz-adv-x="1136" 
d="M586 1360q199 0 323.5 -95.5t124.5 -263.5q0 -85 -38.5 -171.5t-98.5 -161t-155.5 -160.5t-187 -157.5t-215.5 -164.5q-11 -8 -17 -12h749v-174h-1010v168q136 98 228.5 167.5t188.5 147.5t155.5 138t109 123.5t71.5 121.5t22 115q0 100 -67.5 157.5t-186.5 57.5
q-58 0 -108 -15.5t-92.5 -48t-68 -91t-26.5 -136.5l-191 2q-3 202 132.5 327.5t357.5 125.5z" />
    <glyph glyph-name="three.pof" horiz-adv-x="1136" 
d="M537 139q140 0 224.5 62t84.5 174q0 66 -30 113.5t-85.5 75t-125 40t-156.5 12.5h-33v168h26q367 0 367 213q0 96 -74.5 147.5t-189.5 51.5q-135 0 -212 -67.5t-91 -182.5l-189 17q15 178 147.5 287.5t348.5 109.5q73 0 139 -11.5t125 -38.5t102 -66t68 -98t25 -132
q0 -103 -59.5 -182.5t-166.5 -122.5q262 -80 262 -332q0 -97 -42.5 -175t-114 -127t-162 -74.5t-190.5 -25.5q-119 0 -213.5 34t-154 92.5t-93 130.5t-41.5 155l190 19q14 -122 94 -194.5t220 -72.5z" />
    <glyph glyph-name="four.pof" horiz-adv-x="1159" 
d="M705 1071l-488 -567h488v567zM1147 504v-178h-256v-326h-186v326h-695v174l695 835h186v-831h256z" />
    <glyph glyph-name="five.pof" horiz-adv-x="1155" 
d="M578 139q132 0 219.5 78.5t87.5 220.5q0 75 -27 134t-72.5 93.5t-99.5 52t-113 17.5q-96 0 -168.5 -40.5t-97.5 -94.5l-182 8l90 727h811v-178h-659l-50 -348q113 90 304 90q92 0 175 -30.5t146.5 -87.5t101 -145.5t37.5 -197.5t-41.5 -198.5t-112 -146.5t-161 -87.5
t-191.5 -30.5q-117 0 -210 34.5t-151.5 93.5t-92.5 130t-45 152l190 18q20 -123 96.5 -193.5t215.5 -70.5z" />
    <glyph glyph-name="six.pof" horiz-adv-x="1196" 
d="M311 430q0 -133 81 -212t218 -79q133 0 216 80t83 211q0 129 -82.5 210t-214.5 81q-133 0 -217 -81t-84 -210zM627 1196q-156 0 -243 -127t-93 -350q51 76 142.5 123t219.5 47q197 0 326 -126.5t129 -328.5q0 -197 -137.5 -328t-358.5 -131q-258 0 -386 170.5t-128 479.5
q0 118 17.5 222.5t59 199.5t103.5 163.5t156.5 109t212.5 40.5q100 0 181 -29.5t132.5 -79.5t81.5 -109t41 -126l-198 -2q-17 87 -84.5 134.5t-173.5 47.5z" />
    <glyph glyph-name="seven.pof" horiz-adv-x="997" 
d="M23 1157v178h976v-174q-270 -230 -418.5 -513t-172.5 -648h-222q44 683 598 1157h-761z" />
    <glyph glyph-name="eight.pof" horiz-adv-x="1204" 
d="M602 1360q213 0 341 -97t128 -247q0 -92 -47 -172.5t-145 -130.5q235 -101 235 -336q0 -126 -68 -218t-183 -138t-261 -46q-225 0 -369.5 107t-144.5 295q0 103 55 192.5t179 143.5q-96 48 -142.5 129.5t-46.5 173.5q0 150 128 247t341 97zM602 627q-145 0 -230 -67.5
t-85 -178.5q0 -112 84.5 -177t230.5 -65q144 0 230 65t86 177q0 110 -87 178t-229 68zM883 993q0 94 -76 148.5t-205 54.5t-207 -54.5t-78 -148.5t79 -154.5t206 -60.5q126 0 203.5 60t77.5 155z" />
    <glyph glyph-name="nine.pof" horiz-adv-x="1193" 
d="M883 905q0 132 -81.5 211.5t-215.5 79.5t-217.5 -80t-83.5 -211q0 -129 83.5 -210t215.5 -81q133 0 216 81t83 210zM565 139q157 0 245.5 126.5t94.5 348.5q-51 -76 -142.5 -122t-219.5 -46q-197 0 -326 125.5t-129 327.5q0 196 137 328.5t357 132.5q259 0 386.5 -169.5
t127.5 -477.5q0 -119 -17.5 -224t-58 -201t-102 -164t-155.5 -108.5t-212 -40.5q-100 0 -181.5 29.5t-133 79.5t-83 109t-42.5 126l200 3q15 -88 82.5 -135.5t171.5 -47.5z" />
    <glyph glyph-name="zero.pof" horiz-adv-x="1271" 
d="M635 -25q-182 0 -306.5 88t-182.5 242t-58 367q0 324 137 506t410 182t411 -182t138 -506q0 -213 -58.5 -367t-183.5 -242t-307 -88zM635 139q165 0 258.5 135.5t93.5 397.5q0 261 -93 392.5t-259 131.5q-165 0 -256.5 -131.5t-91.5 -392.5q0 -262 91.5 -397.5
t256.5 -135.5z" />
    <glyph glyph-name="zero.slashed.pof" horiz-adv-x="1271" 
d="M635 -25q-182 0 -306.5 88t-182.5 242t-58 367q0 324 137 506t410 182t411 -182t138 -506q0 -213 -58.5 -367t-183.5 -242t-307 -88zM635 139q165 0 258.5 135.5t93.5 397.5q0 33 -2 49l-678 -266q33 -156 117.5 -236t210.5 -80zM287 672v-56l680 269q-35 156 -120 233.5
t-212 77.5q-165 0 -256.5 -131.5t-91.5 -392.5z" />
    <glyph glyph-name="one.tlf" 
d="M809 172h354v-172h-938v172h398v969h-396v129q94 2 157 10t123.5 28.5t102.5 59t72 98.5h127v-1294z" />
    <glyph glyph-name="two.tlf" 
d="M715 1511q211 0 341 -103t130 -286q0 -100 -42 -203t-109 -192.5t-172.5 -189.5t-208.5 -181.5t-242 -181.5h815v-174h-1069v168q211 156 353.5 274t256 236t167.5 221t54 199q0 117 -74 187.5t-204 70.5q-63 0 -117.5 -18t-100.5 -56t-73.5 -104.5t-28.5 -155.5h-192
q-3 221 138.5 355t377.5 134z" />
    <glyph glyph-name="three.tlf" 
d="M692 129q151 0 243.5 76t92.5 211q0 62 -22 111t-60 80.5t-93 52.5t-117 29.5t-136 8.5h-31v170h25q198 0 296.5 59t98.5 187q0 115 -82 178.5t-207 63.5q-144 0 -227.5 -79t-95.5 -210h-193q18 201 155 322.5t366 121.5q100 0 184.5 -21t152 -64t106 -117.5t38.5 -173.5
q0 -115 -63 -206t-179 -138q283 -90 283 -373q0 -109 -44 -195.5t-119 -140t-170.5 -81.5t-203.5 -28q-126 0 -225.5 37.5t-162 102.5t-97.5 147t-43 178h192q16 -142 101.5 -225.5t236.5 -83.5z" />
    <glyph glyph-name="four.tlf" 
d="M831 1229l-530 -686h530v686zM1292 543v-176h-272v-367h-189v367h-737v176l735 942h191v-942h272z" />
    <glyph glyph-name="five.tlf" 
d="M692 129q140 0 236 96.5t96 261.5q0 89 -29 158.5t-77.5 111t-106.5 62.5t-121 21q-106 0 -182 -50t-105 -114l-186 10l96 799h852v-174h-700l-51 -422q115 112 319 112q98 0 186 -34.5t155.5 -98t107 -162t39.5 -217.5q0 -123 -43.5 -223t-117.5 -163t-168.5 -96.5
t-199.5 -33.5q-125 0 -223 37t-160 102t-98 144.5t-47 173.5h192q47 -301 336 -301z" />
    <glyph glyph-name="six.tlf" 
d="M377 475q0 -155 88 -250.5t235 -95.5q143 0 234.5 97t91.5 249q0 153 -91 252.5t-233 99.5q-145 0 -235 -99t-90 -253zM719 1356q-168 0 -262.5 -155t-102.5 -419q55 94 153 150.5t238 56.5q208 0 344 -141.5t136 -362.5q0 -138 -63.5 -254.5t-184.5 -187t-275 -70.5
q-540 0 -540 717q0 131 18.5 247t62 223t108.5 183.5t165 122t225 45.5q105 0 189.5 -31t138.5 -84t86.5 -117t44.5 -138h-203q-19 101 -92 158t-186 57z" />
    <glyph glyph-name="seven.tlf" 
d="M178 1311v174h1028v-174q-277 -224 -439.5 -560.5t-188.5 -750.5h-226q24 394 190.5 731.5t446.5 579.5h-811z" />
    <glyph glyph-name="eight.tlf" 
d="M694 1511q224 0 360 -106t136 -272q0 -64 -20 -125t-67.5 -120t-117.5 -97q69 -28 120 -71.5t78 -94.5t39.5 -102t12.5 -105q0 -138 -72 -240t-193.5 -153.5t-275.5 -51.5q-155 0 -276.5 51.5t-193.5 153.5t-72 240q0 54 12.5 105t39.5 102t78 94.5t121 71.5
q-103 56 -153.5 149t-50.5 193q0 167 134.5 272.5t360.5 105.5zM694 713q-157 0 -250.5 -81.5t-93.5 -213.5q0 -131 93 -210t251 -79q156 0 250 79t94 210t-94 213t-250 82zM1001 1110q0 110 -84.5 178t-222.5 68q-139 0 -224 -68t-85 -178q0 -114 85.5 -187t223.5 -73
q137 0 222 73t85 187z" />
    <glyph glyph-name="nine.tlf" 
d="M1008 1010q0 155 -87.5 250.5t-234.5 95.5q-144 0 -235 -96.5t-91 -249.5t90 -252t234 -99q145 0 234.5 98.5t89.5 252.5zM666 129q168 0 263 154.5t103 418.5q-55 -94 -154 -150t-239 -56q-207 0 -342 141t-135 364q0 138 63.5 253.5t184 186t274.5 70.5q541 0 541 -716
q0 -131 -19 -247.5t-62.5 -223t-109 -183.5t-165.5 -122.5t-224 -45.5q-105 0 -189.5 31t-138.5 84.5t-86.5 117.5t-44.5 138h203q19 -101 91.5 -158t185.5 -57z" />
    <glyph glyph-name="zero.tlf" 
d="M1071 743q0 303 -100 458t-279 155t-279 -155t-100 -458q0 -304 100 -459t279 -155t279 155t100 459zM1270 743q0 -179 -35 -319.5t-105.5 -241.5t-181 -155t-256.5 -54q-194 0 -324.5 95.5t-191.5 265.5t-61 409q0 178 35 318.5t105 241.5t180.5 154.5t256.5 53.5
q194 0 325 -95.5t192 -265t61 -407.5z" />
    <glyph glyph-name="zero.slashed.tlf" 
d="M1270 743q0 -179 -35 -319.5t-105.5 -241.5t-181 -155t-256.5 -54q-194 0 -324.5 95.5t-191.5 265.5t-61 409q0 178 35 318.5t105 241.5t180.5 154.5t256.5 53.5q194 0 325 -95.5t192 -265t61 -407.5zM313 743v-69l740 293q-33 194 -126 291.5t-235 97.5
q-179 0 -279 -155t-100 -458zM1071 743q0 40 -2 60l-737 -291q33 -190 126 -286.5t234 -96.5q179 0 279 155t100 459z" />
    <glyph glyph-name="one.case" horiz-adv-x="770" 
d="M571 0h-209v1145h-337v147q88 2 142.5 9.5t105.5 27.5t86 57.5t65 98.5h147v-1485z" />
    <glyph glyph-name="two.case" horiz-adv-x="1212" 
d="M618 1511q213 0 345.5 -104.5t132.5 -296.5q0 -68 -21.5 -138t-55.5 -132.5t-92 -133t-115 -129t-141.5 -131.5t-154 -129t-168.5 -133h787v-184h-1074v184q141 107 240 185.5t198.5 164t163.5 153.5t115.5 138.5t75 134.5t23.5 127q0 110 -71 177t-194 67
q-59 0 -111 -18.5t-95.5 -56t-69.5 -102t-27 -148.5h-213q-3 224 138 364.5t384 140.5z" />
    <glyph glyph-name="three.case" horiz-adv-x="1218" 
d="M586 154q143 0 233 71t90 193q0 96 -57.5 158t-147.5 87t-212 25h-37v186h30q383 0 383 238q0 105 -78 162t-198 57q-138 0 -224 -75t-98 -193h-213q21 203 165.5 325.5t377.5 122.5q78 0 147.5 -13.5t132.5 -43t108.5 -73t72 -108.5t26.5 -145q0 -111 -61.5 -200
t-171.5 -135q272 -93 272 -371q0 -87 -29 -160.5t-80 -126t-120 -89.5t-149 -55t-166 -18q-125 0 -225 39t-163.5 105.5t-100.5 149.5t-46 177h209q19 -127 102.5 -208.5t227.5 -81.5z" />
    <glyph glyph-name="four.case" horiz-adv-x="1296" 
d="M772 1200l-506 -635h506v635zM1251 565v-184h-268v-381h-211v381h-737v180l737 924h211v-920h268z" />
    <glyph glyph-name="five.case" horiz-adv-x="1253" 
d="M625 154q136 0 225.5 88.5t89.5 244.5q0 82 -27.5 147t-73 104.5t-101.5 60t-117 20.5q-101 0 -176 -45t-103 -104l-203 8l97 807h866v-185h-696l-52 -401q118 100 318 100q98 0 185.5 -34t155.5 -97t108 -161.5t40 -217.5q0 -122 -44 -221t-118.5 -162.5t-171 -98
t-204.5 -34.5q-125 0 -224.5 38.5t-162.5 105.5t-99 148t-47 175h207q23 -132 103 -209t225 -77z" />
    <glyph glyph-name="six.case" horiz-adv-x="1273" 
d="M334 475q0 -143 85 -232t224 -89q137 0 225 89.5t88 231.5q0 143 -87.5 234.5t-223.5 91.5q-139 0 -225 -91.5t-86 -234.5zM662 1331q-161 0 -253 -143t-100 -387q56 84 152.5 134t228.5 50q208 0 346 -140.5t138 -363.5q0 -140 -65 -255.5t-186.5 -184t-277.5 -68.5
q-184 0 -308 90t-181.5 249.5t-57.5 383.5q0 130 19 245.5t63 221.5t110 182t166.5 121t225.5 45q87 0 160.5 -22t125 -58.5t90.5 -86.5t60.5 -104t30.5 -112h-219q-17 96 -88.5 149.5t-179.5 53.5z" />
    <glyph glyph-name="seven.case" horiz-adv-x="1064" 
d="M23 1300v185h1042v-185q-292 -240 -444.5 -561.5t-180.5 -738.5h-243q23 390 190 722.5t453 577.5h-817z" />
    <glyph glyph-name="eight.case" horiz-adv-x="1288" 
d="M643 1511q226 0 363 -107t137 -271q0 -100 -49 -191.5t-150 -146.5q89 -40 146.5 -104.5t78.5 -130t21 -138.5q0 -137 -73 -240t-196.5 -156t-277.5 -53q-155 0 -278 53t-195 156t-72 240q0 54 12.5 104.5t39.5 100.5t76 94t116 74q-98 52 -147.5 144t-49.5 191
q0 166 136 273.5t362 107.5zM643 700q-148 0 -237 -76t-89 -198t89 -197t237 -75q150 0 239 75t89 197q0 123 -89.5 198.5t-238.5 75.5zM936 1108q0 101 -80.5 162t-212.5 61t-211.5 -61t-79.5 -162q0 -104 80.5 -173t210.5 -69t211.5 69t81.5 173z" />
    <glyph glyph-name="nine.case" horiz-adv-x="1263" 
d="M930 1010q0 145 -85.5 233t-226.5 88q-137 0 -224 -88.5t-87 -232.5q0 -142 86.5 -234t222.5 -92q139 0 226.5 92t87.5 234zM602 154q160 0 251 143t99 387q-57 -83 -151.5 -132.5t-225.5 -49.5q-211 0 -349 140t-138 362q0 105 38 197.5t105 161t166.5 108.5t216.5 40
q141 0 246.5 -49.5t171.5 -143.5t98.5 -224t32.5 -297q0 -131 -18.5 -247.5t-61.5 -223.5t-108 -184t-165 -123t-226 -46q-107 0 -194 32.5t-142.5 87.5t-88.5 120.5t-44 138.5h217q17 -94 88.5 -146t181.5 -52z" />
    <glyph glyph-name="zero.case" horiz-adv-x="1363" 
d="M680 -27q-193 0 -325.5 99.5t-194.5 271t-62 404.5t62 402t194.5 265t325.5 96q146 0 258 -54.5t183 -155.5t107 -240t36 -313q0 -173 -36 -314t-106.5 -244.5t-183 -160t-258.5 -56.5zM680 154q171 0 269 154t98 440q0 287 -97 435t-270 148q-171 0 -266 -147.5
t-95 -435.5q0 -287 95.5 -440.5t265.5 -153.5z" />
    <glyph glyph-name="zero.slashed.case" horiz-adv-x="1363" 
d="M680 -27q-193 0 -325.5 99.5t-194.5 271t-62 404.5t62 402t194.5 265t325.5 96q146 0 258 -54.5t183 -155.5t107 -240t36 -313q0 -173 -36 -314t-106.5 -244.5t-183 -160t-258.5 -56.5zM319 748v-66l709 279q-32 183 -122 276.5t-226 93.5q-171 0 -266 -147.5t-95 -435.5
zM680 154q171 0 269 154t98 440q0 25 -3 49l-706 -279q33 -178 121.5 -271t220.5 -93z" />
    <glyph glyph-name="a.superior" horiz-adv-x="706" 
d="M494 983q-27 -51 -85.5 -75.5t-121.5 -24.5q-106 0 -167 49.5t-61 130.5q0 59 32.5 101t94 65.5t128.5 35.5t159 19v27q0 119 -131 119q-48 0 -82 -27.5t-37 -79.5h-145q6 95 80.5 155t195.5 60q123 0 196.5 -60.5t72.5 -203.5q-5 -118 -5 -182q4 -131 13 -195h-135
q-2 37 -2 86zM307 995q86 0 126 43.5t40 114.5v25q-150 -15 -204 -37.5t-54 -71.5q0 -34 27 -54t65 -20z" />
    <glyph glyph-name="b.superior" horiz-adv-x="753" 
d="M248 1733v-293q61 92 178 92t192.5 -89t75.5 -235t-75.5 -235.5t-192.5 -89.5t-178 92v-78h-150v836h150zM242 1208q0 -99 42 -153t111 -54q66 0 106 56.5t40 150.5q0 93 -40 149t-106 56q-70 0 -111.5 -53t-41.5 -152z" />
    <glyph glyph-name="c.superior" horiz-adv-x="696" 
d="M360 1532q105 0 183.5 -59.5t97.5 -169.5h-143q-8 48 -44.5 77t-95.5 29q-67 0 -108 -50.5t-41 -152.5t41.5 -152t107.5 -50q122 0 144 110h143q-22 -113 -103 -172t-186 -59q-136 0 -217.5 91.5t-81.5 231.5q0 142 82 234t221 92z" />
    <glyph glyph-name="d.superior" horiz-adv-x="751" 
d="M504 1733h149v-836h-149v78q-58 -92 -178 -92q-117 0 -193 89.5t-76 235.5t76 235t193 89q120 0 178 -92v293zM356 1001q68 0 111 54.5t43 152.5t-43 151.5t-111 53.5q-67 0 -106 -55.5t-39 -149.5t39 -150.5t106 -56.5z" />
    <glyph glyph-name="e.superior" horiz-adv-x="714" 
d="M57 1214q0 138 83.5 228t219.5 90q144 0 224.5 -101.5t72.5 -265.5h-450q3 -69 47 -115t111 -46q105 0 141 81h143q-25 -84 -94 -143t-184 -59q-147 0 -230.5 96t-83.5 235zM360 1419q-57 0 -103.5 -38t-49.5 -111h299q-3 71 -45.5 110t-100.5 39z" />
    <glyph glyph-name="f.superior" horiz-adv-x="417" 
d="M115 1518v34q0 109 49.5 145t171.5 36h53v-111h-35q-55 0 -71.5 -14.5t-16.5 -63.5v-26h123v-105h-123v-516h-151v516h-86v105h86z" />
    <glyph glyph-name="g.superior" horiz-adv-x="749" 
d="M508 1518h149v-566q0 -143 -75 -215q-73 -67 -228 -67q-110 0 -183 46t-87 144h145q9 -42 39 -59t90 -17q85 0 125 50q25 36 25 88v77q-58 -92 -180 -92q-117 0 -194 87t-77 227q0 142 76.5 226.5t194.5 84.5q122 0 180 -92v78zM514 1221q0 95 -43 144.5t-113 49.5
q-66 0 -106.5 -52.5t-40.5 -141.5q0 -90 40.5 -143.5t106.5 -53.5q70 0 113 50.5t43 146.5z" />
    <glyph glyph-name="h.superior" horiz-adv-x="733" 
d="M248 1733v-299q50 98 182 98q215 0 215 -246v-389h-151v354q0 35 -3.5 59.5t-14 49.5t-33.5 38t-58 13q-137 0 -137 -186v-328h-150v836h150z" />
    <glyph glyph-name="i.superior" horiz-adv-x="346" 
d="M98 1518h150v-621h-150v621zM98 1733h150v-144h-150v144z" />
    <glyph glyph-name="j.superior" horiz-adv-x="348" 
d="M98 889v629h150v-621q0 -123 -39.5 -163t-153.5 -40h-43v115h25q41 0 51 14t10 66zM98 1733h150v-144h-150v144z" />
    <glyph glyph-name="k.superior" horiz-adv-x="681" 
d="M98 1733h150v-453l221 238h178l-223 -238l240 -383h-175l-165 274l-76 -79v-195h-150v836z" />
    <glyph glyph-name="l.superior" horiz-adv-x="346" 
d="M248 1733v-836h-150v836h150z" />
    <glyph glyph-name="m.superior" horiz-adv-x="1099" 
d="M98 897v621h150v-70q53 84 174 84q125 0 178 -96q68 96 205 96q106 0 160 -64q47 -56 47 -180v-391h-150v363q0 83 -22 116q-24 35 -84 35q-38 0 -63.5 -14.5t-38.5 -41.5t-18 -57.5t-5 -70.5v-330h-152v363q0 85 -22 116q-24 35 -82 35q-73 0 -100 -49.5t-27 -134.5
v-330h-150z" />
    <glyph glyph-name="o.superior" horiz-adv-x="727" 
d="M365 1001q71 0 112 52.5t41 152.5q0 99 -41.5 153t-111.5 54q-68 0 -110 -55t-42 -152q0 -98 42 -151.5t110 -53.5zM365 883q-82 0 -149.5 33t-112 108t-44.5 182q0 158 89 242t217 84q129 0 217 -84t88 -242t-87.5 -240.5t-217.5 -82.5z" />
    <glyph glyph-name="p.superior" horiz-adv-x="753" 
d="M248 1518v-78q61 92 178 92t192.5 -89t75.5 -235t-75.5 -235.5t-192.5 -89.5t-178 92v-281h-150v824h150zM242 1208q0 -99 42 -153t111 -54q66 0 106 56.5t40 150.5q0 93 -40 149t-106 56q-70 0 -111.5 -53t-41.5 -152z" />
    <glyph glyph-name="q.superior" horiz-adv-x="751" 
d="M504 1440v78h149v-824h-149v281q-58 -92 -178 -92q-117 0 -193 89.5t-76 235.5t76 235t193 89q120 0 178 -92zM510 1208q0 98 -43 151.5t-111 53.5q-67 0 -106 -55.5t-39 -149.5t39 -150.5t106 -56.5q68 0 111 54.5t43 152.5z" />
    <glyph glyph-name="r.superior" horiz-adv-x="473" 
d="M449 1516v-150q-46 4 -68 4q-68 0 -100.5 -31.5t-32.5 -115.5v-326h-150v621h148v-113q56 113 166 113q5 0 18.5 -1t18.5 -1z" />
    <glyph glyph-name="s.superior" horiz-adv-x="649" 
d="M334 883q-118 0 -193 55.5t-84 148.5h144q6 -45 41.5 -70.5t97.5 -25.5q55 0 87 20.5t32 55.5q0 57 -103 80l-94 20q-93 19 -141.5 61t-48.5 124q0 80 74 130t180 50q100 0 176 -46.5t94 -139.5h-135q-20 75 -144 75q-46 0 -77 -17.5t-31 -43.5q0 -56 86 -74l84 -18
q55 -12 90 -24.5t68 -33t49 -52t16 -75.5q0 -94 -77.5 -147t-190.5 -53z" />
    <glyph glyph-name="t.superior" horiz-adv-x="446" 
d="M117 1518v165h149v-165h127v-105h-127v-328q0 -45 16.5 -61t61.5 -16h47v-111h-110q-100 0 -132 34t-32 132v350h-90v105h90z" />
    <glyph glyph-name="u.superior" horiz-adv-x="729" 
d="M481 897v80q-58 -96 -180 -96q-109 0 -166 69q-45 61 -45 176v392h150v-367q0 -80 20 -111q27 -41 88 -41q133 0 133 193v326h150v-621h-150z" />
    <glyph glyph-name="v.superior" horiz-adv-x="632" 
d="M188 1518l134 -431l133 431h155l-219 -621h-143l-223 621h163z" />
    <glyph glyph-name="w.superior" horiz-adv-x="890" 
d="M268 1083l99 435h155l101 -435l79 435h164l-159 -621h-144l-117 444l-118 -444h-144l-159 621h161z" />
    <glyph glyph-name="x.superior" horiz-adv-x="667" 
d="M633 1518l-213 -299l225 -322h-176l-137 199l-142 -199h-163l225 313l-213 308h174l127 -183l131 183h162z" />
    <glyph glyph-name="y.superior" horiz-adv-x="622" 
d="M133 694h-65v113h55q47 0 67 13t39 67l9 14l-226 617h162l135 -433l135 433h154l-217 -609q-48 -129 -96.5 -172t-151.5 -43z" />
    <glyph glyph-name="z.superior" horiz-adv-x="608" 
d="M39 897v111l321 399h-299v111h490v-111l-326 -399h334v-111h-520z" />
    <glyph glyph-name="zero.slashed.superior" horiz-adv-x="817" 
d="M748 1315q0 -197 -87 -314.5t-251 -117.5q-161 0 -247.5 118t-86.5 314t86.5 314t247.5 118q164 0 251 -117.5t87 -314.5zM231 1315v-21l351 152q-36 190 -172 190q-86 0 -132.5 -83.5t-46.5 -237.5zM592 1315v20l-350 -151q17 -92 60 -140.5t108 -48.5q89 0 135.5 83.5
t46.5 236.5z" />
    <glyph glyph-name="period.superior" horiz-adv-x="329" 
d="M248 897h-166v166h166v-166z" />
    <glyph glyph-name="hyphen.superior" horiz-adv-x="477" 
d="M428 1139h-379v133h379v-133z" />
    <glyph glyph-name="comma.superior" horiz-adv-x="354" 
d="M90 897v166h172v-178l-90 -178h-88l82 190h-76z" />
    <glyph glyph-name="a.inferior" horiz-adv-x="706" 
d="M494 -178q-27 -51 -85.5 -76t-121.5 -25q-106 0 -167 50t-61 131q0 59 32.5 101t94 65.5t128.5 35.5t159 19v27q0 65 -34.5 91.5t-96.5 26.5q-48 0 -82 -27t-37 -79h-145q6 95 80.5 155t195.5 60q123 0 196.5 -60.5t72.5 -203.5q-5 -117 -5 -183q4 -130 13 -194h-135
q-2 37 -2 86zM307 -166q86 0 126 43.5t40 114.5v24q-151 -15 -204.5 -37t-53.5 -71q0 -34 27 -54t65 -20z" />
    <glyph glyph-name="b.inferior" horiz-adv-x="753" 
d="M248 571v-292q61 92 178 92t192.5 -89t75.5 -235t-75.5 -236t-192.5 -90t-178 93v-78h-150v835h150zM242 47q0 -99 42 -153t111 -54q66 0 106 56.5t40 150.5q0 93 -40 149t-106 56q-70 0 -111.5 -53t-41.5 -152z" />
    <glyph glyph-name="c.inferior" horiz-adv-x="696" 
d="M360 371q105 0 183.5 -60t97.5 -170h-143q-8 48 -44.5 77.5t-95.5 29.5q-67 0 -108 -50.5t-41 -152.5t41.5 -152.5t107.5 -50.5q122 0 144 111h143q-22 -113 -103 -172.5t-186 -59.5q-136 0 -217.5 92t-81.5 232q0 142 82 234t221 92z" />
    <glyph glyph-name="d.inferior" horiz-adv-x="751" 
d="M504 571h149v-835h-149v78q-28 -44 -74.5 -68.5t-103.5 -24.5q-117 0 -193 90t-76 236t76 235t193 89q120 0 178 -92v292zM356 -160q68 0 111 54.5t43 152.5t-43 151.5t-111 53.5q-67 0 -106 -55.5t-39 -149.5t39 -150.5t106 -56.5z" />
    <glyph glyph-name="e.inferior" horiz-adv-x="714" 
d="M57 53q0 138 83.5 228t219.5 90q144 0 224.5 -101.5t72.5 -265.5h-450q3 -69 47.5 -115.5t110.5 -46.5q105 0 141 82h143q-26 -85 -94.5 -144t-183.5 -59q-147 0 -230.5 96t-83.5 236zM360 258q-57 0 -103.5 -38t-49.5 -111h299q-3 71 -45.5 110t-100.5 39z" />
    <glyph glyph-name="f.inferior" horiz-adv-x="417" 
d="M115 356v35q0 109 49 144.5t172 35.5h53v-110h-35q-55 0 -71.5 -14.5t-16.5 -63.5v-27h123v-104h-123v-516h-151v516h-86v104h86z" />
    <glyph glyph-name="g.inferior" horiz-adv-x="749" 
d="M508 356h149v-565q0 -143 -75 -215q-74 -68 -228 -68q-109 0 -182.5 46t-87.5 145h145q9 -42 39 -59t90 -17q86 0 125 49q25 36 25 88v78q-58 -92 -180 -92q-117 0 -194 86.5t-77 226.5q0 142 76.5 227t194.5 85q122 0 180 -92v77zM514 59q0 95 -43 145t-113 50
q-66 0 -106.5 -53t-40.5 -142q0 -90 40.5 -143t106.5 -53q71 0 113.5 50t42.5 146z" />
    <glyph glyph-name="h.inferior" horiz-adv-x="733" 
d="M248 571v-299q51 99 182 99q215 0 215 -246v-389h-151v354q0 35 -3.5 59.5t-14 49.5t-33.5 38t-58 13q-137 0 -137 -187v-327h-150v835h150z" />
    <glyph glyph-name="i.inferior" horiz-adv-x="346" 
d="M98 356h150v-620h-150v620zM98 571h150v-143h-150v143z" />
    <glyph glyph-name="j.inferior" horiz-adv-x="348" 
d="M98 -272v628h150v-620q0 -123 -39.5 -163t-153.5 -40h-43v115h25q41 0 51 14t10 66zM98 571h150v-143h-150v143z" />
    <glyph glyph-name="k.inferior" horiz-adv-x="681" 
d="M98 571h150v-452l221 237h178l-223 -237l240 -383h-175l-165 274l-76 -80v-194h-150v835z" />
    <glyph glyph-name="l.inferior" horiz-adv-x="346" 
d="M248 571v-835h-150v835h150z" />
    <glyph glyph-name="m.inferior" horiz-adv-x="1099" 
d="M98 -264v620h150v-69q53 84 174 84q125 0 178 -97q69 97 205 97q106 0 160 -64q47 -56 47 -180v-391h-150v362q0 84 -22 117q-24 35 -84 35q-38 0 -63.5 -14.5t-38.5 -41.5t-18 -57.5t-5 -70.5v-330h-152v362q0 86 -22 117q-24 35 -82 35q-73 0 -100 -49.5t-27 -134.5
v-330h-150z" />
    <glyph glyph-name="n.inferior" horiz-adv-x="733" 
d="M248 356v-84q51 99 182 99q215 0 215 -246v-389h-151v354q0 35 -3.5 59.5t-14 49.5t-33.5 38t-58 13q-137 0 -137 -187v-327h-150v620h150z" />
    <glyph glyph-name="o.inferior" horiz-adv-x="727" 
d="M365 -160q71 0 112 52.5t41 152.5q0 99 -41.5 153t-111.5 54q-68 0 -110 -55t-42 -152q0 -98 42 -151.5t110 -53.5zM365 -279q-61 0 -115 19.5t-97 58t-68.5 102t-25.5 144.5q0 158 89 242t217 84q129 0 217 -84t88 -242t-87.5 -241t-217.5 -83z" />
    <glyph glyph-name="p.inferior" horiz-adv-x="753" 
d="M248 356v-77q61 92 178 92t192.5 -89t75.5 -235t-75.5 -236t-192.5 -90t-178 93v-281h-150v823h150zM242 47q0 -99 42 -153t111 -54q66 0 106 56.5t40 150.5q0 93 -40 149t-106 56q-70 0 -111.5 -53t-41.5 -152z" />
    <glyph glyph-name="q.inferior" horiz-adv-x="751" 
d="M504 279v77h149v-823h-149v281q-28 -44 -74.5 -68.5t-103.5 -24.5q-117 0 -193 90t-76 236t76 235t193 89q120 0 178 -92zM510 47q0 98 -43 151.5t-111 53.5q-67 0 -106 -55.5t-39 -149.5t39 -150.5t106 -56.5q68 0 111 54.5t43 152.5z" />
    <glyph glyph-name="r.inferior" horiz-adv-x="473" 
d="M449 354v-149q-46 4 -68 4q-68 0 -100.5 -31.5t-32.5 -116.5v-325h-150v620h148v-112q56 112 166 112q5 0 18.5 -1t18.5 -1z" />
    <glyph glyph-name="s.inferior" horiz-adv-x="649" 
d="M334 -279q-118 0 -193 56t-84 149h144q6 -45 41.5 -70.5t97.5 -25.5q55 0 87 20.5t32 55.5q0 57 -103 80l-94 20q-93 19 -141.5 61t-48.5 123q0 80 74 130.5t180 50.5q100 0 176 -47t94 -140h-135q-20 76 -144 76q-46 0 -77 -17.5t-31 -43.5q0 -56 86 -74l84 -19
q55 -13 89.5 -24.5t68 -32t49.5 -52t16 -75.5q0 -94 -77.5 -147.5t-190.5 -53.5z" />
    <glyph glyph-name="t.inferior" horiz-adv-x="446" 
d="M117 356v166h149v-166h127v-104h-127v-328q0 -45 16.5 -61.5t61.5 -16.5h47v-110h-110q-100 0 -132 34t-32 132v350h-90v104h90z" />
    <glyph glyph-name="u.inferior" horiz-adv-x="729" 
d="M481 -264v80q-59 -97 -180 -97q-108 0 -166 70q-45 61 -45 176v391h150v-366q0 -80 20 -111q27 -41 88 -41q133 0 133 193v325h150v-620h-150z" />
    <glyph glyph-name="v.inferior" horiz-adv-x="632" 
d="M188 356l134 -430l133 430h155l-219 -620h-143l-223 620h163z" />
    <glyph glyph-name="w.inferior" horiz-adv-x="890" 
d="M268 -78l99 434h155l101 -434l79 434h164l-159 -620h-144l-117 444l-118 -444h-144l-159 620h161z" />
    <glyph glyph-name="x.inferior" horiz-adv-x="667" 
d="M633 356l-213 -299l225 -321h-176l-137 198l-142 -198h-163l225 313l-213 307h174l127 -182l131 182h162z" />
    <glyph glyph-name="y.inferior" horiz-adv-x="622" 
d="M133 -467h-65v113h55q47 0 67 13t39 67l9 14l-226 616h162l135 -432l135 432h154l-217 -608q-48 -129 -96.5 -172t-151.5 -43z" />
    <glyph glyph-name="z.inferior" horiz-adv-x="608" 
d="M39 -264v110l321 400h-299v110h490v-110l-326 -400h334v-110h-520z" />
    <glyph glyph-name="zero.slashed.inferior" horiz-adv-x="817" 
d="M748 154q0 -197 -87 -315t-251 -118q-161 0 -247.5 118t-86.5 315q0 196 86.5 314t247.5 118q164 0 251 -117.5t87 -314.5zM231 154v-21l351 152q-36 190 -172 190q-86 0 -132.5 -83.5t-46.5 -237.5zM592 154v20l-350 -151q17 -92 60 -140.5t108 -48.5q89 0 135.5 83.5
t46.5 236.5z" />
    <glyph glyph-name="period.inferior" horiz-adv-x="329" 
d="M248 -264h-166v166h166v-166z" />
    <glyph glyph-name="hyphen.inferior" horiz-adv-x="477" 
d="M428 -23h-379v134h379v-134z" />
    <glyph glyph-name="comma.inferior" horiz-adv-x="354" 
d="M90 -264v166h172v-178l-90 -179h-88l82 191h-76z" />
    <glyph glyph-name="equal.inferior" horiz-adv-x="757" 
d="M672 96h-586v133h586v-133zM672 -145h-586v133h586v-133z" />
    <glyph glyph-name="plus.inferior" horiz-adv-x="761" 
d="M449 -264h-136v241h-252v134h252v245h136v-245h251v-134h-251v-241z" />
    <glyph glyph-name="minus.inferior" horiz-adv-x="743" 
d="M63 111h619v-134h-619v134z" />
    <glyph glyph-name="one.numerator" horiz-adv-x="475" 
d="M360 649h-151v631h-182v102q99 2 145.5 20.5t75.5 82.5h112v-836z" />
    <glyph glyph-name="two.numerator" horiz-adv-x="712" 
d="M362 1499q121 0 199 -59t78 -162q0 -119 -104 -240t-310 -260h432v-129h-612v121q93 74 151.5 123t119 105.5t93 98.5t53.5 86.5t21 84.5q0 58 -34.5 89.5t-92.5 31.5q-63 0 -104.5 -43t-40.5 -132h-150q-2 128 80.5 206.5t220.5 78.5z" />
    <glyph glyph-name="three.numerator" horiz-adv-x="739" 
d="M365 748q71 0 116 37t45 100q0 139 -194 139h-49v121h41q184 0 184 125q0 58 -40 88.5t-99 30.5q-143 0 -166 -158h-144q9 124 94 196t226 72q53 0 101.5 -13t89.5 -39t65 -70t24 -101q0 -60 -31.5 -108.5t-84.5 -75.5q65 -27 101 -82.5t36 -120.5q0 -123 -91 -188.5
t-227 -65.5q-139 0 -222 79t-91 199h144q11 -72 54 -118.5t118 -46.5z" />
    <glyph glyph-name="four.numerator" horiz-adv-x="772" 
d="M444 1292l-249 -325h249v325zM739 967v-125h-143v-193h-152v193h-411v119l413 524h150v-518h143z" />
    <glyph glyph-name="five.numerator" horiz-adv-x="743" 
d="M371 748q69 0 113 45t44 122q0 84 -48 131.5t-113 47.5q-55 0 -94.5 -23.5t-51.5 -62.5l-139 6l55 471h508v-129h-383l-26 -201q66 49 170 49q114 0 195 -75.5t81 -210.5q0 -133 -89.5 -208t-223.5 -75q-140 0 -221 78.5t-87 197.5h142q8 -74 50 -118.5t118 -44.5z" />
    <glyph glyph-name="six.numerator" horiz-adv-x="743" 
d="M223 918q0 -80 43 -125t111 -45q71 0 114.5 45t43.5 125t-43.5 126t-112.5 46t-112.5 -46t-43.5 -126zM387 1389q-81 0 -127.5 -74.5t-46.5 -198.5q66 88 193 88q119 0 199.5 -77.5t80.5 -206.5q0 -128 -85.5 -206.5t-221.5 -78.5q-159 0 -238.5 110.5t-79.5 298.5
q0 95 18 174t56 143.5t104.5 101t155.5 36.5q126 0 197 -67.5t78 -161.5h-150q-4 59 -41 89t-92 30z" />
    <glyph glyph-name="seven.numerator" horiz-adv-x="634" 
d="M23 1356v129h608v-129q-169 -169 -249 -327.5t-93 -379.5h-166q16 390 354 707h-454z" />
    <glyph glyph-name="eight.numerator" horiz-adv-x="763" 
d="M383 1499q131 0 210 -59t79 -154q0 -126 -105 -190q129 -71 129 -209q0 -120 -87.5 -186t-225.5 -66t-225.5 66t-87.5 186q0 139 129 209q-51 30 -78 81t-27 109q0 95 79 154t210 59zM383 1038q-73 0 -115.5 -38t-42.5 -105q0 -70 42.5 -108.5t115.5 -38.5t116.5 39
t43.5 108q0 67 -43.5 105t-116.5 38zM524 1266q0 58 -38 90.5t-103 32.5q-64 0 -102.5 -32.5t-38.5 -90.5t39 -92.5t102 -34.5q65 0 103 34.5t38 92.5z" />
    <glyph glyph-name="nine.numerator" horiz-adv-x="735" 
d="M518 1217q0 81 -44 126.5t-112 45.5q-69 0 -112 -45.5t-43 -126.5q0 -80 43 -126.5t112 -46.5q67 0 111.5 47t44.5 126zM354 748q79 0 125.5 73.5t48.5 196.5q-30 -39 -80 -63.5t-114 -24.5q-119 0 -200 78.5t-81 208.5q0 126 86.5 204t222.5 78q158 0 237 -110.5
t79 -298.5q0 -94 -18.5 -173.5t-57 -144t-105 -101t-155.5 -36.5q-125 0 -194.5 67.5t-77.5 161.5h149q6 -59 42 -87.5t93 -28.5z" />
    <glyph glyph-name="zero.numerator" horiz-adv-x="817" 
d="M410 635q-161 0 -247.5 118t-86.5 314t86.5 314t247.5 118q164 0 251 -117.5t87 -314.5t-87 -314.5t-251 -117.5zM410 748q89 0 135.5 83t46.5 236q0 155 -46.5 238.5t-135.5 83.5q-86 0 -132.5 -84t-46.5 -238q0 -153 46.5 -236t132.5 -83z" />
    <glyph glyph-name="zero.slashed.numerator" horiz-adv-x="817" 
d="M748 1067q0 -197 -87 -314.5t-251 -117.5q-161 0 -247.5 118t-86.5 314t86.5 314t247.5 118q164 0 251 -117.5t87 -314.5zM231 1067v-20l351 151q-17 93 -61 142t-111 49q-86 0 -132.5 -84t-46.5 -238zM592 1067v20l-350 -151q36 -188 168 -188q89 0 135.5 83t46.5 236z
" />
    <glyph glyph-name="one.denominator" horiz-adv-x="475" 
d="M360 0h-151v631h-182v102q99 2 145.5 20.5t75.5 82.5h112v-836z" />
    <glyph glyph-name="two.denominator" horiz-adv-x="712" 
d="M362 850q121 0 199 -59t78 -162q0 -119 -104 -240t-310 -260h432v-129h-612v121q118 94 186 152t132.5 124t92 118.5t27.5 102.5q0 58 -34.5 89.5t-92.5 31.5q-63 0 -104.5 -42.5t-40.5 -131.5h-150q-2 128 80.5 206.5t220.5 78.5z" />
    <glyph glyph-name="three.denominator" horiz-adv-x="739" 
d="M365 98q71 0 116 37.5t45 100.5q0 139 -194 139h-49v121h41q184 0 184 125q0 58 -40 88t-99 30q-72 0 -113.5 -41t-52.5 -116h-144q9 124 94 196t226 72q53 0 101.5 -13t89.5 -39t65 -70t24 -101q0 -60 -32 -109t-84 -76q66 -27 101.5 -82t35.5 -120q0 -123 -91 -188.5
t-227 -65.5q-139 0 -222 79t-91 199h144q12 -72 54.5 -119t117.5 -47z" />
    <glyph glyph-name="four.denominator" horiz-adv-x="772" 
d="M444 643l-249 -326h249v326zM739 317v-124h-143v-193h-152v193h-411v118l413 525h150v-519h143z" />
    <glyph glyph-name="five.denominator" horiz-adv-x="743" 
d="M371 98q69 0 113 45.5t44 122.5q0 84 -48 131t-113 47q-55 0 -94.5 -23.5t-51.5 -62.5l-139 7l55 471h508v-129h-383l-26 -201q66 49 170 49q114 0 195 -76t81 -211q0 -133 -89.5 -207.5t-223.5 -74.5q-140 0 -221 78.5t-87 197.5h142q8 -75 50 -119.5t118 -44.5z" />
    <glyph glyph-name="six.denominator" horiz-adv-x="743" 
d="M223 268q0 -80 43 -125t111 -45q71 0 114.5 45t43.5 125t-43.5 126t-112.5 46t-112.5 -46t-43.5 -126zM387 739q-81 0 -127.5 -74t-46.5 -198q66 88 193 88q119 0 199.5 -78t80.5 -207q0 -128 -85.5 -206t-221.5 -78q-159 0 -238.5 110.5t-79.5 298.5q0 95 18 174
t56 143.5t104.5 101t155.5 36.5q126 0 197 -67.5t78 -161.5h-150q-4 59 -40.5 88.5t-92.5 29.5z" />
    <glyph glyph-name="seven.denominator" horiz-adv-x="634" 
d="M23 707v129h608v-129q-169 -169 -249 -327.5t-93 -379.5h-166q16 390 354 707h-454z" />
    <glyph glyph-name="eight.denominator" horiz-adv-x="763" 
d="M383 850q131 0 210 -59t79 -154q0 -127 -105 -191q129 -71 129 -208q0 -120 -87.5 -186t-225.5 -66t-225.5 66t-87.5 186q0 138 129 208q-51 30 -78 81.5t-27 109.5q0 95 79 154t210 59zM383 389q-73 0 -115.5 -38t-42.5 -105q0 -70 42.5 -109t115.5 -39t116.5 39
t43.5 109q0 67 -43.5 105t-116.5 38zM524 616q0 58 -38 90.5t-103 32.5q-64 0 -102.5 -32.5t-38.5 -90.5t39 -92.5t102 -34.5q65 0 103 34.5t38 92.5z" />
    <glyph glyph-name="nine.denominator" horiz-adv-x="735" 
d="M518 567q0 81 -44 126.5t-112 45.5q-69 0 -112 -45.5t-43 -126.5q0 -80 43 -126t112 -46q67 0 111.5 46.5t44.5 125.5zM354 98q79 0 125.5 74t48.5 197q-30 -39 -80 -63.5t-114 -24.5q-119 0 -200 78t-81 208q0 127 86.5 205t222.5 78q158 0 237 -111t79 -299
q0 -94 -18.5 -173.5t-57 -143.5t-105 -100.5t-155.5 -36.5q-125 0 -194.5 67.5t-77.5 161.5h149q6 -59 42 -88t93 -29z" />
    <glyph glyph-name="zero.denominator" horiz-adv-x="817" 
d="M410 -14q-161 0 -247.5 118t-86.5 314t86.5 314t247.5 118q164 0 251 -117.5t87 -314.5t-87 -314.5t-251 -117.5zM410 98q89 0 135.5 83.5t46.5 236.5q0 155 -46.5 238t-135.5 83q-86 0 -132.5 -83.5t-46.5 -237.5q0 -153 46.5 -236.5t132.5 -83.5z" />
    <glyph glyph-name="zero.slashed.denominator" horiz-adv-x="817" 
d="M748 418q0 -197 -87 -314.5t-251 -117.5q-161 0 -247.5 118t-86.5 314t86.5 314t247.5 118q164 0 251 -117.5t87 -314.5zM231 418v-21l351 152q-36 190 -172 190q-86 0 -132.5 -83.5t-46.5 -237.5zM592 418v20l-350 -151q17 -92 60 -140.5t108 -48.5q89 0 135.5 83.5
t46.5 236.5z" />
    <glyph glyph-name="ampersand.case" horiz-adv-x="1464" 
d="M563 -27q-223 0 -360 124t-137 311q0 164 100 278t274 174q-81 95 -122.5 175.5t-41.5 162.5q0 142 114 228.5t290 86.5q56 0 108.5 -10t103 -34t87.5 -59.5t59.5 -91t22.5 -124.5q0 -257 -303 -385l295 -313q57 137 69 309h203q-19 -255 -135 -453l332 -352h-277
l-178 188q-208 -215 -504 -215zM563 139q234 0 383 178l-395 424q-279 -98 -279 -325q0 -125 85 -201t206 -76zM483 1212q0 -116 160 -280l4 -4q107 39 169.5 108.5t62.5 155.5t-53.5 126t-141.5 40q-84 0 -142.5 -37.5t-58.5 -108.5z" />
    <glyph glyph-name="hyphen.case" horiz-adv-x="829" 
d="M739 668h-651v176h651v-176z" />
    <glyph glyph-name="endash.case" horiz-adv-x="1048" 
d="M973 668h-895v176h895v-176z" />
    <glyph glyph-name="emdash.case" horiz-adv-x="1480" 
d="M1415 668h-1349v176h1349v-176z" />
    <glyph glyph-name="question.case" horiz-adv-x="1093" 
d="M565 1511q104 0 193.5 -22t159 -64.5t109.5 -113t40 -160.5q0 -56 -20.5 -110.5t-50.5 -96.5t-75 -84t-83.5 -71t-87.5 -60q-99 -65 -130.5 -107.5t-31.5 -123.5v-64h-211v70q0 63 16.5 114t53 94.5t80.5 79t114 80.5q39 25 63.5 42t56 44.5t49.5 51.5t31 56.5t13 66.5
q0 96 -78.5 147t-216.5 51q-89 0 -155.5 -24.5t-102.5 -66.5t-54 -87.5t-20 -97.5h-200q2 201 152 328.5t386 127.5zM604 0h-235v236h235v-236z" />
    <glyph glyph-name="questiondown.case" horiz-adv-x="1093" 
d="M528 -27q-104 0 -193.5 22t-159 65.5t-109 114t-39.5 161.5q0 47 12.5 89.5t40 80.5t52.5 66t69.5 62t69.5 51t73 48q98 64 129 107t31 125v63h213v-70q0 -63 -16.5 -114t-53 -94.5t-80.5 -79t-114 -80.5q-10 -7 -44 -28t-45.5 -29t-37.5 -27t-36.5 -32.5t-25 -33.5
t-19.5 -41.5t-5 -46.5q0 -95 78 -146.5t214 -51.5q90 0 157 26t103 69t54 89.5t20 97.5l201 -6q-2 -200 -152.5 -328.5t-386.5 -128.5zM725 1249h-236v236h236v-236z" />
    <glyph glyph-name="exclam.case" horiz-adv-x="542" 
d="M330 434h-117l-53 602v449h223v-449zM389 0h-235v236h235v-236z" />
    <glyph glyph-name="exclamdown.case" horiz-adv-x="542" 
d="M213 1028h117l53 -600v-428h-223v428zM389 1249h-235v236h235v-236z" />
    <glyph glyph-name="guilsinglleft.case" horiz-adv-x="591" 
d="M346 285l-326 469l326 467h201l-307 -467l307 -469h-201z" />
    <glyph glyph-name="guilsinglright.case" horiz-adv-x="591" 
d="M571 754l-325 -469h-201l309 469l-309 467h201z" />
    <glyph glyph-name="guillemotleft.case" horiz-adv-x="1052" 
d="M346 285l-326 469l326 467h201l-307 -467l307 -469h-201zM807 285l-326 469l326 467h201l-308 -467l308 -469h-201z" />
    <glyph glyph-name="guillemotright.case" horiz-adv-x="1052" 
d="M571 754l-325 -469h-201l309 469l-309 467h201zM1032 754l-325 -469h-201l309 469l-309 467h201z" />
    <glyph glyph-name="parenleft.case" horiz-adv-x="501" 
d="M66 745q0 382 223 740h198q-208 -337 -208 -740q0 -404 208 -745h-198q-223 358 -223 745z" />
    <glyph glyph-name="parenright.case" horiz-adv-x="501" 
d="M438 745q0 -387 -223 -745h-199q207 339 207 745q0 404 -207 740h199q223 -358 223 -740z" />
    <glyph glyph-name="bracketleft.case" horiz-adv-x="677" 
d="M176 1485h461v-158h-266v-1169h266v-158h-461v1485z" />
    <glyph glyph-name="bracketright.case" horiz-adv-x="677" 
d="M41 1485h461v-1485h-461v158h266v1169h-266v158z" />
    <glyph glyph-name="braceleft.case" horiz-adv-x="614" 
d="M477 0q-95 0 -152.5 14.5t-90.5 52.5t-44.5 92t-11.5 144v154q0 42 -3 71t-12.5 57.5t-26 45.5t-45 27t-68.5 10v149q40 0 68.5 10t45 27t26 45.5t12.5 57.5t3 71v154q0 91 11.5 145t44.5 91.5t90.5 52t152.5 14.5h96v-158h-79q-72 0 -93.5 -27.5t-21.5 -115.5v-160
q0 -135 -39 -195.5t-123 -83.5v-4q84 -23 123 -84t39 -196v-160q0 -88 21.5 -115.5t93.5 -27.5h79v-158h-96z" />
    <glyph glyph-name="braceright.case" horiz-adv-x="614" 
d="M41 0v158h80q72 0 93.5 27.5t21.5 115.5v160q0 135 38.5 196t122.5 84v4q-84 23 -122.5 83.5t-38.5 195.5v160q0 88 -21.5 115.5t-93.5 27.5h-80v158h96q95 0 152.5 -14.5t90.5 -52t44.5 -91.5t11.5 -145v-154q0 -108 30.5 -159.5t125.5 -51.5v-149q-95 0 -125.5 -51.5
t-30.5 -159.5v-154q0 -90 -11.5 -144t-44.5 -92t-90.5 -52.5t-152.5 -14.5h-96z" />
    <glyph glyph-name="bar.case" horiz-adv-x="522" 
d="M176 1485h170v-1485h-170v1485z" />
    <glyph glyph-name="brokenbar.case" horiz-adv-x="464" 
d="M147 1485h170v-533h-170v533zM147 532h170v-532h-170v532z" />
    <glyph glyph-name="periodcentered.case" horiz-adv-x="501" 
d="M369 625h-236v235h236v-235z" />
    <glyph glyph-name="bullet.case" horiz-adv-x="915" 
d="M88 766q0 150 106.5 256t254.5 106q160 0 268 -105t108 -257q0 -160 -107.5 -267.5t-268.5 -107.5q-149 0 -255 108.5t-106 266.5z" />
    <glyph glyph-name="plus.case" 
d="M788 195h-186v462h-463v177h463v450h186v-450h463v-177h-463v-462z" />
    <glyph glyph-name="minus.case" 
d="M139 834h1112v-177h-1112v177z" />
    <glyph glyph-name="divide.case" 
d="M582 260v236h235v-236h-235zM582 973v235h235v-235h-235zM1229 635h-1069v176h1069v-176z" />
    <glyph glyph-name="multiply.case" 
d="M1176 389l-132 -133l-356 354l-342 -340l-133 131l344 342l-344 347l133 131l342 -342l344 340l133 -132l-344 -344z" />
    <glyph glyph-name="equal.case" 
d="M1208 874h-1026v179h1026v-179zM1208 461h-1026v176h1026v-176z" />
    <glyph glyph-name="plusminus.case" 
d="M600 967v317h188v-317h441v-176h-441v-320h-188v320h-440v176h440zM1229 195h-1069v176h1069v-176z" />
    <glyph glyph-name="less.case" 
d="M160 823l1050 465v-201l-817 -344l817 -337v-199l-1050 457v159z" />
    <glyph glyph-name="greater.case" 
d="M1231 823v-159l-1051 -457v199l817 337l-817 344v201z" />
    <glyph glyph-name="lessequal.case" 
d="M422 862l795 -250v-196l-1051 366v160l1051 377v-201zM160 195v176h1069v-176h-1069z" />
    <glyph glyph-name="greaterequal.case" 
d="M967 862l-797 256v201l1053 -377v-160l-1053 -366v196zM1229 195h-1069v176h1069v-176z" />
    <glyph glyph-name="notequal.case" 
d="M436 461h-254v176h348l127 237h-475v179h572l166 307l153 -74l-127 -233h262v-179h-356l-129 -237h485v-176h-579l-185 -342l-151 76z" />
    <glyph glyph-name="acute.case" horiz-adv-x="579" 
d="M535 1815l-306 -232h-184l225 232h265z" />
    <glyph glyph-name="breve.case" horiz-adv-x="735" 
d="M532 1815h158q-13 -112 -94 -178t-231 -66q-146 0 -226 66t-94 178h158q18 -119 164 -119q143 0 165 119z" />
    <glyph glyph-name="caron.case" horiz-adv-x="806" 
d="M313 1583l-268 232h219l137 -115l142 115h219l-277 -232h-172z" />
    <glyph glyph-name="cedilla.case" horiz-adv-x="501" 
d="M45 -360l33 81q61 -28 119 -28q51 0 88 15.5t37 49.5q0 29 -26 45.5t-65 16.5q-50 0 -77 -19l-62 35l105 170h108l-65 -104q30 6 61 6q73 0 114.5 -37.5t41.5 -101.5q0 -77 -68 -122.5t-153 -45.5q-111 0 -191 39z" />
    <glyph glyph-name="circumflex.case" horiz-adv-x="806" 
d="M492 1815l270 -232h-219l-140 115l-139 -115h-219l277 232h170z" />
    <glyph glyph-name="dieresis.case" horiz-adv-x="747" 
d="M45 1800h186v-203h-186v203zM514 1800h188v-203h-188v203z" />
    <glyph glyph-name="dotaccent.case" horiz-adv-x="276" 
d="M45 1802h186v-203h-186v203z" />
    <glyph glyph-name="grave.case" horiz-adv-x="579" 
d="M348 1583l-303 232h264l226 -232h-187z" />
    <glyph glyph-name="hungarumlaut.case" horiz-adv-x="921" 
d="M535 1815l-306 -232h-184l225 232h265zM877 1815l-306 -232h-184l225 232h265z" />
    <glyph glyph-name="macron.case" horiz-adv-x="704" 
d="M659 1620h-614v154h614v-154z" />
    <glyph glyph-name="ogonek.case" horiz-adv-x="440" 
d="M186 0h209q-180 -90 -180 -164q0 -47 27 -69.5t69 -22.5q43 0 84 18v-124q-54 -23 -123 -23q-59 0 -108 17.5t-84 63t-35 114.5q0 112 141 190z" />
    <glyph glyph-name="ring.case" horiz-adv-x="460" 
d="M229 1915q78 0 132.5 -49.5t54.5 -124.5q0 -74 -54 -124t-133 -50q-77 0 -130.5 50t-53.5 124q0 75 54 124.5t130 49.5zM229 1829q-35 0 -61.5 -25.5t-26.5 -62.5t26.5 -61.5t61.5 -24.5q36 0 62 24.5t26 61.5q0 38 -26 63t-62 25z" />
    <glyph glyph-name="tilde.case" horiz-adv-x="843" 
d="M557 1720q39 0 64.5 23.5t31.5 68.5h146q-20 -120 -84.5 -175.5t-153.5 -55.5q-52 0 -103.5 24t-95.5 48t-79 24q-40 0 -64 -23.5t-29 -66.5h-145q20 115 82.5 172.5t153.5 57.5q42 0 82.5 -15t67 -33.5t61 -33.5t65.5 -15z" />
    <glyph glyph-name="a.ss01" horiz-adv-x="1230" 
d="M897 928v174h186v-1102h-186v166q-112 -193 -360 -193q-201 0 -331 153.5t-130 420.5q0 265 130 419t331 154q248 0 360 -192zM905 547q0 105 -26.5 186.5t-72 130t-102 73t-120.5 24.5q-149 0 -229.5 -108.5t-80.5 -305.5t80.5 -305.5t229.5 -108.5q64 0 120.5 24.5
t102 73t72 130t26.5 186.5z" />
    <glyph glyph-name="aacute.ss01" horiz-adv-x="1230" 
d="M897 928v174h186v-1102h-186v166q-112 -193 -360 -193q-201 0 -331 153.5t-130 420.5q0 265 130 419t331 154q248 0 360 -192zM905 547q0 105 -26.5 186.5t-72 130t-102 73t-120.5 24.5q-149 0 -229.5 -108.5t-80.5 -305.5t80.5 -305.5t229.5 -108.5q64 0 120.5 24.5
t102 73t72 130t26.5 186.5zM926 1485l-269 -238h-155l184 238h240z" />
    <glyph glyph-name="abreve.ss01" horiz-adv-x="1230" 
d="M897 928v174h186v-1102h-186v166q-112 -193 -360 -193q-201 0 -331 153.5t-130 420.5q0 265 130 419t331 154q248 0 360 -192zM905 547q0 105 -26.5 186.5t-72 130t-102 73t-120.5 24.5q-149 0 -229.5 -108.5t-80.5 -305.5t80.5 -305.5t229.5 -108.5q64 0 120.5 24.5
t102 73t72 130t26.5 186.5zM928 1485q-6 -49 -25 -91t-56 -78.5t-100 -57.5t-147 -21q-82 0 -144 21t-98 57.5t-55 78.5t-24 91h145q7 -54 50.5 -89.5t127.5 -35.5t128.5 35.5t51.5 89.5h146z" />
    <glyph glyph-name="acircumflex.ss01" horiz-adv-x="1230" 
d="M897 928v174h186v-1102h-186v166q-112 -193 -360 -193q-201 0 -331 153.5t-130 420.5q0 265 130 419t331 154q248 0 360 -192zM905 547q0 105 -26.5 186.5t-72 130t-102 73t-120.5 24.5q-149 0 -229.5 -108.5t-80.5 -305.5t80.5 -305.5t229.5 -108.5q64 0 120.5 24.5
t102 73t72 130t26.5 186.5zM694 1485l264 -238h-196l-162 111l-162 -111h-196l270 238h182z" />
    <glyph glyph-name="adieresis.ss01" horiz-adv-x="1230" 
d="M897 928v174h186v-1102h-186v166q-112 -193 -360 -193q-201 0 -331 153.5t-130 420.5q0 265 130 419t331 154q248 0 360 -192zM905 547q0 105 -26.5 186.5t-72 130t-102 73t-120.5 24.5q-149 0 -229.5 -108.5t-80.5 -305.5t80.5 -305.5t229.5 -108.5q64 0 120.5 24.5
t102 73t72 130t26.5 186.5zM272 1282v203h187v-203h-187zM741 1485h189v-203h-189v203z" />
    <glyph glyph-name="agrave.ss01" horiz-adv-x="1230" 
d="M897 928v174h186v-1102h-186v166q-112 -193 -360 -193q-201 0 -331 153.5t-130 420.5q0 265 130 419t331 154q248 0 360 -192zM905 547q0 105 -26.5 186.5t-72 130t-102 73t-120.5 24.5q-149 0 -229.5 -108.5t-80.5 -305.5t80.5 -305.5t229.5 -108.5q64 0 120.5 24.5
t102 73t72 130t26.5 186.5zM502 1247l-266 238h237l186 -238h-157z" />
    <glyph glyph-name="amacron.ss01" horiz-adv-x="1230" 
d="M897 928v174h186v-1102h-186v166q-112 -193 -360 -193q-201 0 -331 153.5t-130 420.5q0 265 130 419t331 154q248 0 360 -192zM905 547q0 105 -26.5 186.5t-72 130t-102 73t-120.5 24.5q-149 0 -229.5 -108.5t-80.5 -305.5t80.5 -305.5t229.5 -108.5q64 0 120.5 24.5
t102 73t72 130t26.5 186.5zM907 1300h-614v154h614v-154z" />
    <glyph glyph-name="aogonek.ss01" horiz-adv-x="1230" 
d="M897 0v166q-112 -193 -360 -193q-201 0 -331 153.5t-130 420.5q0 265 130 419t331 154q248 0 360 -192v174h186v-1102q-93 -39 -146.5 -84.5t-53.5 -89.5q0 -42 32 -61t80 -19q40 0 86 12v-125q-52 -18 -131 -18q-44 0 -83.5 9t-75.5 28.5t-57 57t-21 89.5
q0 63 43.5 111.5t140.5 89.5zM905 547q0 105 -26.5 186.5t-72 130t-102 73t-120.5 24.5q-149 0 -229.5 -108.5t-80.5 -305.5t80.5 -305.5t229.5 -108.5q64 0 120.5 24.5t102 73t72 130t26.5 186.5z" />
    <glyph glyph-name="aring.ss01" horiz-adv-x="1230" 
d="M897 928v174h186v-1102h-186v166q-112 -193 -360 -193q-201 0 -331 153.5t-130 420.5q0 265 130 419t331 154q248 0 360 -192zM905 547q0 105 -26.5 186.5t-72 130t-102 73t-120.5 24.5q-149 0 -229.5 -108.5t-80.5 -305.5t80.5 -305.5t229.5 -108.5q64 0 120.5 24.5
t102 73t72 130t26.5 186.5zM580 1577q78 0 132 -49.5t54 -124.5t-53.5 -124.5t-132.5 -49.5q-77 0 -131 50t-54 124q0 75 54.5 124.5t130.5 49.5zM580 1491q-35 0 -61.5 -25.5t-26.5 -62.5q0 -36 26.5 -61t61.5 -25q36 0 62 25t26 61q0 38 -26 63t-62 25z" />
    <glyph glyph-name="atilde.ss01" horiz-adv-x="1230" 
d="M897 928v174h186v-1102h-186v166q-112 -193 -360 -193q-201 0 -331 153.5t-130 420.5q0 265 130 419t331 154q248 0 360 -192zM905 547q0 105 -26.5 186.5t-72 130t-102 73t-120.5 24.5q-149 0 -229.5 -108.5t-80.5 -305.5t80.5 -305.5t229.5 -108.5q64 0 120.5 24.5
t102 73t72 130t26.5 186.5zM756 1393q39 0 64.5 23.5t31.5 68.5h145q-21 -119 -85 -175.5t-152 -56.5q-41 0 -83 15.5t-70.5 34t-63 34t-62.5 15.5q-40 0 -63.5 -23.5t-28.5 -66.5h-145q20 115 82 172t153 57q42 0 82.5 -15.5t67.5 -33.5t61.5 -33.5t65.5 -15.5z" />
    <glyph glyph-name="l.ss02" horiz-adv-x="509" 
d="M143 276v1209h187v-1184q0 -90 18.5 -116.5t95.5 -26.5h41v-158h-82q-83 0 -130.5 10.5t-78 42t-41 83t-10.5 140.5z" />
    <glyph glyph-name="lacute.ss02" horiz-adv-x="509" 
d="M143 276v1209h187v-1184q0 -90 18.5 -116.5t95.5 -26.5h41v-158h-82q-83 0 -130.5 10.5t-78 42t-41 83t-10.5 140.5zM637 1815l-305 -232h-185l226 232h264z" />
    <glyph glyph-name="lcaron.ss02" horiz-adv-x="634" 
d="M676 1485l-144 -348h-118l61 348h201zM143 276v1209h187v-1184q0 -90 18.5 -116.5t95.5 -26.5h41v-158h-82q-83 0 -130.5 10.5t-78 42t-41 83t-10.5 140.5z" />
    <glyph glyph-name="lcommaaccent.ss02" horiz-adv-x="509" 
d="M143 276v1209h187v-1184q0 -90 18.5 -116.5t95.5 -26.5h41v-158h-82q-83 0 -130.5 10.5t-78 42t-41 83t-10.5 140.5zM219 -256v182h195v-194l-90 -185h-111l80 197h-74z" />
    <glyph glyph-name="ldot.ss02" horiz-adv-x="659" 
d="M477 938h187v-203h-187v203zM143 276v1209h187v-1184q0 -90 18.5 -116.5t95.5 -26.5h41v-158h-82q-83 0 -130.5 10.5t-78 42t-41 83t-10.5 140.5z" />
    <glyph glyph-name="lslash.ss02" horiz-adv-x="591" 
d="M41 547v155l147 101v682h187v-553l149 102v-157l-149 -103v-473q0 -90 18.5 -116.5t95.5 -26.5h41v-158h-81q-83 0 -130.5 10.5t-78.5 42t-41.5 83t-10.5 140.5v371z" />
    <glyph glyph-name="fl.ss02" horiz-adv-x="1150" 
d="M195 1102v80q0 91 11 145t44 91.5t90 52t152 14.5h96v-156h-92q-73 0 -94 -25t-21 -112v-90h207v-150h-207v-952h-186v952h-154v150h154zM784 276v1209h187v-1184q0 -90 18.5 -116.5t95.5 -26.5h41v-158h-82q-83 0 -130.5 10.5t-78 42t-41 83t-10.5 140.5z" />
    <glyph glyph-name="germandbls.ss03" horiz-adv-x="1296" 
d="M334 -358h-187v1364q0 249 113 362q130 141 412 141q202 0 332.5 -96t130.5 -256q0 -229 -224 -321q310 -80 310 -398q0 -101 -30.5 -181t-81.5 -132.5t-122 -87t-148.5 -49.5t-164.5 -15q-108 0 -223 23l41 176q95 -31 190 -31q68 0 126 15t107 47.5t77 92t28 140.5
q0 297 -416 297h-6v170h4q164 0 254 61t90 171q0 99 -76.5 160t-199.5 61q-199 0 -273 -101q-63 -76 -63 -249v-1364z" />
    </font>
</defs>
</svg>
